<svg width="36" height="36" viewBox="0 0 36 36" fill="none" xmlns="http://www.w3.org/2000/svg">
<g clip-path="url(#clip0_1276_41060)">
<path d="M30.0612 5.13867L14.2753 20.9246C13.8498 21.35 13.1599 21.35 12.7344 20.9246L5.93907 14.1292L0.56958 19.4986L10.8201 29.7491C11.5322 30.4611 12.4979 30.8611 13.5049 30.8611C14.5117 30.8611 15.4776 30.4611 16.1895 29.7491L35.4306 10.508L30.0612 5.13867Z" fill="#AAE07F"/>
<g opacity="0.1">
<path d="M33.655 8.73242L13.3422 29.0451C12.7802 29.607 12.0736 29.9903 11.3101 30.1611C11.9475 30.6129 12.7132 30.8611 13.5049 30.8611C14.5117 30.8611 15.4776 30.461 16.1895 29.749L35.4306 10.508L33.655 8.73242Z" fill="#171D34"/>
</g>
<path d="M13.5049 31.4316C12.3387 31.4316 11.2421 30.9775 10.4174 30.1527L0.166921 19.9022C-0.0554776 19.6798 -0.0554776 19.3192 0.166921 19.0968L5.53642 13.7273C5.75888 13.5049 6.11945 13.5049 6.34185 13.7273L8.35757 15.743C8.57997 15.9654 8.57997 16.326 8.35757 16.5484C8.13503 16.7708 7.77447 16.7707 7.55214 16.5484L5.93917 14.9354L1.3751 19.4995L11.2229 29.3473C11.8325 29.9568 12.6429 30.2925 13.505 30.2925C14.367 30.2925 15.1774 29.9568 15.7871 29.3473L28.9321 16.2022C29.1545 15.9798 29.5151 15.9797 29.7375 16.2022C29.9599 16.4246 29.9599 16.7852 29.7375 17.0076L16.5924 30.1528C15.7676 30.9775 14.6711 31.4316 13.5049 31.4316Z" fill="#171D34"/>
<path d="M13.505 21.8143C13.0618 21.8143 12.6452 21.6417 12.3319 21.3284L9.16301 18.1595C8.94062 17.9371 8.94062 17.5765 9.16301 17.3542C9.38548 17.1318 9.74605 17.1318 9.96845 17.3542L13.1373 20.523C13.2355 20.6212 13.3661 20.6752 13.505 20.6752C13.6438 20.6752 13.7745 20.6212 13.8727 20.5229L29.6584 4.73711C29.8809 4.51471 30.2415 4.51471 30.4639 4.73711L35.8334 10.1066C35.9401 10.2133 36.0002 10.3583 36.0002 10.5093C36.0002 10.6603 35.9402 10.8052 35.8334 10.912L31.3483 15.397C31.1259 15.6194 30.7653 15.6193 30.5429 15.397C30.3205 15.1746 30.3205 14.814 30.5429 14.5916L34.6253 10.5093L30.0613 5.94529L14.6781 21.3284C14.3647 21.6417 13.948 21.8143 13.505 21.8143Z" fill="#171D34"/>
</g>
<defs>
<clipPath id="clip0_1276_41060">
<rect width="36" height="36" fill="white"/>
</clipPath>
</defs>
</svg>
