<svg width="33" height="32" viewBox="0 0 33 32" fill="none" xmlns="http://www.w3.org/2000/svg">
<g clip-path="url(#clip0_3367_73990)">
<path d="M25.875 7.13306V29.375C25.875 30.4795 24.9795 31.375 23.875 31.375H2.875C1.77051 31.375 0.875 30.4795 0.875 29.375V2.625C0.875 1.52051 1.77051 0.625 2.875 0.625H19.375L25.875 7.13306Z" fill="#F5F9FF"/>
<path d="M25.8672 7.13306V29.375C25.8672 30.4795 24.9717 31.375 23.8672 31.375H2.86719C1.76245 31.375 0.867188 30.4795 0.867188 29.375V2.625C0.867188 1.52051 1.76245 0.625 2.86719 0.625H19.3672L25.8672 7.13306Z" fill="#F5F9FF"/>
<path d="M19.3672 5.13306C19.3672 6.23755 20.2625 7.13306 21.3672 7.13306H25.8672L19.3672 0.625V5.13306Z" fill="#F6BD3D"/>
<path d="M4.86719 5.625H13.3672V10.625H4.86719V5.625Z" fill="white"/>
<path d="M18.1506 22.6016L16.1736 28.8518L22.4238 26.8748L18.1506 22.6016Z" fill="#73C3FD"/>
<path d="M31.0178 18.2864L22.4238 26.8804L18.1506 22.6072L26.7446 14.0132C27.5437 13.2144 28.8389 13.2144 29.6377 14.0132L31.0178 15.3933C31.8169 16.1921 31.8169 17.4875 31.0178 18.2864Z" fill="#F6BD3D"/>
<path d="M31.0178 15.3933L29.6377 14.0132C28.8389 13.2144 27.5437 13.2144 26.7446 14.0132L25.8501 14.908L30.1233 19.1812L31.0178 18.2864C31.8169 17.4875 31.8169 16.1921 31.0178 15.3933Z" fill="#307FF4"/>
<path d="M4.86719 11.25H13.3672C13.7124 11.25 13.9922 10.9702 13.9922 10.625V5.625C13.9922 5.27979 13.7124 5 13.3672 5H4.86719C4.52197 5 4.24219 5.27979 4.24219 5.625V10.625C4.24219 10.9702 4.52197 11.25 4.86719 11.25ZM5.49219 6.25H12.7422V10H5.49219V6.25Z" fill="#171D34"/>
<path d="M16.8047 11.25H21.8672C22.2124 11.25 22.4922 10.9702 22.4922 10.625C22.4922 10.2798 22.2124 10 21.8672 10H16.8047C16.4595 10 16.1797 10.2798 16.1797 10.625C16.1797 10.9702 16.4595 11.25 16.8047 11.25Z" fill="#171D34"/>
<path d="M20.999 15C20.8345 15 20.6733 15.0669 20.5571 15.1831C20.4409 15.2993 20.374 15.4604 20.374 15.625C20.374 15.7893 20.4409 15.9504 20.5571 16.0669C20.6733 16.1831 20.8345 16.25 20.999 16.25C21.1633 16.25 21.3245 16.1831 21.4409 16.0669C21.5571 15.9504 21.624 15.7893 21.624 15.625C21.624 15.4604 21.5571 15.2993 21.4409 15.1831C21.3245 15.0669 21.1633 15 20.999 15Z" fill="#171D34"/>
<path d="M4.86719 16.25H18.4365C18.7817 16.25 19.0615 15.9702 19.0615 15.625C19.0615 15.2798 18.7817 15 18.4365 15H4.86719C4.52197 15 4.24219 15.2798 4.24219 15.625C4.24219 15.9702 4.52197 16.25 4.86719 16.25Z" fill="#171D34"/>
<path d="M14.5625 25H7.61719C7.27197 25 6.99219 25.2798 6.99219 25.625C6.99219 25.9702 7.27197 26.25 7.61719 26.25H14.5625C14.9077 26.25 15.1875 25.9702 15.1875 25.625C15.1875 25.2798 14.9077 25 14.5625 25Z" fill="#171D34"/>
<path d="M4.94019 25C4.77588 25 4.6145 25.0669 4.49829 25.1831C4.38208 25.2993 4.31519 25.4604 4.31519 25.625C4.31519 25.7893 4.38208 25.9504 4.49829 26.0669C4.6145 26.1831 4.77588 26.25 4.94019 26.25C5.10449 26.25 5.26587 26.1831 5.38208 26.0669C5.49829 25.9504 5.56519 25.7893 5.56519 25.625C5.56519 25.4604 5.49829 25.2993 5.38208 25.1831C5.26587 25.0669 5.10449 25 4.94019 25Z" fill="#171D34"/>
<path d="M4.86719 21.25H16.3672C16.7124 21.25 16.9922 20.9702 16.9922 20.625C16.9922 20.2798 16.7124 20 16.3672 20H4.86719C4.52197 20 4.24219 20.2798 4.24219 20.625C4.24219 20.9702 4.52197 21.25 4.86719 21.25Z" fill="#171D34"/>
<path d="M32.2422 16.8369C32.2422 16.1235 31.9644 15.4529 31.46 14.9485L30.0798 13.5684C29.5752 13.064 28.9045 12.7861 28.1912 12.7861C27.5671 12.7861 26.9761 12.9985 26.5 13.3894V7.13306C26.5 6.96729 26.4343 6.80835 26.3171 6.69116L19.8171 0.18335C19.7 0.065918 19.541 0 19.375 0H2.875C1.42749 0 0.25 1.17749 0.25 2.625V29.375C0.25 30.8225 1.42749 32 2.875 32H23.875C25.3225 32 26.5 30.8225 26.5 29.375V23.7266C26.5 23.7134 26.4988 23.7002 26.498 23.6873L31.4597 18.7253C31.9644 18.2209 32.2422 17.5503 32.2422 16.8369ZM22.4238 25.9937L21.1711 24.741L27.9866 17.9255L29.2393 19.1782L22.4238 25.9937ZM17.5532 26.5659L18.4624 27.4751L17.1323 27.8955L17.5532 26.5659ZM19.8054 27.0503L17.978 25.2229L18.4363 23.7737L19.845 25.1826L19.8452 25.1829L19.8457 25.1831L21.2544 26.5918L19.8054 27.0503ZM20.2874 23.8569L19.0347 22.6042L25.8501 15.7888L27.1028 17.0415L20.2874 23.8569ZM19.9922 2.1272L24.365 6.50537H21.3672C20.6089 6.50537 19.9922 5.88843 19.9922 5.13037V2.1272ZM25.25 29.375C25.25 30.1333 24.6333 30.75 23.875 30.75H2.875C2.1167 30.75 1.5 30.1333 1.5 29.375V2.625C1.5 1.8667 2.1167 1.25 2.875 1.25H18.7419V4.99731H16.8044C16.4595 4.99731 16.1794 5.2771 16.1794 5.62231C16.1794 5.96753 16.4595 6.24731 16.8044 6.24731H18.9922C19.4126 7.1377 20.3188 7.75537 21.3669 7.75537H25.25V14.6211L17.7087 22.1624C17.7048 22.166 17.7017 22.1704 17.6978 22.1743C17.6882 22.1846 17.6787 22.1946 17.6697 22.2056C17.6643 22.2119 17.6597 22.2185 17.6545 22.2253C17.6472 22.2349 17.6399 22.2441 17.6333 22.2542C17.6272 22.2629 17.6218 22.272 17.6165 22.281C17.6116 22.2893 17.6064 22.2974 17.6018 22.3057C17.5957 22.3171 17.5901 22.3289 17.5847 22.3406C17.5815 22.3472 17.5784 22.3538 17.5754 22.3606C17.5696 22.3745 17.5645 22.3887 17.5596 22.4028C17.5581 22.4072 17.5562 22.4114 17.5549 22.4158L17.5522 22.4246C17.5518 22.4253 17.5515 22.4263 17.5513 22.4272L15.5779 28.666C15.5076 28.8884 15.5669 29.1313 15.7319 29.2964C15.8508 29.4153 16.0105 29.4795 16.1738 29.4795C16.2368 29.4795 16.3003 29.47 16.3623 29.4502L22.6013 27.4768C22.6021 27.4768 22.6025 27.4763 22.6033 27.4763L22.6126 27.4734C22.6169 27.4719 22.6213 27.47 22.6257 27.4685C22.6399 27.4636 22.6538 27.4587 22.6675 27.4529C22.6743 27.45 22.6812 27.4465 22.688 27.4434C22.6995 27.438 22.7112 27.4326 22.7224 27.4265C22.731 27.4219 22.739 27.4167 22.7473 27.4119C22.7563 27.4062 22.7651 27.4009 22.7739 27.395C22.7839 27.3884 22.7935 27.3811 22.803 27.3738C22.8096 27.3689 22.8162 27.364 22.8228 27.3586C22.8335 27.3496 22.8435 27.3401 22.8538 27.3306C22.8577 27.3269 22.8621 27.3235 22.866 27.3196L25.25 24.9355V29.375ZM30.5759 17.8416L30.1233 18.2942L26.7339 14.905L27.1868 14.4521C27.4551 14.1838 27.8118 14.0361 28.1912 14.0361C28.5708 14.0361 28.9275 14.1838 29.1958 14.4521L30.5759 15.8323C30.8442 16.1006 30.9922 16.4573 30.9922 16.8369C30.9922 17.2163 30.8442 17.5732 30.5759 17.8416Z" fill="#171D34"/>
</g>
<defs>
<clipPath id="clip0_3367_73990">
<rect width="32" height="32" fill="white" transform="translate(0.25)"/>
</clipPath>
</defs>
</svg>
