<svg width="20" height="20" viewBox="0 0 20 20" fill="none" xmlns="http://www.w3.org/2000/svg">
<path d="M10 20C15.5228 20 20 15.5228 20 10C20 4.47715 15.5228 0 10 0C4.47715 0 0 4.47715 0 10C0 15.5228 4.47715 20 10 20Z" fill="#4CB528"/>
<path fill-rule="evenodd" clip-rule="evenodd" d="M7.42664 13.9467L4.30516 10.6058C3.87781 10.1484 3.90233 9.4248 4.35972 8.99745C4.81711 8.5701 5.54077 8.59469 5.96811 9.05202L8.3759 11.629L12.1871 8.06808C12.2214 8.03603 12.2572 8.00666 12.2942 7.97964L14.0865 6.30512C14.5439 5.87777 15.2676 5.90237 15.6949 6.35976C16.1222 6.81708 16.0976 7.5408 15.6403 7.96815L10.1663 13.0827L10.1604 13.0765L8.26689 14.8457L7.42664 13.9467Z" fill="white"/>
</svg>
