<svg width="20" height="20" viewBox="0 0 20 20" fill="none" xmlns="http://www.w3.org/2000/svg">
<g clip-path="url(#clip0_1722_38410)">
<path d="M10 20C15.5228 20 20 15.5228 20 10C20 4.47715 15.5228 0 10 0C4.47715 0 0 4.47715 0 10C0 15.5228 4.47715 20 10 20Z" fill="#307FF4"/>
<g clip-path="url(#clip1_1722_38410)">
<path d="M10.05 13.7908C9.89692 13.7907 9.74656 13.7503 9.614 13.6738L7.014 12.1738C6.81321 12.0575 6.66675 11.8663 6.60676 11.6422C6.54676 11.4181 6.57814 11.1793 6.694 10.9783L7.069 10.3283C7.26725 10.0524 7.5267 9.82614 7.82702 9.66731C8.12734 9.50847 8.46037 9.42135 8.8 9.41276C8.81697 9.4098 8.83307 9.40315 8.84718 9.39327C8.86129 9.38339 8.87306 9.37052 8.88165 9.35559C8.89023 9.34066 8.89543 9.32402 8.89688 9.30686C8.89832 9.28969 8.89597 9.27242 8.89 9.25626C8.72729 8.95766 8.63603 8.62541 8.62336 8.28559C8.61069 7.94578 8.67697 7.60765 8.817 7.29776L9.192 6.64776C9.30837 6.44723 9.49941 6.30094 9.72335 6.24088C9.94729 6.18082 10.1859 6.21188 10.387 6.32726L12.987 7.82726C13.1878 7.94353 13.3342 8.13471 13.3942 8.35884C13.4542 8.58297 13.4229 8.82174 13.307 9.02276L12.932 9.67276C12.7337 9.94888 12.4741 10.1753 12.1736 10.3342C11.8731 10.4932 11.5398 10.5803 11.2 10.5888C11.183 10.5916 11.1668 10.5981 11.1527 10.6079C11.1385 10.6177 11.1267 10.6306 11.1181 10.6455C11.1095 10.6604 11.1043 10.677 11.1029 10.6942C11.1015 10.7114 11.1039 10.7286 11.11 10.7448C11.2728 11.0434 11.3641 11.3758 11.3768 11.7157C11.3894 12.0556 11.3231 12.3938 11.183 12.7038L10.808 13.3538C10.7311 13.4867 10.6206 13.5971 10.4875 13.6738C10.3545 13.7505 10.2036 13.7909 10.05 13.7908ZM9.95 6.96076C9.92801 6.96072 9.90641 6.96648 9.88736 6.97745C9.86831 6.98842 9.85249 7.00423 9.8415 7.02326L9.4665 7.67326C9.39086 7.88417 9.36197 8.10899 9.38183 8.33216C9.40169 8.55534 9.46981 8.77153 9.5815 8.96576C9.6322 9.08873 9.65398 9.2217 9.64516 9.35442C9.63634 9.48713 9.59716 9.61605 9.53064 9.73123C9.46411 9.8464 9.37202 9.94476 9.26146 10.0187C9.15091 10.0927 9.02485 10.1402 8.893 10.1578C8.66902 10.1582 8.44781 10.2073 8.24468 10.3017C8.04154 10.3961 7.86133 10.5334 7.7165 10.7043L7.3415 11.3543C7.33324 11.3685 7.32787 11.3842 7.32569 11.4005C7.3235 11.4168 7.32456 11.4333 7.32878 11.4492C7.33301 11.4651 7.34033 11.48 7.35031 11.493C7.3603 11.5061 7.37277 11.517 7.387 11.5253L9.987 13.0253C10.0158 13.0415 10.0498 13.0457 10.0817 13.0371C10.1135 13.0285 10.1408 13.0077 10.1575 12.9793L10.5325 12.3293C10.6081 12.1184 10.637 11.8935 10.6172 11.6704C10.5973 11.4472 10.5292 11.231 10.4175 11.0368C10.3667 10.9138 10.3448 10.7809 10.3536 10.6481C10.3624 10.5154 10.4015 10.3865 10.4681 10.2713C10.5346 10.1561 10.6268 10.0578 10.7374 9.98395C10.848 9.91007 10.9741 9.86262 11.106 9.84526C11.33 9.84451 11.5511 9.79522 11.7542 9.70079C11.9573 9.60636 12.1376 9.46903 12.2825 9.29826L12.6575 8.64826C12.6658 8.63405 12.6711 8.61835 12.6733 8.60206C12.6755 8.58577 12.6744 8.56921 12.6702 8.55333C12.666 8.53744 12.6587 8.52255 12.6487 8.5095C12.6387 8.49645 12.6262 8.48549 12.612 8.47726L10.012 6.97726C9.99309 6.96653 9.97174 6.96085 9.95 6.96076Z" fill="white"/>
<path d="M15 10.3741C14.9005 10.3741 14.8051 10.3346 14.7348 10.2643C14.6645 10.1939 14.625 10.0986 14.625 9.9991C14.625 9.08433 14.3538 8.19008 13.8456 7.42946C13.3374 6.66883 12.6151 6.07599 11.7699 5.72591C10.9248 5.37584 9.99481 5.28425 9.09761 5.46272C8.20041 5.6412 7.37629 6.08173 6.72948 6.7286C6.57443 6.88387 6.43041 7.04977 6.29848 7.2251C6.2388 7.30467 6.14997 7.35727 6.05151 7.37134C5.95305 7.3854 5.85304 7.35978 5.77348 7.3001C5.69391 7.24043 5.64131 7.15159 5.62724 7.05314C5.61318 6.95468 5.6388 6.85467 5.69848 6.7751C5.85194 6.57234 6.01899 6.38023 6.19848 6.2001C6.95004 5.44822 7.90769 4.9361 8.95031 4.72849C9.99294 4.52088 11.0737 4.62712 12.056 5.03376C13.0382 5.4404 13.8778 6.12919 14.4686 7.01302C15.0594 7.89684 15.3748 8.93601 15.375 9.9991C15.375 10.0986 15.3355 10.1939 15.2651 10.2643C15.1948 10.3346 15.0994 10.3741 15 10.3741Z" fill="white"/>
<path d="M10 15.375C9.29411 15.3751 8.59511 15.2362 7.94292 14.9661C7.29074 14.696 6.69815 14.3001 6.19901 13.801C5.69987 13.3019 5.30395 12.7093 5.03388 12.0571C4.76381 11.4049 4.62487 10.7059 4.625 10C4.625 9.90054 4.66451 9.80516 4.73484 9.73484C4.80516 9.66451 4.90054 9.625 5 9.625C5.09946 9.625 5.19484 9.66451 5.26517 9.73484C5.33549 9.80516 5.375 9.90054 5.375 10C5.37495 10.9148 5.64617 11.809 6.15437 12.5696C6.66257 13.3303 7.38491 13.9231 8.23005 14.2732C9.07519 14.6233 10.0052 14.7149 10.9024 14.5364C11.7996 14.3579 12.6237 13.9174 13.2705 13.2705C13.4255 13.1155 13.5693 12.9497 13.701 12.7745C13.7626 12.7006 13.8503 12.6532 13.9459 12.642C14.0415 12.6309 14.1377 12.6569 14.2147 12.7146C14.2917 12.7723 14.3435 12.8574 14.3596 12.9523C14.3757 13.0472 14.3547 13.1446 14.301 13.2245C14.1477 13.4276 13.9807 13.6199 13.801 13.8C13.303 14.3007 12.7106 14.6978 12.0582 14.9681C11.4058 15.2385 10.7062 15.3768 10 15.375Z" fill="white"/>
<path d="M14.2425 14.6171C14.143 14.6171 14.0477 14.5776 13.9773 14.5073C13.907 14.437 13.8675 14.3416 13.8675 14.2421V13.2031H12.828C12.7285 13.2031 12.6332 13.1636 12.5628 13.0933C12.4925 13.023 12.453 12.9276 12.453 12.8281C12.453 12.7287 12.4925 12.6333 12.5628 12.563C12.6332 12.4926 12.7285 12.4531 12.828 12.4531H14.2425C14.342 12.4531 14.4373 12.4926 14.5077 12.563C14.578 12.6333 14.6175 12.7287 14.6175 12.8281V14.2421C14.6175 14.3416 14.578 14.437 14.5077 14.5073C14.4373 14.5776 14.342 14.6171 14.2425 14.6171Z" fill="white"/>
<path d="M7.17151 7.54681H5.75751C5.65805 7.54681 5.56267 7.5073 5.49234 7.43698C5.42202 7.36665 5.38251 7.27127 5.38251 7.17181V5.75781C5.38251 5.65836 5.42202 5.56297 5.49234 5.49265C5.56267 5.42232 5.65805 5.38281 5.75751 5.38281C5.85696 5.38281 5.95235 5.42232 6.02267 5.49265C6.093 5.56297 6.13251 5.65836 6.13251 5.75781V6.79681H7.17151C7.27096 6.79681 7.36635 6.83632 7.43667 6.90665C7.507 6.97697 7.54651 7.07236 7.54651 7.17181C7.54651 7.27127 7.507 7.36665 7.43667 7.43698C7.36635 7.5073 7.27096 7.54681 7.17151 7.54681Z" fill="white"/>
</g>
</g>
<defs>
<clipPath id="clip0_1722_38410">
<rect width="20" height="20" fill="white"/>
</clipPath>
<clipPath id="clip1_1722_38410">
<rect width="12" height="12" fill="white" transform="translate(4 4)"/>
</clipPath>
</defs>
</svg>
