<svg width="36" height="36" viewBox="0 0 36 36" fill="none" xmlns="http://www.w3.org/2000/svg">
<path opacity="0.5" d="M27.2164 32.2177H9.12912C8.35244 32.2177 7.72287 31.5881 7.72287 30.8114V4.8418H5.39215C4.54115 4.8418 3.85132 5.53163 3.85132 6.38263V33.9321C3.85132 34.7831 4.54115 35.4729 5.39215 35.4729H25.6757C26.5267 35.4729 27.2165 34.7831 27.2165 33.9321V32.2177H27.2164Z" fill="#307FF4"/>
<path opacity="0.5" d="M7.72289 4.8418V30.8114C7.72289 31.5881 8.35247 32.2177 9.12914 32.2177H27.2165V33.9321C27.2165 34.2322 27.1303 34.5121 26.9819 34.7489H7.85747C7.00655 34.7489 6.31671 34.0591 6.31671 33.2081V32.0831L7.01984 5.65862L7.72289 4.8418Z" fill="#307FF4"/>
<path opacity="0.9" d="M29.6818 29.7522H11.5944C10.8178 29.7522 10.1882 29.1226 10.1882 28.346V2.99268H7.85747C7.00655 2.99268 6.31671 3.68251 6.31671 4.5335V32.0829C6.31671 32.9339 7.00655 33.6238 7.85747 33.6238H28.141C28.992 33.6238 29.6818 32.9339 29.6818 32.0829V29.7522H29.6818Z" fill="#F6BD3D"/>
<path d="M10.1882 2.99268V28.346C10.1882 29.1226 10.8177 29.7522 11.5944 29.7522H29.6817V32.0829C29.6817 32.2084 29.6664 32.3301 29.6382 32.4468H10.3227C9.47176 32.4468 8.78192 31.757 8.78192 30.906V29.6176L9.48505 27.6724V3.35654L10.1882 2.99268Z" fill="#F6BD3D"/>
<path d="M30.4656 31.1584H10.3227C9.47176 31.1584 8.78192 30.4686 8.78192 29.6176V2.06817C8.78192 1.21718 9.47176 0.527344 10.3227 0.527344H25.9051L32.0064 6.76927V29.6176C32.0064 30.4686 31.3166 31.1584 30.4656 31.1584Z" fill="#F5F9FF"/>
<path opacity="0.4" d="M30.0376 4.65967V29.6174C30.0376 30.4684 29.3478 31.1582 28.4969 31.1582H30.6063C31.4573 31.1582 32.147 30.4684 32.147 29.6174V6.76904L30.0376 4.65967Z" fill="#73C3FD"/>
<path opacity="0.6" d="M32.1471 6.76927H27.4457C26.5949 6.76927 25.9052 6.07957 25.9052 5.22872V0.527344L32.1471 6.76927Z" fill="#73C3FD"/>
<path d="M13.4278 12.4619H27.5013C27.7925 12.4619 28.0286 12.2258 28.0286 11.9346C28.0286 11.6433 27.7925 11.4072 27.5013 11.4072H13.4278C13.1366 11.4072 12.9005 11.6433 12.9005 11.9346C12.9005 12.2258 13.1366 12.4619 13.4278 12.4619Z" fill="#171D34"/>
<path d="M13.4278 16.3701H27.5013C27.7925 16.3701 28.0286 16.134 28.0286 15.8428C28.0286 15.5515 27.7925 15.3154 27.5013 15.3154H13.4278C13.1366 15.3154 12.9005 15.5515 12.9005 15.8428C12.9005 16.134 13.1366 16.3701 13.4278 16.3701Z" fill="#171D34"/>
<path d="M13.4278 20.2788H27.5013C27.7925 20.2788 28.0286 20.0427 28.0286 19.7515C28.0286 19.4602 27.7925 19.2241 27.5013 19.2241H13.4278C13.1366 19.2241 12.9005 19.4602 12.9005 19.7515C12.9005 20.0427 13.1366 20.2788 13.4278 20.2788Z" fill="#171D34"/>
<path d="M32.6735 6.75155C32.6689 6.61936 32.6137 6.49013 32.5199 6.3964L26.278 0.154477C26.1804 0.0568828 26.043 0 25.905 0H10.3227C9.18227 0 8.25457 0.927773 8.25457 2.06817V2.4653H7.85744C6.79108 2.4653 5.91084 3.27656 5.80101 4.31423H5.39215C4.25175 4.31423 3.32397 5.24201 3.32397 6.38241V24.109C3.32397 24.4002 3.56008 24.6363 3.85132 24.6363C4.14255 24.6363 4.37866 24.4002 4.37866 24.109V6.38234C4.37866 5.82349 4.8333 5.36885 5.39215 5.36885H5.78927V32.0829C5.78927 33.2233 6.71704 34.1511 7.85744 34.1511H21.2726C21.5639 34.1511 21.8 33.915 21.8 33.6237C21.8 33.3325 21.5639 33.0964 21.2726 33.0964H7.85744C7.2986 33.0964 6.84396 32.6417 6.84396 32.0829V4.5334C6.84396 3.97455 7.2986 3.51991 7.85744 3.51991H8.25457V6.39246C8.25457 6.6837 8.49068 6.9198 8.78191 6.9198C9.07315 6.9198 9.30926 6.6837 9.30926 6.39246V2.06817C9.30926 1.50933 9.7639 1.05469 10.3227 1.05469H25.3777V5.22872C25.3777 6.36898 26.3053 7.29661 27.4456 7.29661H31.6196V29.6176C31.6196 30.1764 31.165 30.6311 30.6061 30.6311H10.3227C9.76383 30.6311 9.30926 30.1764 9.30926 29.6176V8.69069C9.30926 8.39946 9.07315 8.16335 8.78191 8.16335C8.49068 8.16335 8.25457 8.39946 8.25457 8.69069V29.6176C8.25457 30.758 9.18234 31.6858 10.3227 31.6858H29.1544V32.0829C29.1544 32.6417 28.6998 33.0964 28.1409 33.0964H23.5708C23.2796 33.0964 23.0435 33.3325 23.0435 33.6237C23.0435 33.915 23.2796 34.1511 23.5708 34.1511H26.6646C26.564 34.6048 26.1592 34.9453 25.6756 34.9453H5.39215C4.8333 34.9453 4.37866 34.4907 4.37866 33.9318V26.4071C4.37866 26.1159 4.14255 25.8798 3.85132 25.8798C3.56008 25.8798 3.32397 26.1159 3.32397 26.4071V33.9318C3.32397 35.0722 4.25175 36 5.39215 36H25.6757C26.742 36 27.6223 35.1887 27.7321 34.1511H28.141C29.2814 34.1511 30.2092 33.2233 30.2092 32.0829V31.6858H30.6063C31.7467 31.6858 32.6744 30.758 32.6744 29.6176V6.76927C32.6744 6.76336 32.6737 6.75745 32.6735 6.75155ZM27.4457 6.24192C26.887 6.24192 26.4325 5.78742 26.4325 5.22872V1.80042L30.874 6.24192H27.4457Z" fill="#171D34"/>
</svg>
