<svg width="445" height="529" viewBox="0 0 445 529" fill="none" xmlns="http://www.w3.org/2000/svg">
<path d="M150.595 523.152C150.221 523.152 149.933 523.051 149.731 522.848C149.539 522.635 149.443 522.336 149.443 521.952V512.832C149.443 512.427 149.539 512.118 149.731 511.904C149.933 511.691 150.2 511.584 150.531 511.584C150.819 511.584 151.037 511.643 151.187 511.76C151.347 511.867 151.528 512.048 151.731 512.304L157.347 519.456H156.915V512.768C156.915 512.395 157.011 512.107 157.203 511.904C157.405 511.691 157.693 511.584 158.067 511.584C158.44 511.584 158.723 511.691 158.915 511.904C159.117 512.107 159.219 512.395 159.219 512.768V522C159.219 522.352 159.128 522.635 158.947 522.848C158.765 523.051 158.52 523.152 158.211 523.152C157.912 523.152 157.672 523.094 157.491 522.976C157.32 522.859 157.133 522.672 156.931 522.416L151.331 515.264H151.747V521.952C151.747 522.336 151.651 522.635 151.459 522.848C151.267 523.051 150.979 523.152 150.595 523.152ZM165.058 523.184C164.215 523.184 163.479 523.019 162.85 522.688C162.231 522.358 161.751 521.883 161.41 521.264C161.068 520.646 160.898 519.915 160.898 519.072C160.898 518.443 160.994 517.878 161.186 517.376C161.378 516.875 161.655 516.448 162.018 516.096C162.391 515.734 162.834 515.462 163.346 515.28C163.858 515.088 164.428 514.992 165.058 514.992C165.9 514.992 166.631 515.158 167.25 515.488C167.879 515.819 168.364 516.288 168.706 516.896C169.058 517.504 169.234 518.23 169.234 519.072C169.234 519.712 169.132 520.283 168.93 520.784C168.738 521.286 168.46 521.718 168.098 522.08C167.735 522.443 167.292 522.72 166.77 522.912C166.258 523.094 165.687 523.184 165.058 523.184ZM165.058 521.376C165.41 521.376 165.714 521.291 165.97 521.12C166.226 520.95 166.428 520.699 166.578 520.368C166.727 520.027 166.802 519.595 166.802 519.072C166.802 518.294 166.642 517.723 166.322 517.36C166.002 516.987 165.58 516.8 165.058 516.8C164.716 516.8 164.412 516.88 164.146 517.04C163.89 517.2 163.687 517.451 163.538 517.792C163.399 518.123 163.33 518.55 163.33 519.072C163.33 519.851 163.49 520.432 163.81 520.816C164.13 521.19 164.546 521.376 165.058 521.376ZM176.42 523.152C176.015 523.152 175.705 523.046 175.492 522.832C175.279 522.619 175.172 522.315 175.172 521.92V516.24C175.172 515.846 175.273 515.547 175.476 515.344C175.689 515.131 175.983 515.024 176.356 515.024C176.74 515.024 177.033 515.131 177.236 515.344C177.439 515.547 177.54 515.846 177.54 516.24V517.072H177.38C177.508 516.432 177.791 515.936 178.228 515.584C178.665 515.232 179.231 515.035 179.924 514.992C180.191 514.971 180.393 515.04 180.532 515.2C180.681 515.35 180.761 515.6 180.772 515.952C180.793 516.283 180.724 516.544 180.564 516.736C180.415 516.928 180.159 517.046 179.796 517.088L179.428 517.12C178.82 517.174 178.367 517.35 178.068 517.648C177.78 517.947 177.636 518.379 177.636 518.944V521.92C177.636 522.315 177.529 522.619 177.316 522.832C177.113 523.046 176.815 523.152 176.42 523.152ZM185.705 523.184C184.777 523.184 183.977 523.019 183.305 522.688C182.644 522.347 182.132 521.872 181.769 521.264C181.417 520.646 181.241 519.92 181.241 519.088C181.241 518.278 181.412 517.568 181.753 516.96C182.095 516.342 182.569 515.862 183.177 515.52C183.796 515.168 184.495 514.992 185.273 514.992C185.839 514.992 186.351 515.088 186.809 515.28C187.268 515.462 187.663 515.728 187.993 516.08C188.324 516.422 188.575 516.843 188.745 517.344C188.916 517.835 189.001 518.384 189.001 518.992C189.001 519.195 188.937 519.35 188.809 519.456C188.681 519.552 188.495 519.6 188.249 519.6H183.225V518.352H187.257L187.001 518.576C187.001 518.139 186.937 517.776 186.809 517.488C186.681 517.19 186.495 516.966 186.249 516.816C186.015 516.667 185.721 516.592 185.369 516.592C184.975 516.592 184.639 516.683 184.361 516.864C184.084 517.046 183.871 517.307 183.721 517.648C183.572 517.99 183.497 518.4 183.497 518.88V519.008C183.497 519.819 183.684 520.416 184.057 520.8C184.441 521.184 185.007 521.376 185.753 521.376C186.009 521.376 186.303 521.344 186.633 521.28C186.964 521.216 187.273 521.115 187.561 520.976C187.807 520.859 188.025 520.822 188.217 520.864C188.409 520.896 188.559 520.982 188.665 521.12C188.772 521.259 188.831 521.419 188.841 521.6C188.863 521.782 188.825 521.963 188.729 522.144C188.633 522.315 188.473 522.459 188.249 522.576C187.887 522.779 187.476 522.928 187.017 523.024C186.569 523.131 186.132 523.184 185.705 523.184ZM191.623 526.032C191.228 526.032 190.924 525.926 190.711 525.712C190.508 525.51 190.407 525.206 190.407 524.8V516.24C190.407 515.846 190.508 515.547 190.711 515.344C190.924 515.131 191.217 515.024 191.591 515.024C191.985 515.024 192.284 515.131 192.487 515.344C192.689 515.547 192.791 515.846 192.791 516.24V517.328L192.615 516.704C192.775 516.192 193.095 515.782 193.575 515.472C194.065 515.152 194.625 514.992 195.255 514.992C195.937 514.992 196.535 515.158 197.047 515.488C197.569 515.819 197.975 516.288 198.263 516.896C198.551 517.504 198.695 518.23 198.695 519.072C198.695 519.915 198.551 520.646 198.263 521.264C197.975 521.883 197.575 522.358 197.063 522.688C196.551 523.019 195.948 523.184 195.255 523.184C194.636 523.184 194.087 523.035 193.607 522.736C193.127 522.427 192.801 522.027 192.631 521.536H192.823V524.8C192.823 525.206 192.716 525.51 192.503 525.712C192.3 525.926 192.007 526.032 191.623 526.032ZM194.535 521.376C194.876 521.376 195.175 521.291 195.431 521.12C195.697 520.95 195.9 520.699 196.039 520.368C196.188 520.027 196.263 519.595 196.263 519.072C196.263 518.294 196.103 517.723 195.783 517.36C195.463 516.987 195.047 516.8 194.535 516.8C194.193 516.8 193.889 516.88 193.623 517.04C193.367 517.2 193.164 517.451 193.015 517.792C192.865 518.123 192.791 518.55 192.791 519.072C192.791 519.851 192.951 520.432 193.271 520.816C193.591 521.19 194.012 521.376 194.535 521.376ZM203.948 523.184C203.105 523.184 202.369 523.019 201.74 522.688C201.121 522.358 200.641 521.883 200.3 521.264C199.959 520.646 199.788 519.915 199.788 519.072C199.788 518.443 199.884 517.878 200.076 517.376C200.268 516.875 200.545 516.448 200.908 516.096C201.281 515.734 201.724 515.462 202.236 515.28C202.748 515.088 203.319 514.992 203.948 514.992C204.791 514.992 205.521 515.158 206.14 515.488C206.769 515.819 207.255 516.288 207.596 516.896C207.948 517.504 208.124 518.23 208.124 519.072C208.124 519.712 208.023 520.283 207.82 520.784C207.628 521.286 207.351 521.718 206.988 522.08C206.625 522.443 206.183 522.72 205.66 522.912C205.148 523.094 204.577 523.184 203.948 523.184ZM203.948 521.376C204.3 521.376 204.604 521.291 204.86 521.12C205.116 520.95 205.319 520.699 205.468 520.368C205.617 520.027 205.692 519.595 205.692 519.072C205.692 518.294 205.532 517.723 205.212 517.36C204.892 516.987 204.471 516.8 203.948 516.8C203.607 516.8 203.303 516.88 203.036 517.04C202.78 517.2 202.577 517.451 202.428 517.792C202.289 518.123 202.22 518.55 202.22 519.072C202.22 519.851 202.38 520.432 202.7 520.816C203.02 521.19 203.436 521.376 203.948 521.376ZM210.842 523.152C210.437 523.152 210.127 523.046 209.914 522.832C209.701 522.619 209.594 522.315 209.594 521.92V516.24C209.594 515.846 209.695 515.547 209.898 515.344C210.111 515.131 210.405 515.024 210.778 515.024C211.162 515.024 211.455 515.131 211.658 515.344C211.861 515.547 211.962 515.846 211.962 516.24V517.072H211.802C211.93 516.432 212.213 515.936 212.65 515.584C213.087 515.232 213.653 515.035 214.346 514.992C214.613 514.971 214.815 515.04 214.954 515.2C215.103 515.35 215.183 515.6 215.194 515.952C215.215 516.283 215.146 516.544 214.986 516.736C214.837 516.928 214.581 517.046 214.218 517.088L213.85 517.12C213.242 517.174 212.789 517.35 212.49 517.648C212.202 517.947 212.058 518.379 212.058 518.944V521.92C212.058 522.315 211.951 522.619 211.738 522.832C211.535 523.046 211.237 523.152 210.842 523.152ZM220.513 523.184C219.777 523.184 219.158 523.062 218.657 522.816C218.166 522.571 217.798 522.214 217.553 521.744C217.318 521.275 217.201 520.683 217.201 519.968V516.96H216.529C216.23 516.96 215.995 516.88 215.825 516.72C215.665 516.56 215.585 516.342 215.585 516.064C215.585 515.766 215.665 515.542 215.825 515.392C215.995 515.232 216.23 515.152 216.529 515.152H217.201V513.936C217.201 513.531 217.307 513.227 217.521 513.024C217.734 512.811 218.033 512.704 218.417 512.704C218.811 512.704 219.11 512.811 219.313 513.024C219.515 513.227 219.617 513.531 219.617 513.936V515.152H221.137C221.435 515.152 221.665 515.232 221.825 515.392C221.985 515.542 222.065 515.766 222.065 516.064C222.065 516.342 221.985 516.56 221.825 516.72C221.665 516.88 221.435 516.96 221.137 516.96H219.617V519.872C219.617 520.32 219.718 520.656 219.921 520.88C220.134 521.104 220.47 521.216 220.929 521.216C221.089 521.216 221.238 521.2 221.377 521.168C221.515 521.136 221.643 521.115 221.761 521.104C221.91 521.094 222.033 521.142 222.129 521.248C222.225 521.344 222.273 521.563 222.273 521.904C222.273 522.16 222.23 522.384 222.145 522.576C222.059 522.768 221.91 522.907 221.697 522.992C221.558 523.046 221.366 523.088 221.121 523.12C220.886 523.163 220.683 523.184 220.513 523.184ZM226.133 523.184C225.664 523.184 225.179 523.142 224.677 523.056C224.187 522.971 223.739 522.827 223.333 522.624C223.12 522.518 222.965 522.384 222.869 522.224C222.784 522.054 222.747 521.883 222.757 521.712C222.768 521.542 222.821 521.387 222.917 521.248C223.024 521.11 223.157 521.019 223.317 520.976C223.488 520.923 223.675 520.939 223.877 521.024C224.315 521.206 224.715 521.334 225.077 521.408C225.44 521.483 225.797 521.52 226.149 521.52C226.608 521.52 226.939 521.451 227.141 521.312C227.355 521.163 227.461 520.971 227.461 520.736C227.461 520.523 227.392 520.363 227.253 520.256C227.115 520.15 226.912 520.075 226.645 520.032L224.965 519.728C224.304 519.611 223.792 519.371 223.429 519.008C223.077 518.635 222.901 518.16 222.901 517.584C222.901 517.051 223.051 516.592 223.349 516.208C223.648 515.814 224.059 515.515 224.581 515.312C225.115 515.099 225.717 514.992 226.389 514.992C226.869 514.992 227.312 515.035 227.717 515.12C228.123 515.206 228.512 515.344 228.885 515.536C229.077 515.632 229.211 515.76 229.285 515.92C229.371 516.08 229.397 516.246 229.365 516.416C229.344 516.587 229.28 516.742 229.173 516.88C229.067 517.019 228.928 517.11 228.757 517.152C228.597 517.195 228.411 517.174 228.197 517.088C227.856 516.928 227.541 516.816 227.253 516.752C226.965 516.678 226.688 516.64 226.421 516.64C225.941 516.64 225.595 516.72 225.381 516.88C225.168 517.03 225.061 517.222 225.061 517.456C225.061 517.638 225.12 517.792 225.237 517.92C225.365 518.038 225.557 518.118 225.813 518.16L227.493 518.464C228.187 518.582 228.715 518.816 229.077 519.168C229.44 519.51 229.621 519.979 229.621 520.576C229.621 521.387 229.301 522.027 228.661 522.496C228.032 522.955 227.189 523.184 226.133 523.184ZM239.325 523.184C238.589 523.184 237.97 523.062 237.469 522.816C236.978 522.571 236.61 522.214 236.365 521.744C236.13 521.275 236.013 520.683 236.013 519.968V516.96H235.341C235.042 516.96 234.808 516.88 234.637 516.72C234.477 516.56 234.397 516.342 234.397 516.064C234.397 515.766 234.477 515.542 234.637 515.392C234.808 515.232 235.042 515.152 235.341 515.152H236.013V513.936C236.013 513.531 236.12 513.227 236.333 513.024C236.546 512.811 236.845 512.704 237.229 512.704C237.624 512.704 237.922 512.811 238.125 513.024C238.328 513.227 238.429 513.531 238.429 513.936V515.152H239.949C240.248 515.152 240.477 515.232 240.637 515.392C240.797 515.542 240.877 515.766 240.877 516.064C240.877 516.342 240.797 516.56 240.637 516.72C240.477 516.88 240.248 516.96 239.949 516.96H238.429V519.872C238.429 520.32 238.53 520.656 238.733 520.88C238.946 521.104 239.282 521.216 239.741 521.216C239.901 521.216 240.05 521.2 240.189 521.168C240.328 521.136 240.456 521.115 240.573 521.104C240.722 521.094 240.845 521.142 240.941 521.248C241.037 521.344 241.085 521.563 241.085 521.904C241.085 522.16 241.042 522.384 240.957 522.576C240.872 522.768 240.722 522.907 240.509 522.992C240.37 523.046 240.178 523.088 239.933 523.12C239.698 523.163 239.496 523.184 239.325 523.184ZM245.636 523.184C244.793 523.184 244.057 523.019 243.428 522.688C242.809 522.358 242.329 521.883 241.988 521.264C241.646 520.646 241.476 519.915 241.476 519.072C241.476 518.443 241.572 517.878 241.764 517.376C241.956 516.875 242.233 516.448 242.596 516.096C242.969 515.734 243.412 515.462 243.924 515.28C244.436 515.088 245.006 514.992 245.636 514.992C246.478 514.992 247.209 515.158 247.828 515.488C248.457 515.819 248.942 516.288 249.284 516.896C249.636 517.504 249.812 518.23 249.812 519.072C249.812 519.712 249.71 520.283 249.508 520.784C249.316 521.286 249.038 521.718 248.676 522.08C248.313 522.443 247.87 522.72 247.348 522.912C246.836 523.094 246.265 523.184 245.636 523.184ZM245.636 521.376C245.988 521.376 246.292 521.291 246.548 521.12C246.804 520.95 247.006 520.699 247.156 520.368C247.305 520.027 247.38 519.595 247.38 519.072C247.38 518.294 247.22 517.723 246.9 517.36C246.58 516.987 246.158 516.8 245.636 516.8C245.294 516.8 244.99 516.88 244.724 517.04C244.468 517.2 244.265 517.451 244.116 517.792C243.977 518.123 243.908 518.55 243.908 519.072C243.908 519.851 244.068 520.432 244.388 520.816C244.708 521.19 245.124 521.376 245.636 521.376ZM258.758 523.184C258.289 523.184 257.804 523.142 257.302 523.056C256.812 522.971 256.364 522.827 255.958 522.624C255.745 522.518 255.59 522.384 255.494 522.224C255.409 522.054 255.372 521.883 255.382 521.712C255.393 521.542 255.446 521.387 255.542 521.248C255.649 521.11 255.782 521.019 255.942 520.976C256.113 520.923 256.3 520.939 256.502 521.024C256.94 521.206 257.34 521.334 257.702 521.408C258.065 521.483 258.422 521.52 258.774 521.52C259.233 521.52 259.564 521.451 259.766 521.312C259.98 521.163 260.086 520.971 260.086 520.736C260.086 520.523 260.017 520.363 259.878 520.256C259.74 520.15 259.537 520.075 259.27 520.032L257.59 519.728C256.929 519.611 256.417 519.371 256.054 519.008C255.702 518.635 255.526 518.16 255.526 517.584C255.526 517.051 255.676 516.592 255.974 516.208C256.273 515.814 256.684 515.515 257.206 515.312C257.74 515.099 258.342 514.992 259.014 514.992C259.494 514.992 259.937 515.035 260.342 515.12C260.748 515.206 261.137 515.344 261.51 515.536C261.702 515.632 261.836 515.76 261.91 515.92C261.996 516.08 262.022 516.246 261.99 516.416C261.969 516.587 261.905 516.742 261.798 516.88C261.692 517.019 261.553 517.11 261.382 517.152C261.222 517.195 261.036 517.174 260.822 517.088C260.481 516.928 260.166 516.816 259.878 516.752C259.59 516.678 259.313 516.64 259.046 516.64C258.566 516.64 258.22 516.72 258.006 516.88C257.793 517.03 257.686 517.222 257.686 517.456C257.686 517.638 257.745 517.792 257.862 517.92C257.99 518.038 258.182 518.118 258.438 518.16L260.118 518.464C260.812 518.582 261.34 518.816 261.702 519.168C262.065 519.51 262.246 519.979 262.246 520.576C262.246 521.387 261.926 522.027 261.286 522.496C260.657 522.955 259.814 523.184 258.758 523.184ZM264.841 523.152C264.447 523.152 264.143 523.046 263.929 522.832C263.727 522.619 263.625 522.315 263.625 521.92V512.816C263.625 512.411 263.727 512.107 263.929 511.904C264.143 511.691 264.447 511.584 264.841 511.584C265.225 511.584 265.519 511.691 265.721 511.904C265.935 512.107 266.041 512.411 266.041 512.816V516.624H265.817C266.063 516.102 266.425 515.702 266.905 515.424C267.396 515.136 267.951 514.992 268.569 514.992C269.199 514.992 269.716 515.115 270.121 515.36C270.527 515.595 270.831 515.958 271.033 516.448C271.236 516.928 271.337 517.542 271.337 518.288V521.92C271.337 522.315 271.231 522.619 271.017 522.832C270.815 523.046 270.516 523.152 270.121 523.152C269.737 523.152 269.439 523.046 269.225 522.832C269.023 522.619 268.921 522.315 268.921 521.92V518.4C268.921 517.856 268.82 517.467 268.617 517.232C268.425 516.987 268.127 516.864 267.721 516.864C267.209 516.864 266.799 517.024 266.489 517.344C266.191 517.664 266.041 518.091 266.041 518.624V521.92C266.041 522.742 265.641 523.152 264.841 523.152ZM276.917 523.184C276.074 523.184 275.338 523.019 274.709 522.688C274.09 522.358 273.61 521.883 273.269 521.264C272.928 520.646 272.757 519.915 272.757 519.072C272.757 518.443 272.853 517.878 273.045 517.376C273.237 516.875 273.514 516.448 273.877 516.096C274.25 515.734 274.693 515.462 275.205 515.28C275.717 515.088 276.288 514.992 276.917 514.992C277.76 514.992 278.49 515.158 279.109 515.488C279.738 515.819 280.224 516.288 280.565 516.896C280.917 517.504 281.093 518.23 281.093 519.072C281.093 519.712 280.992 520.283 280.789 520.784C280.597 521.286 280.32 521.718 279.957 522.08C279.594 522.443 279.152 522.72 278.629 522.912C278.117 523.094 277.546 523.184 276.917 523.184ZM276.917 521.376C277.269 521.376 277.573 521.291 277.829 521.12C278.085 520.95 278.288 520.699 278.437 520.368C278.586 520.027 278.661 519.595 278.661 519.072C278.661 518.294 278.501 517.723 278.181 517.36C277.861 516.987 277.44 516.8 276.917 516.8C276.576 516.8 276.272 516.88 276.005 517.04C275.749 517.2 275.546 517.451 275.397 517.792C275.258 518.123 275.189 518.55 275.189 519.072C275.189 519.851 275.349 520.432 275.669 520.816C275.989 521.19 276.405 521.376 276.917 521.376ZM285.607 523.152C285.287 523.152 285.015 523.078 284.791 522.928C284.567 522.768 284.386 522.518 284.247 522.176L281.991 516.592C281.874 516.294 281.837 516.032 281.879 515.808C281.922 515.574 282.034 515.387 282.215 515.248C282.407 515.099 282.669 515.024 282.999 515.024C283.277 515.024 283.506 515.094 283.687 515.232C283.869 515.36 284.023 515.611 284.151 515.984L285.911 520.672H285.543L287.367 515.776C287.453 515.52 287.575 515.334 287.735 515.216C287.906 515.088 288.125 515.024 288.391 515.024C288.658 515.024 288.871 515.088 289.031 515.216C289.202 515.344 289.335 515.531 289.431 515.776L291.223 520.672H290.919L292.663 515.92C292.791 515.579 292.957 515.344 293.159 515.216C293.362 515.088 293.581 515.024 293.815 515.024C294.114 515.024 294.343 515.099 294.503 515.248C294.674 515.398 294.77 515.59 294.791 515.824C294.823 516.059 294.781 516.315 294.663 516.592L292.423 522.176C292.295 522.507 292.114 522.752 291.879 522.912C291.655 523.072 291.383 523.152 291.063 523.152C290.754 523.152 290.482 523.072 290.247 522.912C290.023 522.752 289.842 522.507 289.703 522.176L287.783 517.184H288.823L286.951 522.16C286.823 522.491 286.647 522.742 286.423 522.912C286.199 523.072 285.927 523.152 285.607 523.152Z" fill="#363F5E"/>
<path d="M179.347 485.36C177.129 485.36 175.177 484.88 173.491 483.92C171.827 482.939 170.526 481.574 169.587 479.824C168.67 478.075 168.211 476.038 168.211 473.712C168.211 471.942 168.467 470.352 168.979 468.944C169.513 467.515 170.27 466.299 171.251 465.296C172.233 464.272 173.406 463.483 174.771 462.928C176.158 462.374 177.683 462.096 179.347 462.096C181.609 462.096 183.571 462.576 185.235 463.536C186.899 464.496 188.19 465.851 189.107 467.6C190.046 469.328 190.515 471.355 190.515 473.68C190.515 475.451 190.249 477.051 189.715 478.48C189.182 479.91 188.425 481.136 187.443 482.16C186.462 483.184 185.289 483.974 183.923 484.528C182.558 485.083 181.033 485.36 179.347 485.36ZM179.347 481.136C180.606 481.136 181.673 480.848 182.547 480.272C183.443 479.675 184.126 478.822 184.595 477.712C185.086 476.582 185.331 475.248 185.331 473.712C185.331 471.366 184.809 469.552 183.763 468.272C182.718 466.971 181.246 466.32 179.347 466.32C178.11 466.32 177.043 466.608 176.147 467.184C175.251 467.76 174.569 468.603 174.099 469.712C173.63 470.822 173.395 472.155 173.395 473.712C173.395 476.038 173.918 477.862 174.963 479.184C176.009 480.486 177.47 481.136 179.347 481.136ZM204.816 485.36C202.597 485.36 200.645 484.88 198.96 483.92C197.296 482.939 195.995 481.574 195.056 479.824C194.139 478.075 193.68 476.038 193.68 473.712C193.68 471.942 193.936 470.352 194.448 468.944C194.981 467.515 195.739 466.299 196.72 465.296C197.701 464.272 198.875 463.483 200.24 462.928C201.627 462.374 203.152 462.096 204.816 462.096C207.077 462.096 209.04 462.576 210.704 463.536C212.368 464.496 213.659 465.851 214.576 467.6C215.515 469.328 215.984 471.355 215.984 473.68C215.984 475.451 215.717 477.051 215.184 478.48C214.651 479.91 213.893 481.136 212.912 482.16C211.931 483.184 210.757 483.974 209.392 484.528C208.027 485.083 206.501 485.36 204.816 485.36ZM204.816 481.136C206.075 481.136 207.141 480.848 208.016 480.272C208.912 479.675 209.595 478.822 210.064 477.712C210.555 476.582 210.8 475.248 210.8 473.712C210.8 471.366 210.277 469.552 209.232 468.272C208.187 466.971 206.715 466.32 204.816 466.32C203.579 466.32 202.512 466.608 201.616 467.184C200.72 467.76 200.037 468.603 199.568 469.712C199.099 470.822 198.864 472.155 198.864 473.712C198.864 476.038 199.387 477.862 200.432 479.184C201.477 480.486 202.939 481.136 204.816 481.136ZM222.317 485.296C221.506 485.296 220.887 485.072 220.461 484.624C220.034 484.176 219.821 483.547 219.821 482.736V464.976C219.821 464.144 220.034 463.515 220.461 463.088C220.909 462.662 221.538 462.448 222.349 462.448H230.125C232.642 462.448 234.583 463.088 235.949 464.368C237.314 465.627 237.997 467.387 237.997 469.648C237.997 471.91 237.314 473.68 235.949 474.96C234.583 476.24 232.642 476.88 230.125 476.88H224.781V482.736C224.781 483.547 224.567 484.176 224.141 484.624C223.735 485.072 223.127 485.296 222.317 485.296ZM224.781 473.04H229.293C230.573 473.04 231.543 472.752 232.205 472.176C232.887 471.6 233.229 470.758 233.229 469.648C233.229 468.539 232.887 467.707 232.205 467.152C231.543 466.598 230.573 466.32 229.293 466.32H224.781V473.04ZM249.135 485.36C248.239 485.36 247.321 485.286 246.383 485.136C245.465 485.008 244.58 484.816 243.727 484.56C242.895 484.304 242.148 483.984 241.487 483.6C241.017 483.344 240.687 483.014 240.495 482.608C240.303 482.182 240.228 481.755 240.271 481.328C240.335 480.902 240.495 480.528 240.751 480.208C241.028 479.867 241.369 479.654 241.775 479.568C242.201 479.462 242.671 479.536 243.183 479.792C244.057 480.283 245.007 480.646 246.031 480.88C247.076 481.115 248.111 481.232 249.135 481.232C250.692 481.232 251.801 480.998 252.463 480.528C253.124 480.038 253.455 479.43 253.455 478.704C253.455 478.086 253.22 477.595 252.751 477.232C252.281 476.87 251.46 476.56 250.287 476.304L246.671 475.536C244.623 475.11 243.097 474.384 242.095 473.36C241.113 472.315 240.623 470.95 240.623 469.264C240.623 468.198 240.847 467.227 241.295 466.352C241.743 465.478 242.372 464.72 243.183 464.08C243.993 463.44 244.953 462.95 246.063 462.608C247.193 462.267 248.431 462.096 249.775 462.096C250.969 462.096 252.143 462.246 253.295 462.544C254.447 462.822 255.46 463.238 256.335 463.792C256.761 464.048 257.049 464.379 257.199 464.784C257.369 465.168 257.423 465.563 257.359 465.968C257.316 466.352 257.156 466.694 256.879 466.992C256.623 467.291 256.292 467.483 255.887 467.568C255.481 467.654 254.991 467.558 254.415 467.28C253.711 466.918 252.964 466.651 252.175 466.48C251.385 466.31 250.575 466.224 249.743 466.224C248.847 466.224 248.079 466.342 247.439 466.576C246.82 466.811 246.34 467.142 245.999 467.568C245.679 467.995 245.519 468.486 245.519 469.04C245.519 469.659 245.743 470.16 246.191 470.544C246.639 470.928 247.417 471.238 248.527 471.472L252.143 472.24C254.233 472.688 255.791 473.414 256.815 474.416C257.839 475.398 258.351 476.699 258.351 478.32C258.351 479.387 258.137 480.358 257.711 481.232C257.284 482.086 256.665 482.822 255.855 483.44C255.044 484.059 254.073 484.539 252.943 484.88C251.812 485.2 250.543 485.36 249.135 485.36ZM263.491 478.064C263 478.064 262.616 477.915 262.339 477.616C262.061 477.318 261.891 476.88 261.827 476.304L260.803 465.36C260.696 464.4 260.877 463.632 261.347 463.056C261.816 462.459 262.531 462.16 263.491 462.16C264.408 462.16 265.101 462.459 265.571 463.056C266.04 463.632 266.221 464.4 266.115 465.36L265.091 476.304C265.027 476.88 264.856 477.318 264.579 477.616C264.323 477.915 263.96 478.064 263.491 478.064ZM263.491 485.168C262.637 485.168 261.955 484.912 261.443 484.4C260.952 483.888 260.707 483.227 260.707 482.416C260.707 481.627 260.952 480.987 261.443 480.496C261.955 479.984 262.637 479.728 263.491 479.728C264.344 479.728 265.005 479.984 265.475 480.496C265.965 480.987 266.211 481.627 266.211 482.416C266.211 483.227 265.965 483.888 265.475 484.4C265.005 484.912 264.344 485.168 263.491 485.168ZM271.803 478.064C271.313 478.064 270.929 477.915 270.651 477.616C270.374 477.318 270.203 476.88 270.139 476.304L269.115 465.36C269.009 464.4 269.19 463.632 269.659 463.056C270.129 462.459 270.843 462.16 271.803 462.16C272.721 462.16 273.414 462.459 273.883 463.056C274.353 463.632 274.534 464.4 274.427 465.36L273.403 476.304C273.339 476.88 273.169 477.318 272.891 477.616C272.635 477.915 272.273 478.064 271.803 478.064ZM271.803 485.168C270.95 485.168 270.267 484.912 269.755 484.4C269.265 483.888 269.019 483.227 269.019 482.416C269.019 481.627 269.265 480.987 269.755 480.496C270.267 479.984 270.95 479.728 271.803 479.728C272.657 479.728 273.318 479.984 273.787 480.496C274.278 480.987 274.523 481.627 274.523 482.416C274.523 483.227 274.278 483.888 273.787 484.4C273.318 484.912 272.657 485.168 271.803 485.168Z" fill="#171D34"/>
<path d="M95.1475 404.298C95.1475 404.298 -16.3262 348.288 2.38457 307.101C13.3859 282.885 61.1389 291.902 56.115 251.599C49.5287 198.755 -2.94834 163.162 27.3357 117.97C58.518 71.4395 136.367 126.942 212.459 77.7041C261.573 45.9234 348.992 28.1455 380.674 78.6715C410.943 126.942 350.438 180.633 394.365 216.699C438.293 252.764 488.607 307.179 377.551 371.306C266.495 435.434 177.588 385.921 177.588 385.921" fill="#99C1FB"/>
<path d="M283.325 291.35C242.403 267.178 201.483 243.007 160.561 218.835C219.155 186.924 189.357 102.8 247.95 70.8892C288.871 95.0608 329.792 119.232 370.714 143.404C312.121 175.316 341.919 259.439 283.325 291.35Z" fill="white"/>
<path d="M256.36 192.573C240.551 183.236 224.744 173.898 208.936 164.561C216.871 135.559 220.961 104.287 244.164 84.3042C259.972 93.6417 275.78 102.979 291.588 112.317C268.385 132.299 264.296 163.571 256.36 192.573Z" fill="#CADDFF"/>
<path d="M345.397 151.924C328.655 142.035 311.915 132.147 295.174 122.258C296.751 120.583 298.434 118.967 300.229 117.421C316.97 127.31 333.711 137.198 350.452 147.087C348.655 148.633 346.974 150.247 345.397 151.924Z" fill="#99C1FB"/>
<path opacity="0.6" d="M316.41 146.078C307.261 140.675 298.114 135.271 288.967 129.868C289.802 128.687 290.672 127.53 291.582 126.394C300.73 131.797 309.878 137.201 319.025 142.604C318.115 143.74 317.245 144.897 316.41 146.078Z" fill="#CADDFF"/>
<path d="M234.316 187.918C225.169 182.514 216.021 177.111 206.873 171.708C207.307 170.291 207.726 168.866 208.135 167.434C217.283 172.837 226.43 178.24 235.577 183.643C235.169 185.075 234.751 186.501 234.316 187.918Z" fill="#171D34"/>
<path d="M253.036 203.689C237.228 194.352 221.42 185.014 205.611 175.677C205.842 174.977 206.07 174.275 206.293 173.57C222.101 182.908 237.909 192.245 253.717 201.583C253.495 202.287 253.267 202.99 253.036 203.689Z" fill="#171D34"/>
<path d="M251.684 207.608C235.876 198.271 220.068 188.933 204.26 179.596C204.508 178.906 204.751 178.213 204.991 177.518C220.798 186.856 236.607 196.193 252.415 205.531C252.176 206.227 251.933 206.919 251.684 207.608Z" fill="#171D34"/>
<path d="M334.695 166.688C317.954 156.799 301.213 146.91 284.473 137.022C284.719 136.581 284.968 136.142 285.223 135.706C301.965 145.595 318.705 155.483 335.446 165.372C335.192 165.808 334.942 166.247 334.695 166.688Z" fill="#CADDFF"/>
<path d="M331.092 173.858C314.351 163.969 297.61 154.08 280.869 144.192C281.079 143.729 281.291 143.268 281.507 142.809C298.248 152.698 314.988 162.586 331.73 172.475C331.514 172.934 331.302 173.394 331.092 173.858Z" fill="#CADDFF"/>
<path d="M328.02 181.339C311.278 171.45 294.538 161.562 277.797 151.673C277.977 151.192 278.158 150.714 278.343 150.236C295.085 160.125 311.826 170.014 328.566 179.902C328.381 180.38 328.198 180.859 328.02 181.339Z" fill="#CADDFF"/>
<path d="M325.367 189.073C308.626 179.184 291.885 169.295 275.145 159.407C275.3 158.912 275.459 158.42 275.618 157.927C292.359 167.816 309.101 177.705 325.841 187.593C325.681 188.086 325.523 188.578 325.367 189.073Z" fill="#CADDFF"/>
<path d="M323.029 196.992C306.288 187.103 289.548 177.214 272.807 167.326C272.946 166.822 273.087 166.319 273.23 165.816C289.971 175.705 306.711 185.594 323.453 195.482C323.31 195.984 323.169 196.488 323.029 196.992Z" fill="#CADDFF"/>
<path d="M320.899 205.034C304.157 195.145 287.416 185.257 270.676 175.368C270.806 174.858 270.936 174.349 271.068 173.84C287.808 183.729 304.55 193.618 321.291 203.506C321.159 204.015 321.028 204.524 320.899 205.034Z" fill="#CADDFF"/>
<path d="M318.871 213.135C302.13 203.247 285.389 193.358 268.648 183.469C268.775 182.957 268.902 182.447 269.029 181.935C285.77 191.823 302.512 201.712 319.252 211.601C319.124 212.113 318.998 212.623 318.871 213.135Z" fill="#CADDFF"/>
<path d="M316.84 221.233C300.099 211.344 283.357 201.455 266.617 191.567C266.747 191.057 266.878 190.548 267.007 190.038C283.748 199.926 300.49 209.815 317.23 219.704C317.099 220.213 316.97 220.723 316.84 221.233Z" fill="#CADDFF"/>
<path d="M314.692 229.263C297.951 219.374 281.209 209.486 264.469 199.597C264.611 199.094 264.75 198.591 264.888 198.086C281.63 207.975 298.37 217.864 315.111 227.752C314.972 228.256 314.832 228.76 314.692 229.263Z" fill="#CADDFF"/>
<path d="M312.322 237.164C295.581 227.275 278.84 217.386 262.1 207.498C262.258 207.004 262.414 206.512 262.57 206.016C279.311 215.905 296.053 225.793 312.793 235.682C312.637 236.177 312.482 236.67 312.322 237.164Z" fill="#CADDFF"/>
<path d="M309.625 244.869C292.884 234.981 276.144 225.092 259.402 215.203C259.585 214.725 259.766 214.245 259.943 213.763C276.684 223.652 293.426 233.541 310.166 243.429C309.988 243.911 309.808 244.391 309.625 244.869Z" fill="#CADDFF"/>
<path d="M306.492 252.317C289.751 242.428 273.01 232.539 256.27 222.651C256.483 222.191 256.693 221.728 256.9 221.265C273.642 231.153 290.382 241.042 307.123 250.931C306.916 251.394 306.706 251.857 306.492 252.317Z" fill="#CADDFF"/>
<path d="M107.105 319.74H279.749L295.173 122.789H122.531L107.105 319.74Z" fill="#307FF4"/>
<path d="M103.855 313.384H279.074L291.925 116.433H139.18L103.855 313.384Z" fill="#73C3FD"/>
<path d="M280.14 319.677H108.496V133.124L129 112.621H280.14V319.677Z" fill="white" stroke="#171D34"/>
<path d="M186.575 128.437H119.883V233.803H186.575V128.437Z" fill="#CADDFF"/>
<path d="M181.89 132.516L124.127 229.094" stroke="white" stroke-miterlimit="10" stroke-linecap="round" stroke-linejoin="round"/>
<path d="M124.127 132.516L181.89 229.094" stroke="white" stroke-miterlimit="10" stroke-linecap="round" stroke-linejoin="round"/>
<path d="M269.355 128.437H198.727V136.594H269.355V128.437Z" fill="#307FF4"/>
<path opacity="0.6" d="M237.318 143.116H198.727V148.348H237.318V143.116Z" fill="#CADDFF"/>
<path opacity="0.6" d="M158.476 237.291H119.883V242.524H158.476V237.291Z" fill="#CADDFF"/>
<path opacity="0.15" d="M186.575 244.824H119.883V247.441H186.575V244.824Z" fill="#CADDFF"/>
<path opacity="0.15" d="M186.575 249.74H119.883V252.357H186.575V249.74Z" fill="#CADDFF"/>
<path d="M269.355 156.741H198.727V158.576H269.355V156.741Z" fill="#CADDFF"/>
<path d="M269.355 166.436H198.727V168.271H269.355V166.436Z" fill="#CADDFF"/>
<path d="M269.355 176.131H198.727V177.966H269.355V176.131Z" fill="#CADDFF"/>
<path d="M269.355 185.827H198.727V187.661H269.355V185.827Z" fill="#CADDFF"/>
<path d="M269.355 195.52H198.727V197.354H269.355V195.52Z" fill="#CADDFF"/>
<path d="M269.355 205.215H198.727V207.049H269.355V205.215Z" fill="#CADDFF"/>
<path d="M269.355 214.91H198.727V216.744H269.355V214.91Z" fill="#CADDFF"/>
<path d="M269.355 224.605H198.727V226.439H269.355V224.605Z" fill="#CADDFF"/>
<path d="M269.355 234.298H198.727V236.132H269.355V234.298Z" fill="#CADDFF"/>
<path d="M269.355 243.993H198.727V245.828H269.355V243.993Z" fill="#CADDFF"/>
<path d="M269.355 253.688H198.727V255.523H269.355V253.688Z" fill="#CADDFF"/>
<path d="M269.355 263.383H198.727V265.218H269.355V263.383Z" fill="#CADDFF"/>
<path opacity="0.15" d="M280.606 277.032L194.768 272.845V265.321C194.768 258.93 189.593 253.747 183.201 253.737L107.996 253.62V266.832L204.261 311.048" fill="#171D34"/>
<path d="M190.596 277.251V278.001H191.346H331.385V405.436C331.385 417.636 321.494 427.527 309.294 427.527H115.622C103.422 427.527 93.5312 417.636 93.5312 405.436V289.621V277.251V257.953H181.493C186.52 257.953 190.596 262.029 190.596 267.056V277.251Z" fill="#5B9AF8" stroke="black" stroke-width="1.5"/>
<path d="M349.726 354.352C323.369 379.584 281.394 378.67 256.162 352.312C230.93 325.954 231.845 283.981 258.203 258.748C284.561 233.516 326.534 234.432 351.767 260.79C376.999 287.146 376.084 329.121 349.726 354.352ZM340.148 271.911C321.048 251.959 289.277 251.264 269.325 270.366C249.373 289.466 248.68 321.238 267.78 341.19C286.88 361.143 318.651 361.836 338.604 342.735C358.556 323.634 359.249 291.864 340.148 271.911Z" fill="#F6BD3D" stroke="#171D34"/>
<path d="M353.998 307.008C353.998 334.899 331.388 357.508 303.498 357.508C275.608 357.508 252.998 334.899 252.998 307.008C252.998 279.118 275.608 256.508 303.498 256.508C331.388 256.508 353.998 279.118 353.998 307.008Z" fill="#CADDFF" stroke="#171D34"/>
<path d="M422.066 188.449C427.918 194.302 427.918 203.791 422.066 209.644L377.268 254.442L356.072 233.248L400.87 188.45C400.87 188.449 400.87 188.449 400.87 188.449C406.724 182.597 416.213 182.597 422.066 188.449Z" fill="#F6BD3D" stroke="#171D34"/>
<path d="M359.611 232.368L378.146 250.902C380.325 253.081 380.325 256.648 378.146 258.827L366.613 270.36C364.434 272.539 360.867 272.539 358.688 270.36L340.154 251.825C337.975 249.646 337.975 246.08 340.154 243.901L351.687 232.368C353.865 230.19 357.432 230.19 359.611 232.368C359.611 232.368 359.611 232.368 359.611 232.368Z" fill="#171D34" stroke="#171D34"/>
<path d="M128.293 132.417H109.203L128.293 113.327V132.417Z" fill="#FBFCFE" stroke="#171D34"/>
<path d="M183.191 408.079H115.877C113.588 408.079 111.575 406.889 111.38 405.421L111.015 402.658C110.821 401.19 112.52 400 114.809 400H182.123C184.412 400 186.426 401.19 186.62 402.658L186.985 405.421C187.179 406.889 185.48 408.079 183.191 408.079Z" fill="#99C1FB"/>
<path d="M233.036 54.3501C232.732 54.2104 232.37 54.2132 232.056 54.3857C191.944 76.5232 146.697 86.6969 101.201 83.8093C100.601 83.7713 100.086 84.2256 100.048 84.8242C100.011 85.4229 100.466 85.9384 101.066 85.9764C146.975 88.8918 192.634 78.623 233.109 56.2851C233.635 55.9944 233.823 55.3353 233.535 54.81C233.419 54.5985 233.242 54.4416 233.037 54.3471L233.036 54.3501Z" fill="#171D34"/>
<path d="M211.587 52.9782C211.31 52.8508 210.98 52.8394 210.682 52.9763C181.872 66.102 151.29 73.3317 119.784 74.467C119.182 74.4891 118.716 74.9916 118.739 75.5927C118.762 76.1938 119.265 76.6595 119.867 76.6374C151.659 75.493 182.517 68.1959 211.587 54.9521C212.135 54.7033 212.373 54.0602 212.123 53.5131C212.009 53.2664 211.817 53.0807 211.591 52.9766L211.587 52.9782Z" fill="#171D34"/>
<path d="M86.3657 75.886C85.5858 75.5272 84.7312 75.3465 83.8479 75.3615C82.2995 75.3875 80.8575 76.0133 79.7833 77.1254C78.709 78.2374 78.1344 79.6981 78.1621 81.245C78.1899 82.7919 78.8179 84.2333 79.9322 85.3077C81.0435 86.3808 82.5092 86.9578 84.0575 86.9319C87.2494 86.8769 89.8005 84.2403 89.7419 81.0513C89.7142 79.5044 89.0861 78.0631 87.9719 76.9886C87.495 76.5279 86.9507 76.1587 86.3673 75.8903L86.3657 75.886ZM82.4431 84.4281C82.077 84.2597 81.7396 84.0288 81.4398 83.7396C80.745 83.0706 80.3517 82.1694 80.3344 81.2035C80.3171 80.2376 80.6753 79.3256 81.3485 78.6306C82.0174 77.9371 82.919 77.5452 83.8858 77.529C84.8527 77.5128 85.7659 77.8717 86.4624 78.5451C87.1573 79.2141 87.5506 80.1152 87.5678 81.0812C87.6043 83.0715 86.0115 84.7228 84.0164 84.7557C83.4641 84.7645 82.9283 84.6513 82.4431 84.4281Z" fill="#171D34"/>
<path d="M370.867 363.891C371.197 364.273 371.684 364.449 372.028 364.29C399.311 351.795 416.869 331.534 430.737 296.545C430.904 296.123 430.647 295.517 430.169 295.19C429.687 294.862 429.164 294.939 428.997 295.356C415.251 330.041 397.87 350.114 370.876 362.475C370.48 362.657 370.416 363.211 370.733 363.712C370.774 363.777 370.819 363.837 370.867 363.891Z" fill="#171D34"/>
<path d="M390.018 341.361C390.407 341.809 390.98 341.954 391.308 341.683C404.388 330.828 411.531 318.988 417.269 309.474C417.789 308.612 418.299 307.767 418.802 306.941C419.03 306.566 418.844 305.955 418.391 305.576C417.935 305.195 417.383 305.192 417.154 305.564C416.652 306.389 416.142 307.234 415.618 308.099C409.925 317.54 402.836 329.286 389.901 340.024C389.572 340.296 389.62 340.891 390.008 341.349L390.018 341.361Z" fill="#171D34"/>
<path d="M60.5257 308.23C60.3684 308.23 60.2079 308.194 60.0539 308.122C59.5133 307.86 59.2839 307.212 59.546 306.672L61.9838 301.614C62.2459 301.074 62.8946 300.848 63.4353 301.107C63.9759 301.369 64.2053 302.017 63.9431 302.556L61.5054 307.614C61.3186 308.004 60.9287 308.23 60.5257 308.23Z" fill="#171D34"/>
<path d="M54.848 320.014C54.6907 320.014 54.5302 319.978 54.3762 319.906C53.8356 319.648 53.6062 318.997 53.8683 318.457L56.306 313.399C56.5682 312.859 57.2169 312.633 57.7576 312.892C58.2982 313.15 58.5275 313.801 58.2654 314.341L55.8277 319.399C55.6409 319.788 55.251 320.014 54.848 320.014Z" fill="#171D34"/>
<path d="M55.5385 309.973C55.3812 309.973 55.2207 309.937 55.0667 309.865L50.0012 307.431C49.4605 307.173 49.2312 306.522 49.4933 305.982C49.7522 305.442 50.4042 305.216 50.9448 305.475L56.0103 307.909C56.5509 308.171 56.7803 308.818 56.5182 309.358C56.3314 309.748 55.9415 309.973 55.5385 309.973Z" fill="#171D34"/>
<path d="M67.3412 315.647C67.184 315.647 67.0234 315.611 66.8694 315.539L61.8039 313.104C61.2633 312.843 61.0339 312.195 61.296 311.655C61.5582 311.115 62.2069 310.89 62.7475 311.148L67.813 313.582C68.3537 313.841 68.583 314.492 68.3209 315.032C68.1341 315.421 67.7442 315.647 67.3412 315.647Z" fill="#171D34"/>
<path d="M39.0437 338.47C38.1853 338.47 37.3334 338.277 36.5372 337.894C33.6604 336.51 32.4448 333.049 33.8308 330.176C34.5025 328.782 35.6755 327.735 37.1335 327.225C38.5948 326.715 40.1643 326.803 41.5601 327.474C42.9526 328.144 44.0044 329.316 44.5155 330.775C45.0267 332.234 44.9382 333.801 44.2665 335.195C43.5948 336.589 42.4218 337.636 40.9605 338.146C40.3347 338.365 39.6859 338.473 39.0437 338.473V338.47ZM39.0503 329.07C38.6473 329.07 38.2443 329.139 37.8511 329.276C36.9402 329.594 36.2063 330.248 35.7869 331.118C34.9219 332.911 35.682 335.077 37.4776 335.941C38.3491 336.36 39.3321 336.415 40.2429 336.095C41.1538 335.777 41.8878 335.123 42.3071 334.253C42.7265 333.382 42.7822 332.404 42.4611 331.491C42.14 330.582 41.4847 329.849 40.6165 329.43C40.1184 329.191 39.5844 329.07 39.0503 329.07Z" fill="#171D34"/>
</svg>
