<svg width="583" height="671" viewBox="0 0 583 671" fill="none" xmlns="http://www.w3.org/2000/svg">
<path d="M173.042 664.18C172.575 664.18 172.215 664.053 171.962 663.8C171.722 663.533 171.602 663.16 171.602 662.68V651.28C171.602 650.773 171.722 650.386 171.962 650.12C172.215 649.853 172.548 649.72 172.962 649.72C173.322 649.72 173.595 649.793 173.782 649.94C173.982 650.073 174.208 650.3 174.462 650.62L181.482 659.56H180.942V651.2C180.942 650.733 181.062 650.373 181.302 650.12C181.555 649.853 181.915 649.72 182.382 649.72C182.848 649.72 183.202 649.853 183.442 650.12C183.695 650.373 183.822 650.733 183.822 651.2V662.74C183.822 663.18 183.708 663.533 183.482 663.8C183.255 664.053 182.948 664.18 182.562 664.18C182.188 664.18 181.888 664.106 181.662 663.96C181.448 663.813 181.215 663.58 180.962 663.26L173.962 654.32H174.482V662.68C174.482 663.16 174.362 663.533 174.122 663.8C173.882 664.053 173.522 664.18 173.042 664.18ZM191.12 664.22C190.067 664.22 189.147 664.013 188.36 663.6C187.587 663.186 186.987 662.593 186.56 661.82C186.134 661.046 185.92 660.133 185.92 659.08C185.92 658.293 186.04 657.586 186.28 656.96C186.52 656.333 186.867 655.8 187.32 655.36C187.787 654.906 188.34 654.566 188.98 654.34C189.62 654.1 190.334 653.98 191.12 653.98C192.174 653.98 193.087 654.186 193.86 654.6C194.647 655.013 195.254 655.6 195.68 656.36C196.12 657.12 196.34 658.026 196.34 659.08C196.34 659.88 196.214 660.593 195.96 661.22C195.72 661.846 195.374 662.386 194.92 662.84C194.467 663.293 193.914 663.64 193.26 663.88C192.62 664.106 191.907 664.22 191.12 664.22ZM191.12 661.96C191.56 661.96 191.94 661.853 192.26 661.64C192.58 661.426 192.834 661.113 193.02 660.7C193.207 660.273 193.3 659.733 193.3 659.08C193.3 658.106 193.1 657.393 192.7 656.94C192.3 656.473 191.774 656.24 191.12 656.24C190.694 656.24 190.314 656.34 189.98 656.54C189.66 656.74 189.407 657.053 189.22 657.48C189.047 657.893 188.96 658.426 188.96 659.08C188.96 660.053 189.16 660.78 189.56 661.26C189.96 661.726 190.48 661.96 191.12 661.96ZM205.324 664.18C204.817 664.18 204.43 664.046 204.164 663.78C203.897 663.513 203.764 663.133 203.764 662.64V655.54C203.764 655.046 203.89 654.673 204.144 654.42C204.41 654.153 204.777 654.02 205.244 654.02C205.724 654.02 206.09 654.153 206.344 654.42C206.597 654.673 206.724 655.046 206.724 655.54V656.58H206.524C206.684 655.78 207.037 655.16 207.584 654.72C208.13 654.28 208.837 654.033 209.704 653.98C210.037 653.953 210.29 654.04 210.464 654.24C210.65 654.426 210.75 654.74 210.764 655.18C210.79 655.593 210.704 655.92 210.504 656.16C210.317 656.4 209.997 656.546 209.544 656.6L209.084 656.64C208.324 656.706 207.757 656.926 207.384 657.3C207.024 657.673 206.844 658.213 206.844 658.92V662.64C206.844 663.133 206.71 663.513 206.444 663.78C206.19 664.046 205.817 664.18 205.324 664.18ZM216.93 664.22C215.77 664.22 214.77 664.013 213.93 663.6C213.103 663.173 212.463 662.58 212.01 661.82C211.57 661.046 211.35 660.14 211.35 659.1C211.35 658.086 211.563 657.2 211.99 656.44C212.417 655.666 213.01 655.066 213.77 654.64C214.543 654.2 215.417 653.98 216.39 653.98C217.097 653.98 217.737 654.1 218.31 654.34C218.883 654.566 219.377 654.9 219.79 655.34C220.203 655.766 220.517 656.293 220.73 656.92C220.943 657.533 221.05 658.22 221.05 658.98C221.05 659.233 220.97 659.426 220.81 659.56C220.65 659.68 220.417 659.74 220.11 659.74H213.83V658.18H218.87L218.55 658.46C218.55 657.913 218.47 657.46 218.31 657.1C218.15 656.726 217.917 656.446 217.61 656.26C217.317 656.073 216.95 655.98 216.51 655.98C216.017 655.98 215.597 656.093 215.25 656.32C214.903 656.546 214.637 656.873 214.45 657.3C214.263 657.726 214.17 658.24 214.17 658.84V659C214.17 660.013 214.403 660.76 214.87 661.24C215.35 661.72 216.057 661.96 216.99 661.96C217.31 661.96 217.677 661.92 218.09 661.84C218.503 661.76 218.89 661.633 219.25 661.46C219.557 661.313 219.83 661.266 220.07 661.32C220.31 661.36 220.497 661.466 220.63 661.64C220.763 661.813 220.837 662.013 220.85 662.24C220.877 662.466 220.83 662.693 220.71 662.92C220.59 663.133 220.39 663.313 220.11 663.46C219.657 663.713 219.143 663.9 218.57 664.02C218.01 664.153 217.463 664.22 216.93 664.22ZM224.326 667.78C223.833 667.78 223.453 667.646 223.186 667.38C222.933 667.126 222.806 666.746 222.806 666.24V655.54C222.806 655.046 222.933 654.673 223.186 654.42C223.453 654.153 223.82 654.02 224.286 654.02C224.78 654.02 225.153 654.153 225.406 654.42C225.66 654.673 225.786 655.046 225.786 655.54V656.9L225.566 656.12C225.766 655.48 226.166 654.966 226.766 654.58C227.38 654.18 228.08 653.98 228.866 653.98C229.72 653.98 230.466 654.186 231.106 654.6C231.76 655.013 232.266 655.6 232.626 656.36C232.986 657.12 233.166 658.026 233.166 659.08C233.166 660.133 232.986 661.046 232.626 661.82C232.266 662.593 231.766 663.186 231.126 663.6C230.486 664.013 229.733 664.22 228.866 664.22C228.093 664.22 227.406 664.033 226.806 663.66C226.206 663.273 225.8 662.773 225.586 662.16H225.826V666.24C225.826 666.746 225.693 667.126 225.426 667.38C225.173 667.646 224.806 667.78 224.326 667.78ZM227.966 661.96C228.393 661.96 228.766 661.853 229.086 661.64C229.42 661.426 229.673 661.113 229.846 660.7C230.033 660.273 230.126 659.733 230.126 659.08C230.126 658.106 229.926 657.393 229.526 656.94C229.126 656.473 228.606 656.24 227.966 656.24C227.54 656.24 227.16 656.34 226.826 656.54C226.506 656.74 226.253 657.053 226.066 657.48C225.88 657.893 225.786 658.426 225.786 659.08C225.786 660.053 225.986 660.78 226.386 661.26C226.786 661.726 227.313 661.96 227.966 661.96ZM239.734 664.22C238.68 664.22 237.76 664.013 236.974 663.6C236.2 663.186 235.6 662.593 235.174 661.82C234.747 661.046 234.534 660.133 234.534 659.08C234.534 658.293 234.654 657.586 234.894 656.96C235.134 656.333 235.48 655.8 235.934 655.36C236.4 654.906 236.954 654.566 237.594 654.34C238.234 654.1 238.947 653.98 239.734 653.98C240.787 653.98 241.7 654.186 242.474 654.6C243.26 655.013 243.867 655.6 244.294 656.36C244.734 657.12 244.954 658.026 244.954 659.08C244.954 659.88 244.827 660.593 244.574 661.22C244.334 661.846 243.987 662.386 243.534 662.84C243.08 663.293 242.527 663.64 241.874 663.88C241.234 664.106 240.52 664.22 239.734 664.22ZM239.734 661.96C240.174 661.96 240.554 661.853 240.874 661.64C241.194 661.426 241.447 661.113 241.634 660.7C241.82 660.273 241.914 659.733 241.914 659.08C241.914 658.106 241.714 657.393 241.314 656.94C240.914 656.473 240.387 656.24 239.734 656.24C239.307 656.24 238.927 656.34 238.594 656.54C238.274 656.74 238.02 657.053 237.834 657.48C237.66 657.893 237.574 658.426 237.574 659.08C237.574 660.053 237.774 660.78 238.174 661.26C238.574 661.726 239.094 661.96 239.734 661.96ZM248.351 664.18C247.844 664.18 247.458 664.046 247.191 663.78C246.924 663.513 246.791 663.133 246.791 662.64V655.54C246.791 655.046 246.918 654.673 247.171 654.42C247.438 654.153 247.804 654.02 248.271 654.02C248.751 654.02 249.118 654.153 249.371 654.42C249.624 654.673 249.751 655.046 249.751 655.54V656.58H249.551C249.711 655.78 250.064 655.16 250.611 654.72C251.158 654.28 251.864 654.033 252.731 653.98C253.064 653.953 253.318 654.04 253.491 654.24C253.678 654.426 253.778 654.74 253.791 655.18C253.818 655.593 253.731 655.92 253.531 656.16C253.344 656.4 253.024 656.546 252.571 656.6L252.111 656.64C251.351 656.706 250.784 656.926 250.411 657.3C250.051 657.673 249.871 658.213 249.871 658.92V662.64C249.871 663.133 249.738 663.513 249.471 663.78C249.218 664.046 248.844 664.18 248.351 664.18ZM260.439 664.22C259.519 664.22 258.746 664.066 258.119 663.76C257.506 663.453 257.046 663.006 256.739 662.42C256.446 661.833 256.299 661.093 256.299 660.2V656.44H255.459C255.086 656.44 254.792 656.34 254.579 656.14C254.379 655.94 254.279 655.666 254.279 655.32C254.279 654.946 254.379 654.666 254.579 654.48C254.792 654.28 255.086 654.18 255.459 654.18H256.299V652.66C256.299 652.153 256.432 651.773 256.699 651.52C256.966 651.253 257.339 651.12 257.819 651.12C258.312 651.12 258.686 651.253 258.939 651.52C259.192 651.773 259.319 652.153 259.319 652.66V654.18H261.219C261.592 654.18 261.879 654.28 262.079 654.48C262.279 654.666 262.379 654.946 262.379 655.32C262.379 655.666 262.279 655.94 262.079 656.14C261.879 656.34 261.592 656.44 261.219 656.44H259.319V660.08C259.319 660.64 259.446 661.06 259.699 661.34C259.966 661.62 260.386 661.76 260.959 661.76C261.159 661.76 261.346 661.74 261.519 661.7C261.692 661.66 261.852 661.633 261.999 661.62C262.186 661.606 262.339 661.666 262.459 661.8C262.579 661.92 262.639 662.193 262.639 662.62C262.639 662.94 262.586 663.22 262.479 663.46C262.372 663.7 262.186 663.873 261.919 663.98C261.746 664.046 261.506 664.1 261.199 664.14C260.906 664.193 260.652 664.22 260.439 664.22ZM267.465 664.22C266.878 664.22 266.272 664.166 265.645 664.06C265.032 663.953 264.472 663.773 263.965 663.52C263.698 663.386 263.505 663.22 263.385 663.02C263.278 662.806 263.232 662.593 263.245 662.38C263.258 662.166 263.325 661.973 263.445 661.8C263.578 661.626 263.745 661.513 263.945 661.46C264.158 661.393 264.392 661.413 264.645 661.52C265.192 661.746 265.692 661.906 266.145 662C266.598 662.093 267.045 662.14 267.485 662.14C268.058 662.14 268.472 662.053 268.725 661.88C268.992 661.693 269.125 661.453 269.125 661.16C269.125 660.893 269.038 660.693 268.865 660.56C268.692 660.426 268.438 660.333 268.105 660.28L266.005 659.9C265.178 659.753 264.538 659.453 264.085 659C263.645 658.533 263.425 657.94 263.425 657.22C263.425 656.553 263.612 655.98 263.985 655.5C264.358 655.006 264.872 654.633 265.525 654.38C266.192 654.113 266.945 653.98 267.785 653.98C268.385 653.98 268.938 654.033 269.445 654.14C269.952 654.246 270.438 654.42 270.905 654.66C271.145 654.78 271.312 654.94 271.405 655.14C271.512 655.34 271.545 655.546 271.505 655.76C271.478 655.973 271.398 656.166 271.265 656.34C271.132 656.513 270.958 656.626 270.745 656.68C270.545 656.733 270.312 656.706 270.045 656.6C269.618 656.4 269.225 656.26 268.865 656.18C268.505 656.086 268.158 656.04 267.825 656.04C267.225 656.04 266.792 656.14 266.525 656.34C266.258 656.526 266.125 656.766 266.125 657.06C266.125 657.286 266.198 657.48 266.345 657.64C266.505 657.786 266.745 657.886 267.065 657.94L269.165 658.32C270.032 658.466 270.692 658.76 271.145 659.2C271.598 659.626 271.825 660.213 271.825 660.96C271.825 661.973 271.425 662.773 270.625 663.36C269.838 663.933 268.785 664.22 267.465 664.22ZM281.415 664.18C280.921 664.18 280.541 664.046 280.275 663.78C280.021 663.513 279.895 663.133 279.895 662.64V656.44H279.175C278.801 656.44 278.508 656.34 278.295 656.14C278.095 655.94 277.995 655.666 277.995 655.32C277.995 654.946 278.095 654.666 278.295 654.48C278.508 654.28 278.801 654.18 279.175 654.18H280.775L279.895 654.98V654.36C279.895 652.933 280.248 651.866 280.955 651.16C281.675 650.453 282.728 650.026 284.115 649.88L284.755 649.82C285.101 649.793 285.375 649.846 285.575 649.98C285.788 650.113 285.928 650.286 285.995 650.5C286.061 650.713 286.075 650.933 286.035 651.16C285.995 651.373 285.901 651.566 285.755 651.74C285.621 651.9 285.435 651.986 285.195 652L284.915 652.02C284.195 652.073 283.681 652.246 283.375 652.54C283.068 652.82 282.915 653.253 282.915 653.84V654.52L282.535 654.18H284.335C284.721 654.18 285.015 654.28 285.215 654.48C285.415 654.666 285.515 654.946 285.515 655.32C285.515 655.666 285.415 655.94 285.215 656.14C285.015 656.34 284.721 656.44 284.335 656.44H282.915V662.64C282.915 663.666 282.415 664.18 281.415 664.18ZM291.257 664.22C290.204 664.22 289.284 664.013 288.497 663.6C287.724 663.186 287.124 662.593 286.697 661.82C286.27 661.046 286.057 660.133 286.057 659.08C286.057 658.293 286.177 657.586 286.417 656.96C286.657 656.333 287.004 655.8 287.457 655.36C287.924 654.906 288.477 654.566 289.117 654.34C289.757 654.1 290.47 653.98 291.257 653.98C292.31 653.98 293.224 654.186 293.997 654.6C294.784 655.013 295.39 655.6 295.817 656.36C296.257 657.12 296.477 658.026 296.477 659.08C296.477 659.88 296.35 660.593 296.097 661.22C295.857 661.846 295.51 662.386 295.057 662.84C294.604 663.293 294.05 663.64 293.397 663.88C292.757 664.106 292.044 664.22 291.257 664.22ZM291.257 661.96C291.697 661.96 292.077 661.853 292.397 661.64C292.717 661.426 292.97 661.113 293.157 660.7C293.344 660.273 293.437 659.733 293.437 659.08C293.437 658.106 293.237 657.393 292.837 656.94C292.437 656.473 291.91 656.24 291.257 656.24C290.83 656.24 290.45 656.34 290.117 656.54C289.797 656.74 289.544 657.053 289.357 657.48C289.184 657.893 289.097 658.426 289.097 659.08C289.097 660.053 289.297 660.78 289.697 661.26C290.097 661.726 290.617 661.96 291.257 661.96ZM299.874 664.18C299.368 664.18 298.981 664.046 298.714 663.78C298.448 663.513 298.314 663.133 298.314 662.64V655.54C298.314 655.046 298.441 654.673 298.694 654.42C298.961 654.153 299.328 654.02 299.794 654.02C300.274 654.02 300.641 654.153 300.894 654.42C301.148 654.673 301.274 655.046 301.274 655.54V656.58H301.074C301.234 655.78 301.588 655.16 302.134 654.72C302.681 654.28 303.388 654.033 304.254 653.98C304.588 653.953 304.841 654.04 305.014 654.24C305.201 654.426 305.301 654.74 305.314 655.18C305.341 655.593 305.254 655.92 305.054 656.16C304.868 656.4 304.548 656.546 304.094 656.6L303.634 656.64C302.874 656.706 302.308 656.926 301.934 657.3C301.574 657.673 301.394 658.213 301.394 658.92V662.64C301.394 663.133 301.261 663.513 300.994 663.78C300.741 664.046 300.368 664.18 299.874 664.18ZM316.962 664.22C316.042 664.22 315.269 664.066 314.642 663.76C314.029 663.453 313.569 663.006 313.262 662.42C312.969 661.833 312.822 661.093 312.822 660.2V656.44H311.982C311.609 656.44 311.316 656.34 311.102 656.14C310.902 655.94 310.802 655.666 310.802 655.32C310.802 654.946 310.902 654.666 311.102 654.48C311.316 654.28 311.609 654.18 311.982 654.18H312.822V652.66C312.822 652.153 312.956 651.773 313.222 651.52C313.489 651.253 313.862 651.12 314.342 651.12C314.836 651.12 315.209 651.253 315.462 651.52C315.716 651.773 315.842 652.153 315.842 652.66V654.18H317.742C318.116 654.18 318.402 654.28 318.602 654.48C318.802 654.666 318.902 654.946 318.902 655.32C318.902 655.666 318.802 655.94 318.602 656.14C318.402 656.34 318.116 656.44 317.742 656.44H315.842V660.08C315.842 660.64 315.969 661.06 316.222 661.34C316.489 661.62 316.909 661.76 317.482 661.76C317.682 661.76 317.869 661.74 318.042 661.7C318.216 661.66 318.376 661.633 318.522 661.62C318.709 661.606 318.862 661.666 318.982 661.8C319.102 661.92 319.162 662.193 319.162 662.62C319.162 662.94 319.109 663.22 319.002 663.46C318.896 663.7 318.709 663.873 318.442 663.98C318.269 664.046 318.029 664.1 317.722 664.14C317.429 664.193 317.176 664.22 316.962 664.22ZM322.061 664.18C321.568 664.18 321.188 664.046 320.921 663.78C320.668 663.513 320.541 663.133 320.541 662.64V651.26C320.541 650.753 320.668 650.373 320.921 650.12C321.188 649.853 321.568 649.72 322.061 649.72C322.541 649.72 322.908 649.853 323.161 650.12C323.428 650.373 323.561 650.753 323.561 651.26V656.02H323.281C323.588 655.366 324.041 654.866 324.641 654.52C325.254 654.16 325.948 653.98 326.721 653.98C327.508 653.98 328.154 654.133 328.661 654.44C329.168 654.733 329.548 655.186 329.801 655.8C330.054 656.4 330.181 657.166 330.181 658.1V662.64C330.181 663.133 330.048 663.513 329.781 663.78C329.528 664.046 329.154 664.18 328.661 664.18C328.181 664.18 327.808 664.046 327.541 663.78C327.288 663.513 327.161 663.133 327.161 662.64V658.24C327.161 657.56 327.034 657.073 326.781 656.78C326.541 656.473 326.168 656.32 325.661 656.32C325.021 656.32 324.508 656.52 324.121 656.92C323.748 657.32 323.561 657.853 323.561 658.52V662.64C323.561 663.666 323.061 664.18 322.061 664.18ZM333.955 664.16C333.462 664.16 333.082 664.02 332.815 663.74C332.562 663.446 332.435 663.04 332.435 662.52V655.68C332.435 655.146 332.562 654.74 332.815 654.46C333.082 654.166 333.462 654.02 333.955 654.02C334.435 654.02 334.802 654.166 335.055 654.46C335.322 654.74 335.455 655.146 335.455 655.68V662.52C335.455 663.04 335.329 663.446 335.075 663.74C334.822 664.02 334.449 664.16 333.955 664.16ZM333.955 652.38C333.395 652.38 332.962 652.253 332.655 652C332.362 651.733 332.215 651.36 332.215 650.88C332.215 650.386 332.362 650.013 332.655 649.76C332.962 649.493 333.395 649.36 333.955 649.36C334.515 649.36 334.942 649.493 335.235 649.76C335.529 650.013 335.675 650.386 335.675 650.88C335.675 651.36 335.529 651.733 335.235 652C334.942 652.253 334.515 652.38 333.955 652.38ZM341.547 664.22C340.96 664.22 340.354 664.166 339.727 664.06C339.114 663.953 338.554 663.773 338.047 663.52C337.78 663.386 337.587 663.22 337.467 663.02C337.36 662.806 337.314 662.593 337.327 662.38C337.34 662.166 337.407 661.973 337.527 661.8C337.66 661.626 337.827 661.513 338.027 661.46C338.24 661.393 338.474 661.413 338.727 661.52C339.274 661.746 339.774 661.906 340.227 662C340.68 662.093 341.127 662.14 341.567 662.14C342.14 662.14 342.554 662.053 342.807 661.88C343.074 661.693 343.207 661.453 343.207 661.16C343.207 660.893 343.12 660.693 342.947 660.56C342.774 660.426 342.52 660.333 342.187 660.28L340.087 659.9C339.26 659.753 338.62 659.453 338.167 659C337.727 658.533 337.507 657.94 337.507 657.22C337.507 656.553 337.694 655.98 338.067 655.5C338.44 655.006 338.954 654.633 339.607 654.38C340.274 654.113 341.027 653.98 341.867 653.98C342.467 653.98 343.02 654.033 343.527 654.14C344.034 654.246 344.52 654.42 344.987 654.66C345.227 654.78 345.394 654.94 345.487 655.14C345.594 655.34 345.627 655.546 345.587 655.76C345.56 655.973 345.48 656.166 345.347 656.34C345.214 656.513 345.04 656.626 344.827 656.68C344.627 656.733 344.394 656.706 344.127 656.6C343.7 656.4 343.307 656.26 342.947 656.18C342.587 656.086 342.24 656.04 341.907 656.04C341.307 656.04 340.874 656.14 340.607 656.34C340.34 656.526 340.207 656.766 340.207 657.06C340.207 657.286 340.28 657.48 340.427 657.64C340.587 657.786 340.827 657.886 341.147 657.94L343.247 658.32C344.114 658.466 344.774 658.76 345.227 659.2C345.68 659.626 345.907 660.213 345.907 660.96C345.907 661.973 345.507 662.773 344.707 663.36C343.92 663.933 342.867 664.22 341.547 664.22ZM354.737 667.78C354.243 667.78 353.863 667.646 353.597 667.38C353.343 667.126 353.217 666.746 353.217 666.24V655.54C353.217 655.046 353.343 654.673 353.597 654.42C353.863 654.153 354.23 654.02 354.697 654.02C355.19 654.02 355.563 654.153 355.817 654.42C356.07 654.673 356.197 655.046 356.197 655.54V656.9L355.977 656.12C356.177 655.48 356.577 654.966 357.177 654.58C357.79 654.18 358.49 653.98 359.277 653.98C360.13 653.98 360.877 654.186 361.517 654.6C362.17 655.013 362.677 655.6 363.037 656.36C363.397 657.12 363.577 658.026 363.577 659.08C363.577 660.133 363.397 661.046 363.037 661.82C362.677 662.593 362.177 663.186 361.537 663.6C360.897 664.013 360.143 664.22 359.277 664.22C358.503 664.22 357.817 664.033 357.217 663.66C356.617 663.273 356.21 662.773 355.997 662.16H356.237V666.24C356.237 666.746 356.103 667.126 355.837 667.38C355.583 667.646 355.217 667.78 354.737 667.78ZM358.377 661.96C358.803 661.96 359.177 661.853 359.497 661.64C359.83 661.426 360.083 661.113 360.257 660.7C360.443 660.273 360.537 659.733 360.537 659.08C360.537 658.106 360.337 657.393 359.937 656.94C359.537 656.473 359.017 656.24 358.377 656.24C357.95 656.24 357.57 656.34 357.237 656.54C356.917 656.74 356.663 657.053 356.477 657.48C356.29 657.893 356.197 658.426 356.197 659.08C356.197 660.053 356.397 660.78 356.797 661.26C357.197 661.726 357.723 661.96 358.377 661.96ZM370.524 664.22C369.364 664.22 368.364 664.013 367.524 663.6C366.697 663.173 366.057 662.58 365.604 661.82C365.164 661.046 364.944 660.14 364.944 659.1C364.944 658.086 365.157 657.2 365.584 656.44C366.01 655.666 366.604 655.066 367.364 654.64C368.137 654.2 369.01 653.98 369.984 653.98C370.69 653.98 371.33 654.1 371.904 654.34C372.477 654.566 372.97 654.9 373.384 655.34C373.797 655.766 374.11 656.293 374.324 656.92C374.537 657.533 374.644 658.22 374.644 658.98C374.644 659.233 374.564 659.426 374.404 659.56C374.244 659.68 374.01 659.74 373.704 659.74H367.424V658.18H372.464L372.144 658.46C372.144 657.913 372.064 657.46 371.904 657.1C371.744 656.726 371.51 656.446 371.204 656.26C370.91 656.073 370.544 655.98 370.104 655.98C369.61 655.98 369.19 656.093 368.844 656.32C368.497 656.546 368.23 656.873 368.044 657.3C367.857 657.726 367.764 658.24 367.764 658.84V659C367.764 660.013 367.997 660.76 368.464 661.24C368.944 661.72 369.65 661.96 370.584 661.96C370.904 661.96 371.27 661.92 371.684 661.84C372.097 661.76 372.484 661.633 372.844 661.46C373.15 661.313 373.424 661.266 373.664 661.32C373.904 661.36 374.09 661.466 374.224 661.64C374.357 661.813 374.43 662.013 374.444 662.24C374.47 662.466 374.424 662.693 374.304 662.92C374.184 663.133 373.984 663.313 373.704 663.46C373.25 663.713 372.737 663.9 372.164 664.02C371.604 664.153 371.057 664.22 370.524 664.22ZM377.96 664.18C377.454 664.18 377.067 664.046 376.8 663.78C376.534 663.513 376.4 663.133 376.4 662.64V655.54C376.4 655.046 376.527 654.673 376.78 654.42C377.047 654.153 377.414 654.02 377.88 654.02C378.36 654.02 378.727 654.153 378.98 654.42C379.234 654.673 379.36 655.046 379.36 655.54V656.58H379.16C379.32 655.78 379.674 655.16 380.22 654.72C380.767 654.28 381.474 654.033 382.34 653.98C382.674 653.953 382.927 654.04 383.1 654.24C383.287 654.426 383.387 654.74 383.4 655.18C383.427 655.593 383.34 655.92 383.14 656.16C382.954 656.4 382.634 656.546 382.18 656.6L381.72 656.64C380.96 656.706 380.394 656.926 380.02 657.3C379.66 657.673 379.48 658.213 379.48 658.92V662.64C379.48 663.133 379.347 663.513 379.08 663.78C378.827 664.046 378.454 664.18 377.96 664.18ZM386.162 664.16C385.669 664.16 385.289 664.02 385.022 663.74C384.769 663.446 384.642 663.04 384.642 662.52V655.68C384.642 655.146 384.769 654.74 385.022 654.46C385.289 654.166 385.669 654.02 386.162 654.02C386.642 654.02 387.009 654.166 387.262 654.46C387.529 654.74 387.662 655.146 387.662 655.68V662.52C387.662 663.04 387.536 663.446 387.282 663.74C387.029 664.02 386.656 664.16 386.162 664.16ZM386.162 652.38C385.602 652.38 385.169 652.253 384.862 652C384.569 651.733 384.422 651.36 384.422 650.88C384.422 650.386 384.569 650.013 384.862 649.76C385.169 649.493 385.602 649.36 386.162 649.36C386.722 649.36 387.149 649.493 387.442 649.76C387.736 650.013 387.882 650.386 387.882 650.88C387.882 651.36 387.736 651.733 387.442 652C387.149 652.253 386.722 652.38 386.162 652.38ZM394.714 664.22C393.661 664.22 392.741 664.013 391.954 663.6C391.181 663.186 390.581 662.593 390.154 661.82C389.727 661.046 389.514 660.133 389.514 659.08C389.514 658.293 389.634 657.586 389.874 656.96C390.114 656.333 390.461 655.8 390.914 655.36C391.381 654.906 391.934 654.566 392.574 654.34C393.214 654.1 393.927 653.98 394.714 653.98C395.767 653.98 396.681 654.186 397.454 654.6C398.241 655.013 398.847 655.6 399.274 656.36C399.714 657.12 399.934 658.026 399.934 659.08C399.934 659.88 399.807 660.593 399.554 661.22C399.314 661.846 398.967 662.386 398.514 662.84C398.061 663.293 397.507 663.64 396.854 663.88C396.214 664.106 395.501 664.22 394.714 664.22ZM394.714 661.96C395.154 661.96 395.534 661.853 395.854 661.64C396.174 661.426 396.427 661.113 396.614 660.7C396.801 660.273 396.894 659.733 396.894 659.08C396.894 658.106 396.694 657.393 396.294 656.94C395.894 656.473 395.367 656.24 394.714 656.24C394.287 656.24 393.907 656.34 393.574 656.54C393.254 656.74 393.001 657.053 392.814 657.48C392.641 657.893 392.554 658.426 392.554 659.08C392.554 660.053 392.754 660.78 393.154 661.26C393.554 661.726 394.074 661.96 394.714 661.96ZM405.591 664.22C404.738 664.22 403.985 664.013 403.331 663.6C402.691 663.186 402.191 662.593 401.831 661.82C401.471 661.046 401.291 660.133 401.291 659.08C401.291 658.026 401.471 657.12 401.831 656.36C402.191 655.6 402.691 655.013 403.331 654.6C403.985 654.186 404.738 653.98 405.591 653.98C406.365 653.98 407.045 654.166 407.631 654.54C408.231 654.913 408.638 655.4 408.851 656H408.631V651.26C408.631 650.753 408.758 650.373 409.011 650.12C409.265 649.853 409.638 649.72 410.131 649.72C410.611 649.72 410.985 649.853 411.251 650.12C411.518 650.373 411.651 650.753 411.651 651.26V662.64C411.651 663.133 411.518 663.513 411.251 663.78C410.998 664.046 410.631 664.18 410.151 664.18C409.671 664.18 409.298 664.046 409.031 663.78C408.778 663.513 408.651 663.133 408.651 662.64V661.28L408.871 662.06C408.685 662.713 408.285 663.24 407.671 663.64C407.071 664.026 406.378 664.22 405.591 664.22ZM406.491 661.96C406.931 661.96 407.311 661.853 407.631 661.64C407.951 661.426 408.205 661.113 408.391 660.7C408.578 660.273 408.671 659.733 408.671 659.08C408.671 658.106 408.471 657.393 408.071 656.94C407.671 656.473 407.145 656.24 406.491 656.24C406.065 656.24 405.685 656.34 405.351 656.54C405.031 656.74 404.778 657.053 404.591 657.48C404.418 657.893 404.331 658.426 404.331 659.08C404.331 660.053 404.531 660.78 404.931 661.26C405.331 661.726 405.851 661.96 406.491 661.96Z" fill="#363F5E"/>
<path d="M239.846 611.625C237.073 611.625 234.633 611.025 232.526 609.825C230.446 608.598 228.82 606.891 227.646 604.705C226.5 602.518 225.926 599.971 225.926 597.065C225.926 594.851 226.246 592.865 226.886 591.105C227.553 589.318 228.5 587.798 229.726 586.545C230.953 585.265 232.42 584.278 234.126 583.585C235.86 582.891 237.766 582.545 239.846 582.545C242.673 582.545 245.126 583.145 247.206 584.345C249.286 585.545 250.9 587.238 252.046 589.425C253.22 591.585 253.806 594.118 253.806 597.025C253.806 599.238 253.473 601.238 252.806 603.025C252.14 604.811 251.193 606.345 249.966 607.625C248.74 608.905 247.273 609.891 245.566 610.585C243.86 611.278 241.953 611.625 239.846 611.625ZM239.846 606.345C241.42 606.345 242.753 605.985 243.846 605.265C244.966 604.518 245.82 603.451 246.406 602.065C247.02 600.651 247.326 598.985 247.326 597.065C247.326 594.131 246.673 591.865 245.366 590.265C244.06 588.638 242.22 587.825 239.846 587.825C238.3 587.825 236.966 588.185 235.846 588.905C234.726 589.625 233.873 590.678 233.286 592.065C232.7 593.451 232.406 595.118 232.406 597.065C232.406 599.971 233.06 602.251 234.366 603.905C235.673 605.531 237.5 606.345 239.846 606.345ZM271.682 611.625C268.909 611.625 266.469 611.025 264.362 609.825C262.282 608.598 260.656 606.891 259.482 604.705C258.336 602.518 257.762 599.971 257.762 597.065C257.762 594.851 258.082 592.865 258.722 591.105C259.389 589.318 260.336 587.798 261.562 586.545C262.789 585.265 264.256 584.278 265.962 583.585C267.696 582.891 269.602 582.545 271.682 582.545C274.509 582.545 276.962 583.145 279.042 584.345C281.122 585.545 282.736 587.238 283.882 589.425C285.056 591.585 285.642 594.118 285.642 597.025C285.642 599.238 285.309 601.238 284.642 603.025C283.976 604.811 283.029 606.345 281.802 607.625C280.576 608.905 279.109 609.891 277.402 610.585C275.696 611.278 273.789 611.625 271.682 611.625ZM271.682 606.345C273.256 606.345 274.589 605.985 275.682 605.265C276.802 604.518 277.656 603.451 278.242 602.065C278.856 600.651 279.162 598.985 279.162 597.065C279.162 594.131 278.509 591.865 277.202 590.265C275.896 588.638 274.056 587.825 271.682 587.825C270.136 587.825 268.802 588.185 267.682 588.905C266.562 589.625 265.709 590.678 265.122 592.065C264.536 593.451 264.242 595.118 264.242 597.065C264.242 599.971 264.896 602.251 266.202 603.905C267.509 605.531 269.336 606.345 271.682 606.345ZM293.558 611.545C292.545 611.545 291.772 611.265 291.238 610.705C290.705 610.145 290.438 609.358 290.438 608.345V586.145C290.438 585.105 290.705 584.318 291.238 583.785C291.798 583.251 292.585 582.985 293.598 582.985H303.318C306.465 582.985 308.892 583.785 310.598 585.385C312.305 586.958 313.158 589.158 313.158 591.985C313.158 594.811 312.305 597.025 310.598 598.625C308.892 600.225 306.465 601.025 303.318 601.025H296.638V608.345C296.638 609.358 296.372 610.145 295.838 610.705C295.332 611.265 294.572 611.545 293.558 611.545ZM296.638 596.225H302.278C303.878 596.225 305.092 595.865 305.918 595.145C306.772 594.425 307.198 593.371 307.198 591.985C307.198 590.598 306.772 589.558 305.918 588.865C305.092 588.171 303.878 587.825 302.278 587.825H296.638V596.225ZM327.081 611.625C325.961 611.625 324.814 611.531 323.641 611.345C322.494 611.185 321.388 610.945 320.321 610.625C319.281 610.305 318.348 609.905 317.521 609.425C316.934 609.105 316.521 608.691 316.281 608.185C316.041 607.651 315.948 607.118 316.001 606.585C316.081 606.051 316.281 605.585 316.601 605.185C316.948 604.758 317.374 604.491 317.881 604.385C318.414 604.251 319.001 604.345 319.641 604.665C320.734 605.278 321.921 605.731 323.201 606.025C324.508 606.318 325.801 606.465 327.081 606.465C329.028 606.465 330.414 606.171 331.241 605.585C332.068 604.971 332.481 604.211 332.481 603.305C332.481 602.531 332.188 601.918 331.601 601.465C331.014 601.011 329.988 600.625 328.521 600.305L324.001 599.345C321.441 598.811 319.534 597.905 318.281 596.625C317.054 595.318 316.441 593.611 316.441 591.505C316.441 590.171 316.721 588.958 317.281 587.865C317.841 586.771 318.628 585.825 319.641 585.025C320.654 584.225 321.854 583.611 323.241 583.185C324.654 582.758 326.201 582.545 327.881 582.545C329.374 582.545 330.841 582.731 332.281 583.105C333.721 583.451 334.988 583.971 336.081 584.665C336.614 584.985 336.974 585.398 337.161 585.905C337.374 586.385 337.441 586.878 337.361 587.385C337.308 587.865 337.108 588.291 336.761 588.665C336.441 589.038 336.028 589.278 335.521 589.385C335.014 589.491 334.401 589.371 333.681 589.025C332.801 588.571 331.868 588.238 330.881 588.025C329.894 587.811 328.881 587.705 327.841 587.705C326.721 587.705 325.761 587.851 324.961 588.145C324.188 588.438 323.588 588.851 323.161 589.385C322.761 589.918 322.561 590.531 322.561 591.225C322.561 591.998 322.841 592.625 323.401 593.105C323.961 593.585 324.934 593.971 326.321 594.265L330.841 595.225C333.454 595.785 335.401 596.691 336.681 597.945C337.961 599.171 338.601 600.798 338.601 602.825C338.601 604.158 338.334 605.371 337.801 606.465C337.268 607.531 336.494 608.451 335.481 609.225C334.468 609.998 333.254 610.598 331.841 611.025C330.428 611.425 328.841 611.625 327.081 611.625ZM345.026 602.505C344.413 602.505 343.933 602.318 343.586 601.945C343.239 601.571 343.026 601.025 342.946 600.305L341.666 586.625C341.533 585.425 341.759 584.465 342.346 583.745C342.933 582.998 343.826 582.625 345.026 582.625C346.173 582.625 347.039 582.998 347.626 583.745C348.213 584.465 348.439 585.425 348.306 586.625L347.026 600.305C346.946 601.025 346.733 601.571 346.386 601.945C346.066 602.318 345.613 602.505 345.026 602.505ZM345.026 611.385C343.959 611.385 343.106 611.065 342.466 610.425C341.853 609.785 341.546 608.958 341.546 607.945C341.546 606.958 341.853 606.158 342.466 605.545C343.106 604.905 343.959 604.585 345.026 604.585C346.093 604.585 346.919 604.905 347.506 605.545C348.119 606.158 348.426 606.958 348.426 607.945C348.426 608.958 348.119 609.785 347.506 610.425C346.919 611.065 346.093 611.385 345.026 611.385ZM355.416 602.505C354.803 602.505 354.323 602.318 353.976 601.945C353.63 601.571 353.416 601.025 353.336 600.305L352.056 586.625C351.923 585.425 352.15 584.465 352.736 583.745C353.323 582.998 354.216 582.625 355.416 582.625C356.563 582.625 357.43 582.998 358.016 583.745C358.603 584.465 358.83 585.425 358.696 586.625L357.416 600.305C357.336 601.025 357.123 601.571 356.776 601.945C356.456 602.318 356.003 602.505 355.416 602.505ZM355.416 611.385C354.35 611.385 353.496 611.065 352.856 610.425C352.243 609.785 351.936 608.958 351.936 607.945C351.936 606.958 352.243 606.158 352.856 605.545C353.496 604.905 354.35 604.585 355.416 604.585C356.483 604.585 357.31 604.905 357.896 605.545C358.51 606.158 358.816 606.958 358.816 607.945C358.816 608.958 358.51 609.785 357.896 610.425C357.31 611.065 356.483 611.385 355.416 611.385Z" fill="#171D34"/>
<path d="M117.409 508.477C117.409 508.477 -20.5339 439.166 2.61966 388.201C16.2333 358.234 75.325 369.392 69.1082 319.519C60.958 254.128 -3.97953 210.084 33.4953 154.161C72.0817 96.582 168.416 165.264 262.575 104.334C323.352 65.0073 431.527 43.008 470.733 105.531C508.189 165.264 433.317 231.703 487.674 276.333C542.033 320.962 604.294 388.296 466.868 467.651C329.442 547.005 219.424 485.736 219.424 485.736" fill="#99C1FB"/>
<path d="M350.27 368.71C299.631 338.799 248.994 308.888 198.355 278.976C270.862 239.488 233.99 135.389 306.495 95.9014C357.133 125.812 407.77 155.724 458.41 185.635C385.904 225.124 422.777 329.222 350.27 368.71Z" fill="white"/>
<path d="M316.904 246.479C297.342 234.924 277.781 223.37 258.219 211.815C268.038 175.927 273.099 137.229 301.812 112.502C321.374 124.057 340.935 135.611 360.497 147.166C331.784 171.893 326.725 210.591 316.904 246.479Z" fill="#CADDFF"/>
<path d="M427.078 196.177C406.361 183.94 385.646 171.704 364.93 159.467C366.882 157.394 368.963 155.395 371.185 153.481C391.901 165.718 412.618 177.955 433.333 190.191C431.11 192.105 429.03 194.103 427.078 196.177Z" fill="#99C1FB"/>
<path opacity="0.6" d="M391.209 188.943C379.888 182.257 368.569 175.571 357.25 168.885C358.283 167.423 359.36 165.991 360.486 164.585C371.807 171.272 383.126 177.958 394.445 184.644C393.319 186.05 392.242 187.482 391.209 188.943Z" fill="#CADDFF"/>
<path d="M289.623 240.718C278.304 234.031 266.985 227.345 255.664 220.659C256.201 218.905 256.72 217.142 257.225 215.37C268.546 222.056 279.865 228.742 291.184 235.428C290.679 237.2 290.161 238.964 289.623 240.718Z" fill="#171D34"/>
<path d="M312.787 260.234C293.226 248.68 273.664 237.125 254.102 225.57C254.387 224.704 254.669 223.835 254.945 222.963C274.507 234.518 294.068 246.073 313.63 257.627C313.354 258.499 313.073 259.368 312.787 260.234Z" fill="#171D34"/>
<path d="M311.115 265.084C291.553 253.529 271.992 241.974 252.43 230.42C252.736 229.567 253.038 228.709 253.334 227.849C272.895 239.403 292.457 250.958 312.019 262.513C311.724 263.374 311.423 264.23 311.115 265.084Z" fill="#171D34"/>
<path d="M413.836 214.446C393.119 202.21 372.403 189.973 351.688 177.736C351.993 177.191 352.301 176.648 352.616 176.108C373.333 188.345 394.048 200.582 414.764 212.818C414.451 213.358 414.141 213.901 413.836 214.446Z" fill="#CADDFF"/>
<path d="M409.378 223.319C388.662 211.082 367.947 198.845 347.23 186.609C347.49 186.037 347.753 185.466 348.02 184.898C368.736 197.135 389.451 209.371 410.168 221.608C409.901 222.176 409.638 222.745 409.378 223.319Z" fill="#CADDFF"/>
<path d="M405.578 232.577C384.861 220.34 364.146 208.103 343.43 195.867C343.652 195.272 343.876 194.68 344.106 194.089C364.822 206.326 385.539 218.562 406.254 230.799C406.024 231.39 405.799 231.983 405.578 232.577Z" fill="#CADDFF"/>
<path d="M402.293 242.147C381.576 229.91 360.86 217.673 340.145 205.437C340.337 204.824 340.534 204.215 340.731 203.606C361.446 215.843 382.164 228.079 402.879 240.316C402.681 240.925 402.485 241.535 402.293 242.147Z" fill="#CADDFF"/>
<path d="M399.402 251.946C378.685 239.709 357.97 227.473 337.254 215.236C337.427 214.612 337.601 213.99 337.778 213.368C358.494 225.605 379.209 237.842 399.926 250.078C399.749 250.699 399.575 251.322 399.402 251.946Z" fill="#CADDFF"/>
<path d="M396.765 261.898C376.049 249.662 355.332 237.425 334.617 225.188C334.778 224.558 334.94 223.927 335.102 223.298C355.817 235.535 376.535 247.771 397.25 260.008C397.088 260.637 396.925 261.268 396.765 261.898Z" fill="#CADDFF"/>
<path d="M394.257 271.923C373.541 259.686 352.824 247.45 332.109 235.213C332.266 234.58 332.423 233.947 332.58 233.314C353.297 245.551 374.013 257.787 394.728 270.024C394.57 270.658 394.414 271.29 394.257 271.923Z" fill="#CADDFF"/>
<path d="M391.742 281.943C371.025 269.706 350.309 257.47 329.594 245.233C329.755 244.602 329.916 243.973 330.076 243.341C350.793 255.578 371.509 267.814 392.224 280.051C392.063 280.682 391.903 281.312 391.742 281.943Z" fill="#CADDFF"/>
<path d="M389.086 291.881C368.371 279.644 347.653 267.407 326.938 255.17C327.113 254.548 327.286 253.926 327.457 253.301C348.173 265.538 368.888 277.775 389.605 290.011C389.432 290.635 389.26 291.258 389.086 291.881Z" fill="#CADDFF"/>
<path d="M386.152 301.657C365.435 289.421 344.719 277.184 324.004 264.947C324.199 264.337 324.393 263.727 324.586 263.114C345.303 275.35 366.019 287.587 386.734 299.824C386.541 300.436 386.349 301.047 386.152 301.657Z" fill="#CADDFF"/>
<path d="M382.816 311.192C362.1 298.956 341.384 286.719 320.668 274.482C320.893 273.89 321.117 273.297 321.337 272.7C342.054 284.937 362.77 297.174 383.485 309.41C383.265 310.007 383.043 310.6 382.816 311.192Z" fill="#CADDFF"/>
<path d="M378.937 320.408C358.221 308.171 337.504 295.935 316.789 283.698C317.053 283.129 317.313 282.557 317.57 281.983C338.286 294.22 359.001 306.456 379.718 318.693C379.461 319.267 379.201 319.839 378.937 320.408Z" fill="#CADDFF"/>
<path d="M132.211 403.84H345.848L364.935 160.124H151.299L132.211 403.84Z" fill="#307FF4"/>
<path d="M128.188 395.976H345.011L360.913 152.26H171.899L128.188 395.976Z" fill="#73C3FD"/>
<path d="M346.331 403.763H133.931V172.914L159.304 147.542H346.331V403.763Z" fill="white" stroke="#171D34" stroke-width="1.23745"/>
<path d="M230.551 167.114H148.023V297.498H230.551V167.114Z" fill="#CADDFF"/>
<path d="M224.748 172.161L153.27 291.671" stroke="white" stroke-width="1.23745" stroke-miterlimit="10" stroke-linecap="round" stroke-linejoin="round"/>
<path d="M153.27 172.161L224.748 291.671" stroke="white" stroke-width="1.23745" stroke-miterlimit="10" stroke-linecap="round" stroke-linejoin="round"/>
<path d="M332.985 167.114H245.586V177.207H332.985V167.114Z" fill="#307FF4"/>
<path opacity="0.6" d="M293.341 185.278H245.586V191.753H293.341V185.278Z" fill="#CADDFF"/>
<path opacity="0.6" d="M195.78 301.814H148.023V308.29H195.78V301.814Z" fill="#CADDFF"/>
<path opacity="0.15" d="M230.551 311.137H148.023V314.374H230.551V311.137Z" fill="#CADDFF"/>
<path opacity="0.15" d="M230.551 317.22H148.023V320.458H230.551V317.22Z" fill="#CADDFF"/>
<path d="M332.985 202.138H245.586V204.408H332.985V202.138Z" fill="#CADDFF"/>
<path d="M332.985 214.135H245.586V216.405H332.985V214.135Z" fill="#CADDFF"/>
<path d="M332.985 226.133H245.586V228.403H332.985V226.133Z" fill="#CADDFF"/>
<path d="M332.985 238.13H245.586V240.4H332.985V238.13Z" fill="#CADDFF"/>
<path d="M332.985 250.125H245.586V252.395H332.985V250.125Z" fill="#CADDFF"/>
<path d="M332.985 262.122H245.586V264.392H332.985V262.122Z" fill="#CADDFF"/>
<path d="M332.985 274.119H245.586V276.389H332.985V274.119Z" fill="#CADDFF"/>
<path d="M332.985 286.116H245.586V288.386H332.985V286.116Z" fill="#CADDFF"/>
<path d="M332.985 298.111H245.586V300.381H332.985V298.111Z" fill="#CADDFF"/>
<path d="M332.985 310.108H245.586V312.379H332.985V310.108Z" fill="#CADDFF"/>
<path d="M332.985 322.106H245.586V324.376H332.985V322.106Z" fill="#CADDFF"/>
<path d="M332.985 334.103H245.586V336.373H332.985V334.103Z" fill="#CADDFF"/>
<path opacity="0.15" d="M346.904 350.992L240.684 345.811V336.501C240.684 328.592 234.28 322.178 226.371 322.165L133.309 322.021V338.37L252.431 393.085" fill="#171D34"/>
<path d="M235.521 351.263V352.191H236.449H409.74V509.885C409.74 524.982 397.501 537.221 382.404 537.221H142.745C127.648 537.221 115.409 524.982 115.409 509.885V366.571V351.263V327.383H224.257C230.478 327.383 235.521 332.426 235.521 338.647V351.263Z" fill="#5B9AF8" stroke="black" stroke-width="1.85617"/>
<path d="M432.436 446.672C399.82 477.895 347.879 476.763 316.656 444.147C285.432 411.531 286.565 359.591 319.181 328.367C351.797 297.144 403.737 298.277 434.962 330.893C466.184 363.508 465.053 415.449 432.436 446.672ZM420.584 344.655C396.949 319.965 357.634 319.106 332.943 342.743C308.255 366.378 307.397 405.694 331.032 430.385C354.668 455.075 393.982 455.932 418.673 432.296C443.363 408.659 444.22 369.346 420.584 344.655Z" fill="#F6BD3D" stroke="#171D34" stroke-width="1.23745"/>
<path d="M437.722 388.086C437.722 422.599 409.744 450.577 375.231 450.577C340.718 450.577 312.74 422.599 312.74 388.086C312.74 353.573 340.718 325.595 375.231 325.595C409.744 325.595 437.722 353.573 437.722 388.086Z" fill="#CADDFF" stroke="#171D34" stroke-width="1.23745"/>
<path d="M521.952 241.376C529.195 248.618 529.195 260.36 521.952 267.602L466.517 323.037L440.289 296.811L495.724 241.376C495.724 241.376 495.724 241.376 495.724 241.376C502.968 234.133 514.71 234.133 521.952 241.376Z" fill="#F6BD3D" stroke="#171D34" stroke-width="1.23745"/>
<path d="M444.668 295.722L467.603 318.658C470.299 321.354 470.299 325.768 467.603 328.464L453.332 342.735C450.636 345.432 446.222 345.432 443.525 342.735L420.59 319.8C417.894 317.104 417.894 312.69 420.59 309.994L434.861 295.722C434.861 295.722 434.861 295.722 434.862 295.722C437.558 293.028 441.972 293.028 444.668 295.722C444.668 295.722 444.668 295.722 444.668 295.722Z" fill="#171D34" stroke="#171D34" stroke-width="1.23745"/>
<path d="M158.425 172.038H134.802L158.425 148.416V172.038Z" fill="#FBFCFE" stroke="#171D34" stroke-width="1.23745"/>
<path d="M226.355 513.155H143.059C140.226 513.155 137.735 511.683 137.494 509.866L137.042 506.447C136.802 504.631 138.904 503.158 141.737 503.158H225.034C227.867 503.158 230.359 504.63 230.599 506.447L231.051 509.866C231.291 511.683 229.188 513.155 226.355 513.155Z" fill="#99C1FB"/>
<path d="M291.628 73.3693C291.218 73.1807 290.73 73.1845 290.306 73.4174C236.157 103.302 175.076 117.036 113.658 113.138C112.849 113.086 112.153 113.699 112.103 114.508C112.053 115.316 112.667 116.012 113.476 116.063C175.451 119.999 237.088 106.136 291.726 75.9814C292.438 75.5891 292.691 74.6993 292.302 73.9902C292.146 73.7046 291.907 73.4928 291.63 73.3653L291.628 73.3693Z" fill="#171D34"/>
<path d="M262.675 71.5174C262.301 71.3454 261.856 71.33 261.454 71.5148C222.562 89.2337 181.279 98.9933 138.746 100.526C137.934 100.556 137.306 101.234 137.337 102.046C137.367 102.857 138.047 103.486 138.859 103.456C181.777 101.911 223.433 92.0604 262.676 74.182C263.415 73.8461 263.736 72.9779 263.399 72.2395C263.246 71.9064 262.986 71.6557 262.681 71.5152L262.675 71.5174Z" fill="#171D34"/>
<path d="M93.6318 102.442C92.5791 101.958 91.4254 101.714 90.233 101.734C88.1428 101.769 86.1961 102.614 84.746 104.115C83.2958 105.616 82.5202 107.588 82.5576 109.676C82.595 111.764 83.4428 113.71 84.947 115.161C86.4472 116.609 88.4258 117.388 90.516 117.353C94.8249 117.279 98.2686 113.72 98.1896 109.415C98.1522 107.327 97.3043 105.381 95.8001 103.93C95.1563 103.308 94.4216 102.81 93.634 102.448L93.6318 102.442ZM88.3366 113.973C87.8424 113.746 87.3869 113.434 86.9822 113.044C86.0442 112.141 85.5133 110.924 85.4899 109.62C85.4666 108.316 85.9502 107.085 86.859 106.147C87.7619 105.211 88.9791 104.682 90.2842 104.66C91.5894 104.638 92.8222 105.122 93.7624 106.031C94.7005 106.935 95.2314 108.151 95.2547 109.455C95.304 112.142 93.1538 114.371 90.4604 114.415C89.7149 114.427 88.9916 114.275 88.3366 113.973Z" fill="#171D34"/>
<path d="M486.204 484.509C486.65 485.023 487.307 485.262 487.771 485.047C524.602 468.18 548.305 440.829 567.026 393.595C567.25 393.026 566.904 392.208 566.259 391.766C565.608 391.323 564.901 391.427 564.676 391.99C546.12 438.812 522.656 465.909 486.216 482.596C485.682 482.842 485.596 483.59 486.023 484.267C486.078 484.354 486.14 484.435 486.204 484.509Z" fill="#171D34"/>
<path d="M512.056 454.094C512.58 454.699 513.354 454.895 513.797 454.529C531.454 439.876 541.097 423.892 548.843 411.049C549.544 409.885 550.233 408.744 550.911 407.629C551.219 407.123 550.968 406.299 550.357 405.786C549.741 405.272 548.996 405.269 548.687 405.77C548.009 406.884 547.32 408.025 546.614 409.193C538.928 421.937 529.359 437.794 511.897 452.289C511.453 452.657 511.518 453.46 512.041 454.078L512.056 454.094Z" fill="#171D34"/>
<path d="M69.8089 380.759C69.5966 380.759 69.3798 380.711 69.172 380.614C68.4421 380.26 68.1325 379.386 68.4864 378.657L71.7772 371.829C72.131 371.1 73.0068 370.795 73.7366 371.144C74.4664 371.498 74.776 372.372 74.4222 373.101L71.1314 379.929C70.8793 380.455 70.3529 380.759 69.8089 380.759Z" fill="#171D34"/>
<path d="M62.1409 396.668C61.9286 396.668 61.7119 396.62 61.504 396.522C60.7742 396.173 60.4646 395.295 60.8184 394.566L64.1092 387.738C64.463 387.009 65.3388 386.704 66.0687 387.053C66.7985 387.402 67.1081 388.281 66.7542 389.01L63.4634 395.838C63.2113 396.363 62.685 396.668 62.1409 396.668Z" fill="#171D34"/>
<path d="M63.0767 383.114C62.8644 383.114 62.6477 383.065 62.4398 382.968L55.6016 379.682C54.8718 379.333 54.5622 378.454 54.9161 377.725C55.2655 376.997 56.1457 376.692 56.8755 377.041L63.7136 380.327C64.4435 380.68 64.7531 381.555 64.3992 382.283C64.1471 382.809 63.6208 383.114 63.0767 383.114Z" fill="#171D34"/>
<path d="M79.0103 390.772C78.798 390.772 78.5813 390.724 78.3734 390.627L71.5352 387.341C70.8054 386.987 70.4958 386.113 70.8497 385.384C71.2035 384.655 72.0793 384.351 72.8091 384.7L79.6472 387.986C80.377 388.334 80.6867 389.213 80.3328 389.942C80.0807 390.468 79.5543 390.772 79.0103 390.772Z" fill="#171D34"/>
<path d="M40.8107 421.583C39.6518 421.583 38.5018 421.322 37.427 420.805C33.5435 418.937 31.9025 414.264 33.7735 410.386C34.6802 408.505 36.2637 407.092 38.232 406.403C40.2047 405.714 42.3234 405.833 44.2076 406.738C46.0874 407.644 47.5072 409.225 48.1973 411.195C48.8873 413.165 48.7678 415.28 47.8611 417.162C46.9544 419.043 45.3709 420.456 43.3982 421.145C42.5534 421.441 41.6776 421.587 40.8107 421.587V421.583ZM40.8195 408.894C40.2755 408.894 39.7314 408.986 39.2006 409.172C37.971 409.6 36.9802 410.484 36.4141 411.658C35.2464 414.079 36.2725 417.003 38.6964 418.169C39.873 418.734 41.1999 418.809 42.4295 418.376C43.6591 417.948 44.6499 417.064 45.2161 415.89C45.7822 414.715 45.8574 413.394 45.424 412.162C44.9905 410.934 44.1059 409.945 42.9337 409.38C42.2614 409.057 41.5405 408.894 40.8195 408.894Z" fill="#171D34"/>
</svg>
