<svg width="70" height="70" viewBox="0 0 70 70" fill="none" xmlns="http://www.w3.org/2000/svg">
<path d="M49.2002 40.2518C49.1202 40.1453 49.0483 40.0492 48.9834 39.9626C48.4993 39.3167 48.3987 39.1826 48.2154 38.9384C48.0971 38.7807 47.9444 38.577 47.6316 38.1598C47.883 37.9086 48.2487 37.5429 48.693 37.0986L48.758 37.0336C48.7778 37.0138 48.7977 36.9939 48.8178 36.9738L48.8782 36.9134C48.8986 36.893 48.919 36.8727 48.9396 36.852C48.9603 36.8313 48.9809 36.8104 49.0019 36.7897C49.0225 36.7691 49.0437 36.7479 49.0647 36.727C49.1071 36.6846 49.1497 36.6416 49.1932 36.5984L49.2584 36.5332C49.2804 36.5112 49.3024 36.4892 49.3244 36.4672C49.3467 36.445 49.3689 36.4227 49.3912 36.4004C49.4135 36.3781 49.436 36.3556 49.4585 36.3331C49.4814 36.3103 49.5039 36.2877 49.5267 36.2649C49.5495 36.2418 49.5726 36.2188 49.5957 36.196L49.6652 36.1265C49.6882 36.1031 49.7118 36.0798 49.7352 36.0564C49.7585 36.0328 49.7821 36.0095 49.806 35.9856L49.8771 35.9145C49.901 35.8904 49.9249 35.8665 49.949 35.8426L50.0215 35.7701C50.0456 35.7457 50.07 35.7216 50.0945 35.6972C50.1189 35.6727 50.1433 35.6481 50.168 35.6236C50.2418 35.5499 50.3161 35.4753 50.3915 35.4001C50.4164 35.3749 50.4417 35.3497 50.4669 35.3247C50.5423 35.2491 50.6187 35.1726 50.6958 35.0959C50.7212 35.0701 50.747 35.0443 50.7728 35.0189C50.8082 34.9832 50.8436 34.9478 50.8793 34.9123C51.1285 34.6628 51.3832 34.4082 51.6402 34.1511C51.6408 34.1514 51.6429 34.153 51.6464 34.1557C51.6472 34.1565 51.6483 34.157 51.6493 34.1581C51.6526 34.1605 51.6566 34.1635 51.6614 34.167C51.8785 34.3298 53.6843 35.6837 53.7323 35.7197C53.736 35.6945 53.7956 35.2772 53.8662 34.7849C53.9714 34.0494 54.1004 33.1463 54.1026 33.1313H54.6258V24.6348H55.0315H59.9331L58.3959 22.9527L57.4981 21.9701L50.5455 14.3615L50.5447 14.3607L47.7486 11.3008L47.4489 11.6289L42.5287 17.0127L45.1349 19.8646L45.1352 19.8649L45.1354 19.8652L48.2028 23.2221L48.7762 23.8494C49.4682 24.6069 48.9284 25.8285 47.9037 25.8285H42.6111V36.7511C42.8287 36.9687 43.0259 37.1659 43.2052 37.3452C44.1529 38.2926 44.5977 38.7375 44.8711 39.0111C44.9334 39.0734 44.9865 39.1265 45.0348 39.1751C45.0429 39.1829 45.0509 39.1909 45.0587 39.199C45.0665 39.2065 45.0743 39.2143 45.0818 39.222C45.0904 39.2304 45.099 39.2389 45.1073 39.2475C45.1156 39.2556 45.1242 39.2642 45.1322 39.2725C45.1572 39.2972 45.1811 39.321 45.2049 39.3452C45.213 39.353 45.221 39.361 45.2291 39.3693C45.2371 39.3771 45.2452 39.3852 45.2532 39.3935C45.2613 39.4013 45.2693 39.4093 45.2776 39.4179C45.2835 39.4235 45.2892 39.4294 45.2951 39.4353L45.3026 39.4429C45.3117 39.4517 45.3206 39.4606 45.33 39.4702C45.3337 39.4737 45.3378 39.4777 45.3418 39.482C45.3498 39.4898 45.3579 39.4979 45.3659 39.5062C45.3699 39.5099 45.374 39.5142 45.3783 39.5185C45.3826 39.5225 45.3868 39.5268 45.3909 39.5311C45.3984 39.5386 45.4059 39.5462 45.4137 39.5539C45.4212 39.5615 45.4292 39.5692 45.437 39.5773L45.4419 39.5821C45.4563 39.5963 45.4711 39.6114 45.4867 39.6269C45.4915 39.6315 45.4966 39.6366 45.5017 39.6419C45.5068 39.6468 45.5119 39.6519 45.517 39.6572C45.521 39.6613 45.525 39.6653 45.5293 39.6696C45.5347 39.6747 45.5398 39.68 45.5452 39.6854C45.5462 39.6865 45.5476 39.6878 45.5486 39.6889C45.554 39.694 45.5594 39.6996 45.565 39.7053C45.5704 39.7106 45.5763 39.7163 45.5819 39.7222C45.5862 39.7265 45.5905 39.7308 45.5951 39.7353C45.6007 39.741 45.6066 39.7469 45.6125 39.7528C45.6318 39.7721 45.6519 39.7922 45.6729 39.8131C45.6839 39.8241 45.6951 39.8354 45.7067 39.8469L45.7335 39.8738C45.7453 39.8856 45.7571 39.8974 45.7695 39.9097C45.7528 39.932 45.6482 40.0715 45.4928 40.2789C45.4926 40.2795 45.4923 40.28 45.4918 40.2805C45.469 40.3109 45.4453 40.3425 45.4204 40.3755C45.408 40.3922 45.3952 40.4093 45.382 40.4268C45.3818 40.4273 45.3812 40.4278 45.3807 40.4286C45.3681 40.4453 45.3552 40.4625 45.342 40.4799C45.3386 40.4845 45.3353 40.489 45.3321 40.4933L45.3217 40.507C45.3149 40.5161 45.308 40.5252 45.301 40.5346C45.2801 40.5625 45.2586 40.5912 45.2369 40.6202C45.1572 40.7267 45.0721 40.8402 44.9836 40.958C44.9675 40.9795 44.9514 41.001 44.9353 41.0227C44.9023 41.0667 44.8687 41.1115 44.8352 41.1563C44.8191 41.1775 44.8033 41.1987 44.7874 41.2199C44.7536 41.265 44.7195 41.3103 44.6855 41.356C44.6694 41.3771 44.6533 41.3986 44.6374 41.4198C44.6334 41.4254 44.6291 41.4308 44.6254 41.4362C44.6154 41.4496 44.6052 41.4627 44.5953 41.4762C44.5846 41.4906 44.5736 41.5051 44.5623 41.5199C44.5457 41.5422 44.529 41.5642 44.5127 41.5864C44.5103 41.5897 44.5078 41.5926 44.5057 41.5958C44.4915 41.6146 44.4773 41.6337 44.463 41.6524C44.4384 41.6854 44.4139 41.7182 44.3895 41.7506C44.349 41.8048 44.309 41.8582 44.2696 41.9106C44.2618 41.921 44.254 41.9315 44.246 41.942C44.2264 41.968 44.2073 41.9937 44.1885 42.019C44.1518 42.0678 44.1161 42.1156 44.0812 42.162C44.078 42.166 44.0748 42.1703 44.0718 42.1743C44.0689 42.1786 44.0657 42.1826 44.0627 42.1867C44.0565 42.195 44.0506 42.203 44.0445 42.2111C44.0163 42.2489 43.9887 42.2857 43.9618 42.3211C43.9522 42.3342 43.9422 42.3474 43.9326 42.3603C43.9015 42.4018 43.8717 42.4416 43.8435 42.4791C43.8387 42.4858 43.8338 42.4923 43.8287 42.4987C43.8271 42.5006 43.8258 42.5025 43.8244 42.5043C43.8242 42.5046 43.8239 42.5051 43.8236 42.5054C43.8236 42.5057 43.8234 42.5057 43.8231 42.506C43.8231 42.5062 43.8228 42.5065 43.8228 42.5068H43.8226C43.8215 42.5084 43.8202 42.5097 43.8194 42.5113C43.8169 42.5145 43.8148 42.5175 43.8124 42.5204C43.8092 42.525 43.8059 42.5293 43.8024 42.5339C43.7957 42.5427 43.7893 42.5516 43.7829 42.5602C43.6535 42.7324 43.5677 42.8467 43.5521 42.8676C43.6208 43.0241 43.6863 43.1818 43.7482 43.341C44.4139 43.4362 46.107 43.6785 46.6117 43.7507V40.6221C46.821 40.5921 47.194 40.5387 47.5999 40.4807C48 40.4236 48.432 40.3618 48.7706 40.3133C48.9436 40.2886 49.0923 40.2671 49.2002 40.2518Z" fill="#73C3FD"/>
<path d="M20.7415 21.8393C20.7415 21.8393 20.7415 21.8395 20.7412 21.8395C20.7412 21.8398 20.7409 21.8398 20.7409 21.8401C19.2459 23.4762 18.2201 24.5986 18.178 24.6448H24.6522V35.5674C24.6675 35.5524 24.7989 35.4206 24.9514 35.2682C25.1684 35.0514 25.4279 34.7919 25.452 34.7678C25.6436 34.9111 28.2951 36.899 28.4102 36.9854C28.5664 36.9165 28.7244 36.851 28.8835 36.789C28.9042 36.6452 29.3858 33.2781 29.407 33.1295H36.6762C36.6921 33.2405 37.1423 36.3876 37.2 36.7917C37.3586 36.8534 37.5155 36.9184 37.6711 36.9868C38.0004 36.7399 40.5419 34.8346 40.6312 34.7675C41.5521 35.6887 41.2432 35.3796 41.4311 35.5674V24.6448H47.9053C47.8975 24.6362 47.7521 24.4771 47.4955 24.1964C47.264 23.9431 46.942 23.5906 46.5492 23.1607H46.5489C45.946 22.5007 45.176 21.6581 44.3104 20.7104L44.3101 20.7102C42.2784 18.4872 39.7197 15.687 37.5544 13.317L37.5539 13.3167C35.0704 10.599 33.1036 8.44652 33.0416 8.37891C33.0349 8.38615 32.8618 8.57558 32.5581 8.90802C32.366 9.11812 32.1216 9.38563 31.8342 9.70036C29.4263 12.3352 23.9822 18.2929 20.7417 21.839C20.7417 21.839 20.7417 21.8393 20.7415 21.8393Z" fill="#73C3FD"/>
<path d="M42.176 42.7312C42.2651 42.6123 44.1339 40.1197 44.2087 40.0199C44.205 40.0161 40.5215 36.3329 40.5178 36.3292L37.8046 38.3633C37.2669 38.0831 36.7029 37.85 36.1292 37.6691L35.6492 34.3125H30.4294L29.9496 37.6662C29.3878 37.8435 28.8267 38.073 28.2721 38.3619L25.5608 36.3292C25.5594 36.3305 25.5565 36.3335 25.5514 36.3386C25.5498 36.3402 25.5479 36.342 25.5457 36.3442C25.5455 36.3442 25.5455 36.3445 25.5455 36.3445C25.5433 36.3463 25.5412 36.3485 25.539 36.3509C25.5232 36.3667 25.4996 36.3903 25.469 36.4212C25.465 36.4252 25.461 36.4292 25.4569 36.4333C25.4526 36.4376 25.4483 36.4419 25.4441 36.4461C25.4387 36.4512 25.4331 36.4569 25.4274 36.4628C25.4215 36.4684 25.4156 36.4743 25.4097 36.4805L25.3268 36.5634C25.3217 36.5682 25.3166 36.5733 25.3115 36.5787C25.3064 36.5838 25.301 36.5892 25.2957 36.5945C25.253 36.6372 25.2058 36.6841 25.1551 36.7351C25.1486 36.7416 25.1422 36.748 25.1358 36.7544L25.1162 36.774C25.103 36.7872 25.0893 36.8006 25.0759 36.8143C25.0622 36.828 25.0483 36.8416 25.0343 36.8559C25.0274 36.8628 25.0204 36.8698 25.0131 36.8771C25.0059 36.8843 24.9986 36.8913 24.9914 36.8988C24.9477 36.9423 24.9023 36.9876 24.8554 37.0348C24.8398 37.0504 24.824 37.0662 24.8079 37.0823C24.7961 37.0939 24.7845 37.1057 24.7727 37.1175C24.7623 37.1279 24.7515 37.1387 24.7411 37.1491C24.7303 37.1599 24.7196 37.1706 24.7089 37.1813C24.6941 37.1961 24.6791 37.2111 24.6641 37.2261C24.6571 37.2329 24.6504 37.2398 24.6434 37.2468C24.6254 37.2648 24.6074 37.2828 24.5892 37.301C24.5849 37.305 24.5809 37.3093 24.5766 37.3136C24.5554 37.3348 24.5342 37.356 24.5127 37.3775C24.5111 37.3788 24.5098 37.3804 24.5084 37.3818C24.4854 37.4048 24.4623 37.4279 24.4389 37.4513L24.4038 37.4864C24.392 37.4982 24.3802 37.51 24.3684 37.5218C24.3641 37.5261 24.3598 37.5304 24.3552 37.535C24.3359 37.5543 24.3166 37.5736 24.297 37.5932C24.2729 37.6173 24.2487 37.6415 24.2246 37.6656C24.2004 37.6898 24.176 37.7142 24.1513 37.7389C24.1269 37.7633 24.1022 37.7877 24.0775 37.8127C24.0528 37.8374 24.0279 37.8621 24.0032 37.887C23.8787 38.0112 23.7526 38.1373 23.627 38.2629C22.7585 39.1312 21.9157 39.974 21.8698 40.0199C21.8819 40.036 21.942 40.1162 22.0348 40.2399C22.0348 40.2401 22.0351 40.2401 22.0351 40.2404C22.0397 40.2463 22.044 40.2522 22.0485 40.2584C22.0517 40.2624 22.0547 40.2662 22.0576 40.2702C22.0732 40.2911 22.0898 40.3131 22.1067 40.3359C22.1118 40.3429 22.1169 40.3499 22.1223 40.3569C22.1261 40.3614 22.1295 40.366 22.133 40.3708C22.1454 40.3874 22.1583 40.4046 22.1714 40.4221C22.1827 40.4371 22.1942 40.4524 22.2057 40.4679C22.2127 40.4771 22.2197 40.4862 22.2267 40.4956C22.2337 40.505 22.2406 40.5146 22.2479 40.524C22.2581 40.5374 22.2683 40.5511 22.2785 40.5648C22.2911 40.5817 22.304 40.5989 22.3168 40.6163C22.3426 40.6504 22.3689 40.6858 22.396 40.7218C22.4639 40.8122 22.5355 40.9077 22.609 41.0059C22.6163 41.0158 22.6238 41.0255 22.631 41.0354C22.6458 41.0553 22.6608 41.0751 22.6758 41.095C22.6834 41.1049 22.6909 41.1151 22.6984 41.125C22.7198 41.1535 22.741 41.1819 22.7625 41.2106C22.7671 41.2168 22.7716 41.2227 22.7762 41.2289C22.788 41.2447 22.7998 41.2605 22.8116 41.2764C22.8194 41.2866 22.8269 41.2968 22.8347 41.307C22.9044 41.3998 22.9745 41.4932 23.0432 41.5852C23.0574 41.604 23.0713 41.6225 23.0853 41.641C23.0907 41.6483 23.096 41.6555 23.1014 41.6628C23.1483 41.7253 23.1945 41.787 23.2398 41.8474C23.2543 41.8664 23.2685 41.8855 23.2828 41.9045C23.3185 41.952 23.3533 41.9987 23.3874 42.044C23.3987 42.0591 23.4097 42.0741 23.421 42.0888C23.4228 42.0913 23.4247 42.0939 23.4269 42.0966C23.4333 42.1052 23.4397 42.1141 23.4464 42.1226C23.4658 42.1487 23.4851 42.1742 23.5036 42.1991C23.5237 42.2259 23.5433 42.252 23.5624 42.2775C23.572 42.2906 23.5819 42.3035 23.5913 42.3161C23.6206 42.355 23.6482 42.392 23.674 42.4264C23.6831 42.4385 23.6919 42.4503 23.7003 42.4615C23.7035 42.4656 23.7067 42.4698 23.7097 42.4739C23.7161 42.4825 23.7223 42.4908 23.7284 42.4991C23.7682 42.5517 23.802 42.597 23.8293 42.6338C23.832 42.6373 23.8347 42.6408 23.8371 42.644C23.8645 42.6805 23.8846 42.7073 23.8961 42.7226C23.8975 42.7247 23.8988 42.7264 23.9002 42.728C23.9015 42.7301 23.9028 42.7317 23.9039 42.7331C23.8682 42.802 23.8331 42.8712 23.7985 42.9413C23.788 42.9625 23.7775 42.9839 23.7673 43.0054C23.7604 43.0194 23.7537 43.0333 23.747 43.0475C23.7376 43.0671 23.7282 43.087 23.7191 43.1068C23.703 43.1406 23.6871 43.1744 23.6718 43.2085C23.6624 43.2281 23.6536 43.248 23.6447 43.2678C23.6294 43.3014 23.6147 43.3352 23.5999 43.369C23.5895 43.3923 23.5793 43.4159 23.5693 43.4395C23.5672 43.4449 23.5648 43.45 23.5626 43.4554C23.5527 43.4785 23.5428 43.5015 23.5331 43.5249C23.5315 43.5292 23.5296 43.5332 23.528 43.5375C23.52 43.5568 23.5119 43.5761 23.5041 43.5954C23.4961 43.6148 23.4883 43.6343 23.4802 43.6539C23.48 43.6547 23.4797 43.6553 23.4794 43.6561C23.3807 43.9013 23.2908 44.1525 23.2101 44.4084C23.1693 44.4143 21.7397 44.6188 20.7595 44.7591C20.254 44.8313 19.8676 44.8866 19.8531 44.8887V50.1083C19.8853 50.1128 20.2146 50.1601 20.657 50.2234C20.9854 50.2703 21.3764 50.3261 21.7536 50.3803C22.4142 50.4745 23.0338 50.5633 23.2071 50.588C23.3037 50.8944 23.414 51.195 23.5385 51.4898C23.6488 51.7528 23.77 52.0114 23.9026 52.2655L23.6756 52.5685H23.6753L21.8698 54.9769L24.0526 57.1596L25.5608 58.6678L25.7494 58.5264H25.7497L26.6356 57.8621L28.274 56.6337C28.8112 56.9136 29.3719 57.1457 29.9494 57.3279L30.0266 57.8677L30.2118 59.1629L30.4294 60.6845H35.6492L35.6639 60.582L36.1289 57.3305C36.7069 57.1481 37.2658 56.9168 37.8065 56.6351L38.8049 57.3837L39.8516 58.1682L40.5178 58.6678L41.3724 57.8132L42.1556 57.03L44.2087 54.9769L42.1746 52.2637C42.4542 51.7268 42.6866 51.166 42.8685 50.5886C42.9442 50.5778 43.7652 50.4603 44.5777 50.3441C45.3574 50.2325 46.1291 50.1222 46.2254 50.1083V44.8887C46.2254 44.8887 42.9557 44.4208 42.8715 44.409C42.6898 43.8334 42.4572 43.2713 42.176 42.7312ZM34.1694 54.148C33.8018 54.2103 33.4243 54.2428 33.0393 54.2428C29.3204 54.2428 26.2949 51.2172 26.2949 47.4984C26.2949 43.7763 29.3236 40.7542 33.0393 40.7542C33.2172 40.7542 33.3935 40.7612 33.5679 40.7746C33.5679 40.7746 33.5679 40.7746 33.5681 40.7746C35.1466 40.8978 36.5741 41.5667 37.6618 42.5919L37.6621 42.5922C38.9677 43.823 39.7837 45.5676 39.7837 47.4984C39.7837 49.2132 39.1403 50.7804 38.0826 51.972C38.0823 51.9723 38.0817 51.9725 38.0815 51.9728C37.0828 53.097 35.7149 53.8862 34.1697 54.148H34.1694Z" fill="#73C3FD"/>
<path d="M63.7548 41.3134C63.633 40.9278 63.475 40.5388 63.2724 40.1503C63.3344 40.0676 64.6301 38.3391 64.6819 38.2702C64.6593 38.2474 62.1495 35.7375 62.1227 35.7107L60.5334 36.902L60.2412 37.1212C59.8685 36.927 59.4773 36.7654 59.0797 36.6401L59.0282 36.2793L58.7467 34.3125H55.1271L54.7944 36.638C54.4056 36.7606 54.015 36.9205 53.6313 37.1204L51.7512 35.7107L50.3355 37.1263C50.0197 37.4421 49.7152 37.7469 49.4997 37.9624C49.3224 38.1398 49.2054 38.2568 49.192 38.2702C49.2057 38.2881 49.3095 38.4271 49.4557 38.6219C49.5097 38.6941 49.5695 38.7738 49.6328 38.858C49.6406 38.8685 49.6487 38.8792 49.6567 38.89C49.7444 39.007 49.8378 39.1317 49.9307 39.2554C49.9392 39.2667 49.9476 39.278 49.9559 39.2892C49.9824 39.3246 50.0087 39.3598 50.0345 39.3941C50.071 39.4427 50.1069 39.4905 50.1418 39.5372C50.1697 39.5742 50.1968 39.6107 50.2234 39.6458C50.4252 39.9149 50.5816 40.124 50.6022 40.1516C50.4142 40.5127 50.251 40.901 50.1212 41.3131C50.0989 41.3164 49.4877 41.4038 48.8971 41.4883C48.3433 41.5672 47.808 41.644 47.7935 41.6461V45.2654C47.8263 45.27 48.3052 45.3387 48.8231 45.413C49.3763 45.4919 49.9739 45.5775 50.119 45.5981C50.1466 45.6856 50.1762 45.7728 50.2073 45.8589C50.3176 46.1683 50.449 46.4688 50.6014 46.7616L50.0447 47.5043L49.192 48.6417L51.7512 51.2009L53.2521 50.0755L53.6326 49.7903C53.8153 49.8856 54.0021 49.9728 54.1923 50.0519H54.1926C54.3895 50.1343 54.5905 50.2075 54.7942 50.2717L55.1271 52.5993H58.7467L58.9732 51.0171L59.0794 50.2736C59.4722 50.1496 59.8522 49.9932 60.22 49.8029C60.2276 49.7992 60.2351 49.7954 60.2426 49.7914L60.2533 49.7994L61.381 50.6449L62.1227 51.2009L64.6819 48.6417L64.1042 47.8711L63.2713 46.7602C63.4656 46.3878 63.6266 45.999 63.7527 45.5984C63.8555 45.5839 65.9438 45.285 66.0803 45.2654V44.9547V43.3813V43.0829V41.9756V41.6461C66.0803 41.6461 63.8131 41.3217 63.7548 41.3134ZM61.5962 43.8581C61.3918 46.2491 59.3802 48.1324 56.9369 48.1324C56.8556 48.1324 56.7749 48.1302 56.6946 48.1262C56.1411 48.0978 55.6125 47.9727 55.1261 47.7675C53.5304 47.0948 52.3831 45.5608 52.2698 43.7513C52.1915 42.5007 52.6111 41.3317 53.3646 40.4406C53.7174 40.0233 54.1435 39.6667 54.6257 39.3915C54.6691 39.3668 54.7129 39.3426 54.7566 39.3193C55.459 38.9463 56.1988 38.7751 56.9216 38.7751C58.9268 38.7749 60.8034 40.0926 61.4095 42.0752C61.4098 42.0754 61.4095 42.0754 61.4095 42.0754C61.5415 42.5063 61.6134 42.9686 61.6134 43.4559C61.6134 43.5914 61.6075 43.7255 61.5962 43.8581Z" fill="#73C3FD"/>
<path d="M16.788 41.4317C16.3517 41.3692 15.9844 41.3166 15.9613 41.3134C15.8395 40.9278 15.6815 40.5388 15.4789 40.1503C15.5156 40.1012 15.9879 39.4711 16.3761 38.9533C16.6412 38.5997 16.8674 38.2983 16.8884 38.2702C16.8717 38.2533 15.4971 36.8787 14.7697 36.1513C14.5124 35.894 14.3361 35.7177 14.3292 35.7107L12.6232 36.9898L12.4477 37.1212C12.067 36.9229 11.6736 36.7622 11.2862 36.6401L10.9532 34.3125H10.4949H7.33362L7.05967 36.228L7.00091 36.638C6.90243 36.6691 6.80396 36.7024 6.70549 36.7381C6.4149 36.8441 6.12512 36.9707 5.83775 37.1204L3.95766 35.7107C3.84792 35.8204 1.46232 38.206 1.39846 38.2702C1.43281 38.316 2.04537 39.1333 2.45268 39.6764C2.64345 39.9308 2.78888 40.1248 2.809 40.1516C2.62064 40.5127 2.45751 40.901 2.32764 41.3131C2.30671 41.3164 1.75157 41.3955 1.18891 41.476C0.606126 41.5595 0.0150257 41.644 0 41.6461V45.2654C0.0104643 45.267 0.0673483 45.2751 0.156966 45.288C0.385303 45.3207 0.825878 45.3838 1.25331 45.4449C1.7352 45.5136 2.19993 45.5802 2.3255 45.5981C2.45241 45.9998 2.61313 46.3873 2.80793 46.7616L1.5726 48.4093L1.39846 48.6417L2.61045 49.8536L3.07973 50.3229L3.86322 51.1064L3.95766 51.2009L5.8391 49.7903C6.21152 49.9843 6.60031 50.1456 7.00064 50.2717L7.33362 52.5993H10.9532L11.2414 50.5843L11.2859 50.2736C11.6868 50.1472 12.0742 49.9867 12.4491 49.7914L12.7896 50.0466L14.3292 51.2009L16.8884 48.6417L15.4781 46.7602C15.6721 46.3878 15.8331 45.999 15.9592 45.5984C16.0619 45.5839 18.1502 45.285 18.2868 45.2654V41.6461C18.2868 41.6461 18.198 41.6335 18.0547 41.6128C17.7607 41.5707 17.2377 41.4961 16.788 41.4317ZM13.8105 43.7513C13.7976 43.9571 13.7713 44.1594 13.7324 44.3574C13.3112 46.5061 11.4139 48.1324 9.14341 48.1324C8.52843 48.1324 7.94082 48.013 7.40257 47.7964C6.84367 47.5713 6.3379 47.2416 5.90966 46.831C5.021 45.9794 4.46693 44.7811 4.46693 43.4559C4.46693 41.9364 5.16535 40.6573 6.20615 39.8223C6.63948 39.4743 7.13238 39.2036 7.65882 39.0246C8.13749 38.8618 8.64407 38.7748 9.15897 38.7748C9.92689 38.7748 10.7133 38.9683 11.4547 39.3914C12.6468 40.0719 13.4853 41.2407 13.7391 42.5892V42.5895C13.81 42.9652 13.8355 43.3545 13.8105 43.7513Z" fill="#73C3FD"/>
<path d="M19.4683 43.7507C19.5896 43.7332 19.9502 43.6817 20.6336 43.584C21.065 43.5221 21.6247 43.4421 22.3344 43.3407C22.3959 43.1821 22.4611 43.0251 22.5295 42.8695C22.1946 42.4228 21.915 42.0498 21.6478 41.6935C21.6475 41.6932 21.6473 41.693 21.647 41.6927C21.647 41.6924 21.6465 41.6919 21.6462 41.6916C21.6462 41.6913 21.6457 41.6908 21.6454 41.6905C21.5193 41.522 21.3956 41.3573 21.2703 41.1904C20.9789 40.8016 20.6776 40.3999 20.3102 39.9097C21.2483 38.9717 20.8767 39.3433 23.4689 36.7511V25.8285H18.1763C18.0599 25.8285 17.9499 25.8127 17.8471 25.7837C17.4186 25.6629 17.1181 25.3109 17.0242 24.9074C16.9423 24.5545 17.018 24.162 17.3038 23.8494L19.8233 21.0924L19.8235 21.0919L23.5512 17.0127L23.2185 16.6486L18.3314 11.3008L17.2367 12.4988L16.5125 13.2914L13.8546 16.2L7.10105 23.5905L7.10078 23.591L7.10051 23.5913L7.10024 23.5915L6.14691 24.6348H11.4542V33.1313H11.9774C11.9809 33.1565 12.3388 35.6569 12.3477 35.7197C12.3984 35.6816 14.4178 34.1675 14.4398 34.1511C15.1953 34.9067 14.9104 34.6217 18.4484 38.1598C18.2464 38.4294 18.117 38.6014 18.0059 38.7498C17.9976 38.7608 17.9896 38.7715 17.9815 38.7823C17.9719 38.7951 17.9622 38.808 17.9526 38.8209C17.9512 38.8228 17.9499 38.8244 17.9485 38.8263C17.9383 38.84 17.9281 38.8536 17.9179 38.8671C17.9118 38.8751 17.9059 38.8831 17.9 38.8912C17.8892 38.9054 17.8785 38.9199 17.8675 38.9344C17.8514 38.9559 17.835 38.9779 17.8181 39.0001C17.8128 39.0074 17.8071 39.0149 17.8012 39.0227C17.7956 39.0302 17.79 39.0377 17.7841 39.0455C17.739 39.1059 17.6904 39.1705 17.6351 39.244C17.6306 39.2502 17.626 39.2564 17.6215 39.2626C17.6107 39.277 17.5997 39.2915 17.5884 39.3066C17.582 39.3151 17.5756 39.3237 17.5691 39.3323C17.5246 39.3919 17.4758 39.4571 17.4208 39.5301C17.4189 39.5327 17.417 39.5354 17.4149 39.5381C17.4132 39.5405 17.4114 39.5429 17.4095 39.5456C17.4095 39.5456 17.4095 39.5456 17.4092 39.5459C17.4089 39.5459 17.4089 39.5462 17.4087 39.5464C17.4047 39.5518 17.4004 39.5572 17.3963 39.5628C17.3888 39.573 17.381 39.5832 17.3733 39.5939C17.3692 39.599 17.3655 39.6041 17.3615 39.6095C17.3574 39.6148 17.3534 39.6202 17.3494 39.6256C17.3443 39.6326 17.3389 39.6395 17.3335 39.6465C17.3231 39.6607 17.3124 39.6749 17.3013 39.6897C17.3 39.6916 17.2984 39.6937 17.2968 39.6959C17.1822 39.8483 17.0462 40.0299 16.8798 40.2518C17.0124 40.2709 17.2104 40.2991 17.4409 40.3321C17.5131 40.3423 17.5882 40.3533 17.6655 40.3643C17.6923 40.368 17.7197 40.372 17.747 40.3758C17.7623 40.3782 17.7781 40.3804 17.7937 40.3825C17.8251 40.3871 17.8568 40.3916 17.8887 40.3962C17.8933 40.3967 17.8981 40.3975 17.9029 40.3983C17.9297 40.4021 17.9568 40.4058 17.9839 40.4099C17.9839 40.4099 17.9842 40.4099 17.9845 40.4099C18.0113 40.4136 18.0384 40.4174 18.0652 40.4214C18.0706 40.4222 18.0757 40.423 18.0811 40.4236C18.1133 40.4284 18.1457 40.4329 18.1782 40.4375C18.2104 40.4421 18.2429 40.4469 18.2751 40.4515C18.2904 40.4536 18.3057 40.4557 18.321 40.4582C18.322 40.4582 18.3228 40.4582 18.3236 40.4584C18.3397 40.4606 18.3556 40.463 18.3717 40.4651C18.398 40.4692 18.4237 40.4727 18.4497 40.4764C18.4677 40.4788 18.4854 40.4815 18.5031 40.4842C18.5388 40.4893 18.574 40.4944 18.6089 40.4992C18.64 40.5035 18.6706 40.5081 18.7009 40.5124C18.7033 40.5126 18.7057 40.5132 18.7081 40.5134C19.0242 40.5585 19.3014 40.5982 19.4683 40.6221V42.0066V43.7507Z" fill="#73C3FD"/>
<path d="M34.0881 41.7842C35.3844 41.6444 36.6275 41.9554 37.6605 42.5907C36.5727 41.5655 35.1453 40.8966 33.5668 40.7734C33.5665 40.7734 33.5665 40.7734 33.5665 40.7734C30.0838 41.3627 27.6062 44.5816 27.9904 48.1454C28.3435 51.42 30.9974 53.8992 34.1681 54.1468H34.1684C35.7136 53.885 37.0815 53.0959 38.0801 51.9716C37.2942 52.5582 36.3468 52.9485 35.3036 53.061C32.1946 53.3961 29.3926 51.1393 29.0575 48.0303C28.7223 44.9213 30.9792 42.1193 34.0881 41.7842Z" fill="#171D34"/>
<path d="M6.70435 36.7366C6.80282 36.7009 6.90129 36.6677 6.99976 36.6366L7.05852 36.2266C6.89431 36.3567 6.76981 36.5335 6.70435 36.7366Z" fill="#171D34"/>
<path d="M6.5387 40.0197C6.89959 39.7793 7.26933 39.5794 7.64363 39.4155L7.65731 39.0234C7.13088 39.2024 6.63798 39.4731 6.20465 39.8211L6.5387 40.0197Z" fill="#171D34"/>
<path d="M66.0821 43.3771V44.9506L66.282 45.1649L64.1059 47.8669L64.0118 47.9839L61.9914 46.784C61.6396 47.0182 61.2715 47.2194 60.8864 47.3882L60.8049 49.736L60.2551 49.7953L60.2218 49.7988L57.2065 50.124L56.6964 48.122L56.6258 47.8454C56.2142 47.7628 55.8104 47.6444 55.4192 47.4912L55.1278 47.7633L53.6998 49.0955L50.8812 46.825L52.0811 44.8046C51.8471 44.4536 51.6459 44.0855 51.4768 43.6999C51.193 43.69 49.1972 43.6208 49.1288 43.6184C49.1159 43.4968 49.0006 42.4265 48.8989 41.4842C48.8487 41.0173 48.8017 40.5816 48.7722 40.3084C48.7545 40.1431 48.743 40.0374 48.7411 40.0197C48.747 40.0184 48.8398 39.9948 48.985 39.9577C49.2796 39.8826 49.7894 39.7527 50.2252 39.6416C50.1986 39.6065 50.1715 39.57 50.1436 39.533C50.1087 39.4863 50.0727 39.4385 50.0363 39.39C50.0105 39.3556 49.9842 39.3205 49.9576 39.2851C49.9493 39.2738 49.941 39.2625 49.9324 39.2513C49.8396 39.1276 49.7462 39.0028 49.6585 38.8858C49.6504 38.8751 49.6424 38.8643 49.6346 38.8539C49.5713 38.7696 49.5114 38.6899 49.4575 38.6178C49.0832 38.713 48.6198 38.8311 48.2171 38.9336C47.9023 39.0138 47.6249 39.0846 47.4561 39.1276C47.4615 39.1758 47.5286 39.7994 47.6016 40.4758C47.6893 41.2907 47.7856 42.1823 47.7915 42.2381C47.5672 42.2304 47.1113 42.2145 46.6133 42.1974C45.979 42.1754 45.2769 42.1509 44.9004 42.1378C44.8218 41.9862 44.74 41.8362 44.6546 41.6881C44.6874 41.6331 45.0767 40.9776 45.4934 40.2757C45.4939 40.2751 45.4942 40.2746 45.4945 40.2741C45.5744 40.1394 45.6555 40.0031 45.7351 39.8689C46.1408 39.1858 46.5122 38.5606 46.5425 38.5096C45.5224 37.6878 46.1873 38.2233 43.0638 35.7076L42.6128 31.5235L41.8931 24.848L43.8073 24.6417L47.1551 24.2808C47.278 24.2677 47.3917 24.2374 47.4956 24.1933C47.9061 24.0203 48.1623 23.6318 48.2045 23.2172C48.2404 22.8649 48.1213 22.4938 47.8106 22.2196L45.1371 19.8603L45.1368 19.86L45.1365 19.8598L40.8666 16.0918L45.4438 9.85319L47.4505 11.6241L50.5463 14.3558L50.5471 14.3566L58.9873 21.8048L57.4997 21.9652L58.3975 22.9478L59.1024 22.8719C59.5253 22.8263 59.8813 22.5352 60.0101 22.13C60.1389 21.7246 60.0163 21.2813 59.6975 20.9998L46.154 9.04851C45.9281 8.84915 45.6284 8.7539 45.3289 8.7861C45.0292 8.81857 44.7569 8.97526 44.5784 9.21836L40.001 15.457C39.9988 15.4602 39.9964 15.4637 39.9943 15.4669C39.5207 15.0491 39.045 14.6292 38.5733 14.2131L37.5545 13.3139C39.7198 15.684 42.2784 18.4841 44.3101 20.7071L44.3104 20.7074C45.9179 22.1257 47.0054 23.0855 47.0284 23.1059L46.5492 23.1576H46.549L40.5915 23.7997L41.4311 31.5879L41.7622 34.6593C41.609 34.5359 41.7555 34.6542 41.4311 34.3928C41.3171 34.3011 41.1451 34.1624 40.8813 33.9499C40.7995 34.0261 38.4769 36.1927 38.1759 36.4734C38.0141 36.4221 37.8509 36.3741 37.6867 36.3301C37.5861 35.9343 36.801 32.8538 36.7734 32.7449C36.6336 32.7599 34.9448 32.9421 33.2335 33.1264C31.4892 33.3145 29.7215 33.505 29.546 33.524C29.5409 33.674 29.4229 37.0733 29.4178 37.2188C29.2662 37.2974 29.1162 37.3792 28.9681 37.4645C28.8444 37.391 25.9951 35.6987 25.7896 35.5767C25.7531 35.622 25.1124 36.4173 25.0799 36.4575L24.9514 35.2651L24.6522 32.4899L23.9092 25.598L21.8158 25.8236L17.4723 26.2918C17.486 26.2731 17.6194 26.0914 17.8488 25.7788C18.0549 25.4979 18.3385 25.1113 18.6832 24.6417C19.236 23.888 19.9451 22.9221 20.741 21.837C20.741 21.8367 20.7412 21.8367 20.7412 21.8365C20.7415 21.8365 20.7415 21.8362 20.7415 21.8362C20.7418 21.8362 20.7418 21.8359 20.7418 21.8359C24.591 16.5895 30.4698 8.57735 30.5071 8.52637C30.5393 8.55481 31.0341 8.99163 31.8342 9.6973C32.1216 9.38256 32.366 9.11505 32.5581 8.90496L31.2174 7.72169C30.9912 7.52233 30.6917 7.42708 30.392 7.45927C30.0923 7.49174 29.8202 7.64844 29.6418 7.89153L29.546 8.0222C28.9909 8.77859 26.1183 12.6939 23.2202 16.6437C23.0525 16.8723 22.8845 17.1009 22.7171 17.3293C22.7142 17.3266 22.7112 17.3236 22.7083 17.321L17.2384 12.494L16.9065 12.2012C16.6805 12.0019 16.3811 11.9066 16.0814 11.9388C15.7817 11.9713 15.5093 12.128 15.3309 12.3711L7.10272 23.5856L7.10246 23.5861L7.10219 23.5864L7.10192 23.5867L6.33641 24.6299L4.64575 26.9342C4.39407 27.2771 4.36858 27.7362 4.58109 28.1049C4.79333 28.4733 5.20305 28.6817 5.62591 28.6361L9.83579 28.1824L10.4961 34.3083H10.9544L11.2874 36.636C11.6748 36.7581 12.0682 36.9188 12.4489 37.1171L12.6244 36.9856C12.4425 36.2705 12.2222 35.4063 12.2184 35.3918L11.6984 35.4479L10.7878 27.0002L5.51107 27.569L7.66753 24.6299L13.8562 16.1951L16.1962 13.0059L16.5142 13.2866L21.998 18.1256L19.8252 21.0871L19.8249 21.0876L17.0259 24.9025L16.5195 25.5926C15.9134 26.4188 16.5788 27.5768 17.599 27.4668L22.8609 26.8996L23.4705 32.5546L24.0316 37.7591C23.8875 37.9381 23.7536 38.1042 23.6294 38.2587C22.7134 39.3959 22.3069 39.9008 22.0372 40.2357C21.7686 40.5687 21.6355 40.734 21.272 41.1855C21.3973 41.3524 21.521 41.5172 21.6471 41.6857C21.6473 41.686 21.6479 41.6865 21.6479 41.6868C21.6481 41.687 21.6487 41.6876 21.6487 41.6878C21.6489 41.6881 21.6492 41.6884 21.6495 41.6886C22.3055 42.3913 22.7981 42.9194 23.4818 43.6519C23.5687 43.7455 23.6592 43.8424 23.7533 43.9433C23.7021 44.1051 23.6543 44.2682 23.6101 44.4324C21.8153 44.8896 20.998 45.0979 20.8043 45.1472C20.8019 45.1255 20.786 44.9768 20.7619 44.7549C20.7294 44.4528 20.6822 44.0152 20.6352 43.5792C19.9518 43.6769 19.5912 43.7284 19.4699 43.7458V42.0018C19.0659 41.9878 18.629 41.9728 18.288 41.961C18.1128 41.9548 17.9628 41.9497 17.8558 41.9459C17.929 41.8225 17.9956 41.7106 18.0559 41.6087C18.4125 41.0087 18.5647 40.7527 18.7098 40.5086C18.7074 40.5083 18.705 40.5078 18.7026 40.5075C18.6722 40.5032 18.6417 40.4986 18.6105 40.4944C18.5757 40.4895 18.5405 40.4844 18.5048 40.4793C18.4871 40.4767 18.4694 40.474 18.4514 40.4715C18.4254 40.4678 18.3996 40.4643 18.3733 40.4603C18.3572 40.4581 18.3414 40.4557 18.3253 40.4536C18.3245 40.4533 18.3237 40.4533 18.3226 40.4533C18.3073 40.4509 18.292 40.4487 18.2767 40.4466C18.2446 40.442 18.2121 40.4372 18.1799 40.4326C18.1474 40.4281 18.115 40.4235 18.0828 40.4187C18.0774 40.4182 18.0723 40.4174 18.0669 40.4165C18.0401 40.4125 18.013 40.4088 17.9862 40.405C17.9859 40.405 17.9856 40.405 17.9856 40.405C17.9585 40.401 17.9314 40.3972 17.9046 40.3935C17.8998 40.3927 17.8949 40.3919 17.8904 40.3913C17.8584 40.3868 17.8268 40.3822 17.7954 40.3776C17.7798 40.3755 17.764 40.3733 17.7487 40.3709C17.7211 40.3672 17.694 40.3634 17.6671 40.3594C17.5899 40.3484 17.5147 40.3374 17.4426 40.3272C17.2625 40.6309 16.9993 41.0739 16.7892 41.4276C16.6102 41.7289 16.4696 41.9655 16.4517 41.9958C16.6948 42.3605 16.8936 42.7302 17.0559 43.1008C17.086 43.1019 17.6969 43.1228 18.288 43.1434C18.855 43.163 19.4037 43.1821 19.4037 43.1821C19.4152 43.2878 19.768 46.5626 19.7917 46.7807C19.658 46.8148 17.6137 47.3356 17.5131 47.3614C17.4305 47.773 17.3122 48.1768 17.1592 48.5677L18.7632 50.2871L16.493 53.106L14.4726 51.9061C14.1208 52.1404 13.7527 52.3416 13.3676 52.5104L13.2861 54.8581L9.68768 55.2461L9.10704 52.9676C8.69545 52.8849 8.29163 52.7666 7.90043 52.6137L6.18106 54.2177L3.3624 51.9474L3.86442 51.1022L3.08093 50.3188L2.43939 51.3993C2.16678 51.8584 2.27303 52.4484 2.68892 52.7832L5.50785 55.0535C5.737 55.2381 6.02168 55.3143 6.29643 55.2847C6.52048 55.2606 6.73781 55.1661 6.91329 55.0025L8.16204 53.8374C8.18323 53.8436 8.2047 53.8501 8.2259 53.856L8.64769 55.5112C8.77943 56.0285 9.27179 56.3704 9.80252 56.3132L13.4012 55.9252C13.9322 55.8681 14.3403 55.4291 14.3588 54.8954L14.4181 53.1903C14.438 53.1795 14.4581 53.1685 14.4779 53.1575L15.9448 54.0288C16.1511 54.1514 16.3835 54.1973 16.6076 54.1731C16.8823 54.1436 17.1442 54.0084 17.3288 53.7792L19.599 50.9603C19.9341 50.5444 19.9121 49.9455 19.548 49.5551L18.383 48.3061C18.3892 48.2849 18.3953 48.2637 18.4015 48.2425L19.8555 47.872L20.0568 47.8207C20.1767 47.7901 20.287 47.7402 20.3852 47.6748L20.6594 50.2192L20.8021 51.5425C20.8593 52.0735 21.2983 52.4817 21.8319 52.5002L23.6777 52.5643H23.678L23.6817 52.5646L24.5661 52.5951C24.6624 52.7832 24.7638 52.9689 24.8703 53.1516L23.4732 55.504C23.2798 55.83 23.2771 56.2214 23.4405 56.541C23.5073 56.6719 23.602 56.7908 23.7228 56.8879L24.0549 57.1554L25.7518 58.5223H25.752L27.788 60.1619C28.0172 60.3465 28.3018 60.4227 28.5766 60.3932C28.8006 60.3691 29.018 60.2746 29.1935 60.111L30.2141 59.1587L31.1956 58.2429C31.3961 58.3079 31.5984 58.3672 31.8018 58.4208L32.3776 60.6803L32.4779 61.0745C32.6099 61.5918 33.102 61.9336 33.633 61.8765L38.8225 61.317C39.3535 61.2599 39.7616 60.8209 39.7801 60.2872L39.8539 58.164L38.8072 57.3795L38.7077 60.2499L35.6663 60.5778L34.7151 60.6803L33.5179 60.8094L33.4849 60.6803L32.6808 57.5236C32.0872 57.4044 31.5047 57.2335 30.9407 57.013L30.029 57.8635L28.4612 59.3261L26.638 57.8579L24.396 56.0521L26.1266 53.1385C25.7893 52.6322 25.499 52.1014 25.2551 51.5452C25.059 51.5385 24.294 51.512 23.5408 51.4857C22.7241 51.4572 21.9205 51.4293 21.8692 51.4277L21.756 50.3762L21.3098 46.2379C21.3519 46.2272 24.5355 45.4161 24.5959 45.4008C24.7169 44.7976 24.8894 44.2148 25.1062 43.6608C25.0034 43.5507 22.876 41.2701 22.793 41.1812C22.8778 41.0761 26.0201 37.1742 26.067 37.116L28.9807 38.8466C29.5012 38.5 30.0344 38.2118 30.5739 37.9751L30.6915 34.5893C30.7298 34.585 32.0148 34.4465 33.2965 34.3083C34.5716 34.1709 35.8434 34.0338 35.8812 34.0298L36.7184 37.3159C37.3081 37.4339 37.8939 37.6054 38.4584 37.8262L40.9379 35.5131C40.9403 35.5147 42.1193 36.4643 43.2068 37.3403C44.1376 38.09 45.0013 38.7855 45.0032 38.7871C44.9933 38.8037 44.946 38.8834 44.8728 39.0063C44.4792 39.6696 43.3369 41.5928 43.2728 41.7007C43.4571 41.9779 43.6281 42.2631 43.7845 42.5553C43.9144 42.797 44.034 43.0436 44.144 43.294C44.1996 43.2958 45.6297 43.3455 46.6133 43.3796C47.1341 43.3978 47.5299 43.4115 47.5299 43.4115L48.0894 48.6013C47.9847 48.6278 47.0673 48.8615 46.2278 49.0756C45.521 49.2557 44.8698 49.4215 44.8036 49.4384C44.7426 49.7421 44.668 50.0429 44.58 50.34C44.4966 50.6233 44.4005 50.9031 44.2929 51.1784L46.6061 53.6579L43.3321 57.7232L42.158 57.0259L41.3747 57.8091L42.7839 58.6459C42.9903 58.7683 43.2229 58.8144 43.4469 58.7903C43.7217 58.7608 43.9836 58.6256 44.1679 58.3964L47.4422 54.3312C47.777 53.9153 47.7553 53.3164 47.3909 52.926L45.5229 50.9235C45.5878 50.7231 45.6471 50.5211 45.7008 50.3174C46.6176 50.0837 48.2141 49.6769 48.3545 49.6413C48.872 49.5095 49.2139 49.0172 49.1564 48.4862L48.8248 45.4088L48.7395 44.6184C48.8495 44.6613 48.9681 44.6868 49.0918 44.6911L50.7967 44.7501C50.8077 44.7702 50.8184 44.7901 50.8294 44.8102L50.209 45.8548L49.9582 46.2771C49.7253 46.6694 49.769 47.1575 50.0464 47.5001C50.0934 47.5583 50.1473 47.6122 50.2077 47.6611L53.0266 49.9313C53.0977 49.9885 53.1742 50.0354 53.2539 50.0714C53.4315 50.1529 53.6258 50.183 53.8152 50.1623C53.9462 50.1481 54.0747 50.11 54.1941 50.0478H54.1943C54.2791 50.004 54.3594 49.9479 54.4321 49.8801L55.6808 48.715C55.702 48.7215 55.7235 48.7276 55.7447 48.7338L56.1662 50.3888C56.2982 50.9064 56.7903 51.2482 57.3213 51.1911L58.9749 51.0129L60.92 50.8031C61.0895 50.7848 61.2468 50.7277 61.3828 50.6407C61.6721 50.4556 61.865 50.1363 61.8776 49.7733L61.9369 48.0681C61.9567 48.0574 61.9769 48.0464 61.9967 48.0354L63.4636 48.9066C63.6699 49.029 63.9023 49.0751 64.1263 49.051C64.1864 49.0445 64.246 49.033 64.3045 49.0166C64.5122 48.9576 64.7035 48.836 64.8476 48.6571L67.1178 45.8381C67.4529 45.4223 67.4309 44.8234 67.0668 44.4327L66.0821 43.3771Z" fill="#171D34"/>
<path d="M1.39775 48.6427L1.57188 48.4104L1.25259 45.446C0.825162 45.3849 0.384587 45.3218 0.15625 45.2891L0.541014 48.8609C0.598434 49.3919 1.0374 49.8 1.57108 49.8185L2.60973 49.8547L1.39775 48.6427Z" fill="#171D34"/>
<path d="M1.18854 41.4754C1.7512 41.3949 2.30634 41.3157 2.32727 41.3125C2.45714 40.9004 2.62027 40.5121 2.80863 40.151C2.78851 40.1241 2.64308 39.9301 2.45231 39.6758C1.93285 40.3211 1.44022 40.9326 1.41312 40.9661C1.29103 41.118 1.21644 41.294 1.18854 41.4754Z" fill="#171D34"/>
<path d="M51.6498 34.1554C51.6487 34.1543 51.6476 34.1538 51.6468 34.153C51.6434 34.1503 51.6412 34.1487 51.6407 34.1484C51.3836 34.4055 51.129 34.6601 50.8797 34.9097C50.844 34.9451 50.8086 34.9805 50.7732 35.0162C50.7474 35.0417 50.7217 35.0674 50.6962 35.0932C50.6192 35.1699 50.5427 35.2464 50.4673 35.3221C50.4421 35.347 50.4169 35.3722 50.3919 35.3975C50.3165 35.4726 50.2422 35.5472 50.1684 35.621C50.1437 35.6454 50.1193 35.6701 50.0949 35.6945C50.0705 35.7189 50.0461 35.743 50.0219 35.7675L49.9495 35.8399C49.9253 35.8638 49.9014 35.8877 49.8776 35.9118L49.8065 35.9829C49.7826 36.0068 49.759 36.0301 49.7356 36.0538C49.7123 36.0771 49.6887 36.1004 49.6656 36.1238L49.5961 36.1933C49.573 36.2161 49.5499 36.2392 49.5271 36.2622C49.5043 36.285 49.4818 36.3076 49.459 36.3304C49.4364 36.3529 49.4139 36.3755 49.3916 36.3977C49.3694 36.42 49.3471 36.4423 49.3248 36.4645C49.3028 36.4865 49.2808 36.5086 49.2588 36.5306L49.1936 36.5958C49.1502 36.639 49.1075 36.6819 49.0651 36.7243C49.0442 36.7452 49.023 36.7664 49.0023 36.7871C48.9814 36.8077 48.9607 36.8286 48.9401 36.8493C48.9194 36.87 48.899 36.8904 48.8786 36.9108L48.8182 36.9711C48.7981 36.9912 48.7783 37.0111 48.7584 37.031L48.6935 37.0959C48.9996 37.424 49.049 37.4769 49.5003 37.9604C49.7158 37.7449 50.0203 37.4401 50.3361 37.1243C50.0407 36.8075 49.7914 36.5402 49.7684 36.5155C49.8113 36.4624 51.026 34.9539 51.6619 34.1643C51.657 34.1608 51.653 34.1578 51.6498 34.1554Z" fill="#171D34"/>
<path d="M17.298 39.7014C17.2996 39.6992 17.3012 39.6971 17.3025 39.6952C17.3135 39.6804 17.3243 39.6662 17.3347 39.652C17.3401 39.645 17.3455 39.638 17.3506 39.6311C17.3546 39.6257 17.3586 39.6203 17.3627 39.615C17.3667 39.6096 17.3704 39.6045 17.3745 39.5994C17.3822 39.5887 17.39 39.5785 17.3975 39.5683C17.4016 39.5626 17.4058 39.5573 17.4099 39.5519C17.4101 39.5516 17.4101 39.5514 17.4104 39.5514C17.4107 39.5511 17.4107 39.5511 17.4107 39.5511C17.4126 39.5484 17.4144 39.546 17.416 39.5436C17.4182 39.5409 17.4201 39.5382 17.4219 39.5355C17.477 39.4626 17.5258 39.3974 17.5703 39.3378C17.5768 39.3292 17.5832 39.3206 17.5896 39.312C17.6009 39.297 17.6119 39.2825 17.6226 39.268C17.6272 39.2619 17.6318 39.2557 17.6363 39.2495C17.6916 39.176 17.7402 39.1113 17.7852 39.051C17.7912 39.0432 17.7968 39.0357 17.8024 39.0282C17.8083 39.0204 17.814 39.0129 17.8193 39.0056C17.8362 38.9833 17.8526 38.9613 17.8687 38.9399C17.8797 38.9254 17.8904 38.9109 17.9012 38.8967C17.9071 38.8886 17.913 38.8806 17.9191 38.8725C17.9293 38.8591 17.9395 38.8454 17.9497 38.8318C17.9511 38.8299 17.9524 38.8283 17.9538 38.8264C17.9634 38.8135 17.9731 38.8006 17.9827 38.7877C17.9908 38.777 17.9988 38.7663 18.0071 38.7553C15.3505 36.6157 15.5121 36.7456 14.7755 36.1523L14.7704 36.1574C15.4979 36.8848 16.8724 38.2594 16.8891 38.2763C16.8681 38.3045 16.642 38.6058 16.3769 38.9595C16.723 39.2385 17.0584 39.5085 17.298 39.7014Z" fill="#171D34"/>
<path d="M67.9861 37.9477C67.929 37.4167 67.49 37.0086 66.9563 36.9901L65.2512 36.9311C65.2404 36.911 65.2294 36.8911 65.2184 36.871C65.564 36.2893 66.0604 35.4537 66.0897 35.4044C66.3625 34.9453 66.2563 34.3553 65.8404 34.0204C65.8154 34.0003 63.051 31.7738 63.0212 31.7499C62.7923 31.5656 62.5076 31.4891 62.2329 31.5189C62.0088 31.543 61.7915 31.6375 61.616 31.8011L60.367 32.9662C60.3458 32.9597 60.3246 32.9536 60.3034 32.9474L59.8816 31.2924C59.7499 30.7748 59.2575 30.433 58.7265 30.4902L55.6908 30.8175C55.6905 30.7815 55.6887 30.7453 55.6846 30.7091L55.0297 24.6328H54.624V33.1293H54.1008C54.0986 33.1443 53.9696 34.0475 53.8644 34.7829L54.0568 34.8972C54.4168 34.6574 54.7882 34.4567 55.1617 34.293L55.243 31.9452C55.2961 31.9396 58.7891 31.5629 58.8416 31.5572L59.4223 33.8358C59.8312 33.9179 60.2372 34.0368 60.6286 34.19L62.348 32.5857C62.3778 32.6096 65.142 34.8361 65.1669 34.8562C65.1229 34.9303 64.0196 36.7878 63.967 36.8766C64.2101 37.2413 64.4089 37.611 64.5713 37.9813C64.6303 37.9834 66.919 38.0628 66.919 38.0628L67.307 41.6615C67.237 41.6795 66.6429 41.8308 66.0787 41.9744V43.0817L67.4846 42.7238L67.5721 42.7015C68.0894 42.5697 68.4313 42.0774 68.3741 41.5464L67.9861 37.9477Z" fill="#171D34"/>
<path d="M58.5238 45.4924C61.0876 45.216 62.9486 42.9053 62.6723 40.3415C62.3799 37.6295 59.9328 35.9287 57.5056 36.1905C56.7423 36.2729 55.9806 36.5494 55.289 37.0496C53.8781 38.0699 53.1029 39.8233 53.4141 41.6367C53.8279 44.0477 56.0587 45.7581 58.5238 45.4924ZM55.9179 37.9193C56.4333 37.5465 57.0063 37.3239 57.6208 37.2576C57.6208 37.2576 57.6209 37.2576 57.621 37.2576C58.5385 37.1587 59.4914 37.4299 60.2355 38.0018C61.0125 38.599 61.4989 39.4708 61.6052 40.4565C61.8181 42.432 60.3842 44.2124 58.4088 44.4253C56.522 44.6287 54.7927 43.324 54.4719 41.4551C54.2375 40.0887 54.7915 38.7338 55.9179 37.9193Z" fill="#171D34"/>
<path d="M5.85502 46.4682C6.13138 49.032 8.44207 50.893 11.0059 50.6167C13.4711 50.3509 15.2861 48.2044 15.1765 45.7606C15.0948 43.9366 13.9758 42.3802 12.3672 41.6784C11.5847 41.337 10.782 41.2291 10.0185 41.3115C7.59158 41.5731 5.56269 43.7562 5.85502 46.4682ZM10.1335 42.3785C10.7479 42.3123 11.3549 42.4077 11.938 42.6621C13.2122 43.218 14.0422 44.4237 14.1043 45.8086C14.1892 47.703 12.7777 49.3462 10.8909 49.5496C8.9154 49.7625 7.13502 48.3286 6.92208 46.3532C6.68331 44.1378 8.40313 42.5651 10.1335 42.3785Z" fill="#171D34"/>
<path d="M52.6209 13.0163L53.175 13.5032C53.2072 13.5314 53.2412 13.5562 53.2768 13.5773C53.554 13.7425 53.9182 13.692 54.1389 13.4409C54.3878 13.1575 54.36 12.726 54.0766 12.477L53.5225 11.9902C53.2391 11.7414 52.8076 11.7691 52.5586 12.0524C52.3096 12.3358 52.3375 12.7673 52.6209 13.0163Z" fill="#171D34"/>
<path d="M50.3193 11.0007L50.8734 11.4876C50.9056 11.5159 50.9397 11.5406 50.9752 11.5618C51.2524 11.7269 51.6166 11.6765 51.8373 11.4253C52.0863 11.142 52.0584 10.7104 51.775 10.4615L51.2209 9.9746C50.9376 9.72566 50.506 9.75349 50.257 10.0369C50.008 10.3202 50.0359 10.7518 50.3193 11.0007Z" fill="#171D34"/>
<path d="M48.0224 8.98119L48.5765 9.46805C48.6087 9.49633 48.6428 9.52104 48.6783 9.54221C48.9556 9.70739 49.3198 9.65692 49.5404 9.40578C49.7894 9.12241 49.7615 8.69085 49.4781 8.4419L48.924 7.95504C48.6406 7.70613 48.2091 7.73398 47.9602 8.01732C47.7112 8.30069 47.739 8.73225 48.0224 8.98119Z" fill="#171D34"/>
<path d="M59.3614 19.0046L59.9155 19.4914C59.9477 19.5197 59.9817 19.5444 60.0173 19.5656C60.2945 19.7308 60.6587 19.6803 60.8794 19.4292C61.1283 19.1458 61.1005 18.7143 60.8171 18.4653L60.263 17.9784C59.9796 17.7297 59.5481 17.7573 59.2991 18.0407C59.0501 18.3241 59.078 18.7556 59.3614 19.0046Z" fill="#171D34"/>
<path d="M57.0645 16.989L57.6186 17.4759C57.6508 17.5042 57.6848 17.5289 57.7204 17.5501C57.9976 17.7152 58.3618 17.6648 58.5825 17.4136C58.8314 17.1302 58.8036 16.6987 58.5202 16.4497L57.9661 15.9629C57.6828 15.7139 57.2512 15.7418 57.0022 16.0252C56.7532 16.3085 56.7811 16.74 57.0645 16.989Z" fill="#171D34"/>
<path d="M54.7653 14.9694L55.3194 15.4563C55.3516 15.4846 55.3857 15.5093 55.4212 15.5305C55.6984 15.6957 56.0626 15.6452 56.2833 15.3941C56.5322 15.1107 56.5044 14.6792 56.221 14.4302L55.6669 13.9433C55.3834 13.6944 54.952 13.7223 54.703 14.0056C54.454 14.2889 54.4819 14.7205 54.7653 14.9694Z" fill="#171D34"/>
<path d="M22.2954 57.777C22.2821 57.7639 22.2685 57.7513 22.2544 57.7393C22.1193 57.624 21.9493 57.5616 21.7699 57.5625C21.5717 57.5635 21.3859 57.6417 21.2466 57.7825C20.9843 58.0475 20.9599 58.4684 21.1898 58.7614C21.209 58.7859 21.23 58.8094 21.2521 58.8313C21.3971 58.9748 21.5441 59.119 21.6889 59.2597C21.9823 59.5447 22.4526 59.5379 22.7376 59.2446C23.0225 58.9515 23.0158 58.4811 22.7226 58.196C22.5803 58.0576 22.4365 57.9167 22.2954 57.777Z" fill="#171D34"/>
<path d="M24.9195 60.0131C24.913 60.0076 24.9063 60.002 24.8995 59.9966C24.7445 59.8734 24.5875 59.7474 24.433 59.6221C24.1153 59.3647 23.6474 59.4137 23.3899 59.7314C23.1611 60.0138 23.1693 60.4163 23.4094 60.6885C23.4367 60.7195 23.467 60.7485 23.4992 60.7745C23.6588 60.9039 23.8194 61.0328 23.9765 61.1577C24.2966 61.4122 24.764 61.3588 25.0185 61.0387C25.2675 60.7255 25.2217 60.2711 24.9195 60.0131Z" fill="#171D34"/>
<path d="M27.3072 61.4137C27.2722 61.3839 27.2339 61.3568 27.1925 61.3332C27.0317 61.2417 26.8627 61.1441 26.6759 61.0348C26.3229 60.8284 25.8678 60.9477 25.6613 61.3007C25.4841 61.6039 25.5452 61.9937 25.8066 62.2275C25.8435 62.2604 25.8841 62.29 25.9272 62.3152C26.1198 62.4279 26.2936 62.5282 26.4585 62.6221C26.8138 62.8245 27.2675 62.7 27.4699 62.3447C27.6487 62.0308 27.5724 61.6401 27.3072 61.4137Z" fill="#171D34"/>
<path d="M29.8273 62.4843C29.7728 62.4377 29.711 62.3988 29.6435 62.3691L29.5914 62.3462C29.4264 62.2738 29.2623 62.2001 29.1038 62.1268C28.7325 61.9555 28.2911 62.1181 28.1196 62.4893C27.9823 62.787 28.0589 63.1449 28.3061 63.3598C28.3589 63.4058 28.4181 63.4439 28.4822 63.4735C28.6505 63.5512 28.8232 63.6289 28.9953 63.7044L29.0462 63.7267C29.2275 63.8065 29.429 63.8109 29.6136 63.7391C29.7983 63.6673 29.9439 63.5278 30.0236 63.3465C30.1034 63.1652 30.1077 62.9637 30.0359 62.779C29.9909 62.6632 29.9193 62.5628 29.8273 62.4843Z" fill="#171D34"/>
<path d="M32.6172 63.3631C32.5217 63.2682 32.4016 63.201 32.2674 63.169C32.1022 63.1296 31.9162 63.0825 31.6985 63.0248C31.3032 62.9201 30.8964 63.1565 30.7917 63.5518C30.7076 63.8696 30.8386 64.1992 31.1178 64.3721C31.1799 64.4106 31.2476 64.4397 31.3188 64.4586C31.5488 64.5195 31.7465 64.5696 31.9233 64.6117C32.3211 64.7065 32.7219 64.4601 32.8167 64.0623C32.8627 63.8696 32.8308 63.6706 32.727 63.5018C32.6956 63.4508 32.6587 63.4043 32.6172 63.3631Z" fill="#171D34"/>
<path d="M35.5577 63.6874C35.4544 63.601 35.329 63.5444 35.1925 63.524C35.0246 63.4989 34.8351 63.4679 34.6133 63.4291C34.2105 63.3587 33.8255 63.6291 33.7551 64.032C33.6986 64.3557 33.8574 64.6729 34.1503 64.8213C34.2156 64.8543 34.2854 64.8775 34.358 64.8902C34.5923 64.9311 34.7936 64.9641 34.9734 64.9909C35.3779 65.0513 35.756 64.7714 35.8164 64.367C35.8457 64.171 35.7969 63.9754 35.679 63.8162C35.6433 63.768 35.6026 63.7249 35.5577 63.6874Z" fill="#171D34"/>
<path d="M62.0985 30.0947C62.3075 30.0947 62.5041 30.0133 62.6519 29.8655L63.9043 28.6131C64.2095 28.3079 64.2095 27.8114 63.9043 27.5062C63.5991 27.201 63.1026 27.2011 62.7974 27.5062L61.5451 28.7586C61.3972 28.9064 61.3158 29.103 61.3158 29.3121C61.3158 29.5211 61.3972 29.7177 61.5451 29.8655C61.6928 30.0133 61.8894 30.0947 62.0985 30.0947Z" fill="#171D34"/>
<path d="M67.4074 24.7897C67.6079 24.7897 67.8083 24.7134 67.9609 24.5609L69.2133 23.3084C69.5185 23.0033 69.5185 22.5067 69.2133 22.2016C68.9081 21.8964 68.4116 21.8963 68.1064 22.2016L66.854 23.454C66.5488 23.7591 66.5488 24.2557 66.854 24.5609C67.0066 24.7134 67.207 24.7897 67.4074 24.7897Z" fill="#171D34"/>
<path d="M69.2133 28.7586L67.9609 27.5062C67.6557 27.201 67.1591 27.2011 66.854 27.5062C66.5488 27.8114 66.5488 28.3079 66.854 28.6131L68.1064 29.8655C68.2543 30.0133 68.4508 30.0947 68.6598 30.0947C68.8689 30.0947 69.0654 30.0133 69.2133 29.8655C69.3611 29.7177 69.4425 29.5211 69.4425 29.3121C69.4425 29.103 69.3611 28.9065 69.2133 28.7586Z" fill="#171D34"/>
<path d="M62.7974 24.5573C62.95 24.7099 63.1504 24.7862 63.3509 24.7862C63.5513 24.7862 63.7517 24.7099 63.9043 24.5573C64.2095 24.2521 64.2095 23.7556 63.9043 23.4504L62.6519 22.198C62.5041 22.0502 62.3075 21.9688 62.0985 21.9688C61.8894 21.9688 61.6929 22.0502 61.5451 22.198C61.3972 22.3458 61.3158 22.5424 61.3158 22.7514C61.3158 22.9605 61.3972 23.157 61.5451 23.3049L62.7974 24.5573Z" fill="#171D34"/>
<path d="M35.7661 9.80316C35.9222 9.80316 36.069 9.74236 36.1793 9.63197L37.064 8.74731C37.2918 8.51948 37.2918 8.14872 37.064 7.92089C36.8362 7.69307 36.4654 7.69301 36.2375 7.92087L35.3529 8.80556C35.125 9.03338 35.125 9.40415 35.3529 9.63197C35.4633 9.74236 35.61 9.80316 35.7661 9.80316Z" fill="#171D34"/>
<path d="M39.5155 6.05285C39.6652 6.05285 39.8148 5.99589 39.9287 5.88196L40.8134 4.99729C41.0412 4.76947 41.0412 4.39871 40.8134 4.17088C40.5856 3.94303 40.2148 3.94305 39.987 4.17088L39.1023 5.05552C38.9919 5.16588 38.9312 5.31265 38.9312 5.46873C38.9312 5.62481 38.9919 5.77157 39.1023 5.88193C39.2162 5.99586 39.3659 6.05285 39.5155 6.05285Z" fill="#171D34"/>
<path d="M39.987 9.63196C40.1009 9.74589 40.2505 9.80285 40.4002 9.80285C40.5498 9.80285 40.6995 9.74589 40.8134 9.63196C41.0412 9.40413 41.0412 9.03337 40.8134 8.80554L39.9287 7.92088C39.7009 7.69303 39.3301 7.69305 39.1023 7.92088C38.9919 8.03124 38.9312 8.17801 38.9312 8.33409C38.9312 8.49017 38.9919 8.63693 39.1023 8.74727L39.987 9.63196Z" fill="#171D34"/>
<path d="M36.2375 5.88229C36.3515 5.99619 36.5011 6.05315 36.6507 6.05315C36.8004 6.05315 36.95 5.99619 37.0639 5.88226C37.2918 5.65444 37.2918 5.28368 37.0639 5.05585L36.1793 4.17119C36.0689 4.0608 35.9222 4 35.7661 4C35.61 4 35.4632 4.0608 35.3529 4.17119C35.125 4.39901 35.125 4.76977 35.3529 4.9976L36.2375 5.88229Z" fill="#171D34"/>
<path d="M1.73542 21.6388C1.88509 21.6388 2.03473 21.5818 2.14863 21.4679L3.03329 20.5832C3.26115 20.3554 3.26115 19.9847 3.03329 19.7568C2.80544 19.529 2.43471 19.529 2.20685 19.7568L1.32219 20.6415C1.2118 20.7518 1.151 20.8986 1.151 21.0547C1.151 21.2108 1.2118 21.3575 1.32219 21.4679C1.43614 21.5818 1.58578 21.6388 1.73542 21.6388Z" fill="#171D34"/>
<path d="M5.48427 17.8927C5.63391 17.8927 5.78355 17.8358 5.89745 17.7218L6.78212 16.8372C7.00997 16.6093 7.00997 16.2386 6.78212 16.0107C6.55432 15.7829 6.1835 15.7829 5.9557 16.0107L5.07104 16.8954C4.84318 17.1232 4.84318 17.494 5.07104 17.7218C5.18496 17.8358 5.3346 17.8927 5.48427 17.8927Z" fill="#171D34"/>
<path d="M5.95573 21.4679C6.06963 21.5818 6.21927 21.6388 6.36894 21.6388C6.51858 21.6388 6.66822 21.5818 6.78212 21.4679C7.00997 21.2401 7.00997 20.8693 6.78212 20.6415L5.89745 19.7568C5.66965 19.529 5.29884 19.529 5.07104 19.7568C4.84318 19.9846 4.84318 20.3554 5.07104 20.5832L5.95573 21.4679Z" fill="#171D34"/>
<path d="M2.20688 17.7218C2.32081 17.8357 2.47045 17.8927 2.62009 17.8927C2.76973 17.8927 2.91936 17.8357 3.03329 17.7218C3.14368 17.6114 3.20448 17.4647 3.20448 17.3086C3.20448 17.1525 3.14368 17.0057 3.03329 16.8954L2.14863 16.0107C1.9208 15.7829 1.55007 15.7829 1.32219 16.0107C1.2118 16.1211 1.151 16.2678 1.151 16.4239C1.151 16.58 1.2118 16.7268 1.32219 16.8371L2.20688 17.7218Z" fill="#171D34"/>
<path d="M50.1619 57.0185L49.2773 57.9032C49.0494 58.131 49.0494 58.5018 49.2773 58.7296C49.3912 58.8435 49.5408 58.9005 49.6905 58.9005C49.8401 58.9005 49.9898 58.8435 50.1037 58.7296L50.9883 57.845C51.2162 57.6171 51.2162 57.2464 50.9883 57.0185C50.7606 56.7907 50.3898 56.7907 50.1619 57.0185Z" fill="#171D34"/>
<path d="M53.442 55.1466C53.5917 55.1466 53.7413 55.0896 53.8552 54.9757L54.7399 54.0911C54.9678 53.8632 54.9678 53.4925 54.7399 53.2646C54.5121 53.0368 54.1413 53.0368 53.9135 53.2646L53.0288 54.1493C52.8009 54.3771 52.8009 54.7479 53.0288 54.9757C53.1428 55.0896 53.2924 55.1466 53.442 55.1466Z" fill="#171D34"/>
<path d="M53.8552 57.0185C53.6274 56.7907 53.2567 56.7907 53.0288 57.0185C52.8009 57.2464 52.8009 57.6172 53.0288 57.845L53.9135 58.7296C54.0274 58.8436 54.177 58.9005 54.3267 58.9005C54.4763 58.9005 54.626 58.8436 54.7399 58.7297C54.8503 58.6193 54.9111 58.4725 54.9111 58.3164C54.9111 58.1604 54.8503 58.0136 54.7399 57.9032L53.8552 57.0185Z" fill="#171D34"/>
<path d="M50.1037 53.2646C49.8759 53.0368 49.5051 53.0368 49.2773 53.2646C49.0494 53.4925 49.0494 53.8632 49.2773 54.091L50.1619 54.9757C50.2758 55.0896 50.4255 55.1466 50.5751 55.1466C50.7248 55.1466 50.8744 55.0896 50.9883 54.9757C51.2162 54.7479 51.2162 54.3771 50.9883 54.1493L50.1037 53.2646Z" fill="#171D34"/>
<path d="M11.561 61.0107L10.6763 61.8954C10.5659 62.0058 10.5051 62.1525 10.5051 62.3086C10.5051 62.4647 10.5659 62.6115 10.6763 62.7218C10.7902 62.8357 10.9399 62.8927 11.0895 62.8927C11.2392 62.8927 11.3888 62.8357 11.5027 62.7218L12.3874 61.8372C12.6152 61.6093 12.6152 61.2385 12.3874 61.0107C12.1595 60.7829 11.7889 60.7829 11.561 61.0107Z" fill="#171D34"/>
<path d="M15.3098 57.2568L14.4252 58.1415C14.1973 58.3693 14.1973 58.7401 14.4252 58.9679C14.5391 59.0818 14.6887 59.1388 14.8383 59.1388C14.988 59.1388 15.1376 59.0818 15.2516 58.9679L16.1362 58.0832C16.2466 57.9729 16.3074 57.8261 16.3074 57.67C16.3074 57.514 16.2466 57.3672 16.1362 57.2568C15.9084 57.029 15.5376 57.029 15.3098 57.2568Z" fill="#171D34"/>
<path d="M15.2516 61.0107C15.0238 60.7829 14.653 60.7829 14.4252 61.0107C14.1973 61.2386 14.1973 61.6093 14.4252 61.8371L15.3098 62.7218C15.4237 62.8357 15.5734 62.8927 15.723 62.8927C15.8727 62.8927 16.0223 62.8357 16.1362 62.7218C16.3641 62.494 16.3641 62.1232 16.1362 61.8954L15.2516 61.0107Z" fill="#171D34"/>
<path d="M11.5024 57.2568C11.2746 57.029 10.9038 57.029 10.676 57.2568C10.4482 57.4846 10.4482 57.8554 10.676 58.0832L11.5607 58.9679C11.6746 59.0818 11.8242 59.1388 11.9739 59.1388C12.1235 59.1388 12.2732 59.0818 12.3871 58.9679C12.6149 58.7401 12.6149 58.3693 12.3871 58.1415L11.5024 57.2568Z" fill="#171D34"/>
</svg>
